<?xml version="1.0" encoding="utf-8"?>
<!-- Generator: Adobe Illustrator 22.1.0, SVG Export Plug-In . SVG Version: 6.00 Build 0)  -->
<svg version="1.1" id="图层_1" xmlns="http://www.w3.org/2000/svg" xmlns:xlink="http://www.w3.org/1999/xlink" x="0px" y="0px"
	 viewBox="0 0 200 200" style="enable-background:new 0 0 200 200;" xml:space="preserve">
<style type="text/css">
	.st0{fill:#64CDE5;}
	.st1{display:none;fill:#FFAA00;}
	.st2{fill:#31A400;}
</style>
<path class="st0" d="M155.9,191.7H44.1c-7.9,0-15.4-3.7-20.1-10c-4.7-6.1-6.3-14.1-4.2-21.5c7.2-24.3,25.1-44.1,48.5-53.8
	C44.1,88.8,38.7,55,56.3,30.7s51.4-29.6,75.7-12s29.6,51.4,12,75.7c-10.2,14.1-26.6,22.4-44,22.3c-29.6,0.1-55.6,19.6-64,48
	c-0.6,2.4-0.1,5,1.5,6.9c1.6,2.2,4.1,3.4,6.8,3.4h111.6c2.7,0,5.2-1.3,6.8-3.4c1.5-2,2-4.5,1.3-6.9c-4.4-15,1.3-10.7,1.3-10.7
	s4.6-1.1,8.3,1c16.3,10.8,0.9-13.9,6.5,4.8c2.1,7.4,0.6,15.5-4.2,21.6C171.2,187.8,163.8,191.6,155.9,191.7z M100,25
	c-20.7-0.2-37.7,16.4-37.9,37.1C61.9,82.8,78.5,99.8,99.3,100h0.8c20.7,0,37.5-16.8,37.5-37.5S120.7,25,100,25z"/>
<path class="st1" d="M149.2,150.8h-10.9v-32.8h10.9V150.8z M149.2,172.6h-10.9v-10.9h10.9V172.6z M143.7,90.6
	c-30.2,0-54.7,24.5-54.7,54.7s24.5,54.7,54.7,54.7s54.7-24.5,54.7-54.7l0,0C198.4,115.1,173.9,90.6,143.7,90.6z"/>
<path class="st2" d="M132.2,171.6l-27.8-27.8l7.8-7.8l19.9,19.9l42.2-42.2l7.8,7.9L132.2,171.6z M143.3,88.3
	c-30.7,0-55.6,24.9-55.6,55.6s24.9,55.6,55.6,55.6s55.6-24.9,55.6-55.6l0,0C198.9,113.1,174,88.3,143.3,88.3z"/>
</svg>
