<?xml version="1.0" encoding="utf-8"?>
<!-- Generator: Adobe Illustrator 22.1.0, SVG Export Plug-In . SVG Version: 6.00 Build 0)  -->
<svg version="1.1" id="图层_1" xmlns="http://www.w3.org/2000/svg" xmlns:xlink="http://www.w3.org/1999/xlink" x="0px" y="0px"
	 viewBox="0 0 200 200" style="enable-background:new 0 0 200 200;" xml:space="preserve">
<style type="text/css">
	.st0{fill:#64CDE5;}
</style>
<path class="st0" d="M100,133.3c-18.4,0-33.3-14.9-33.3-33.3S81.6,66.7,100,66.7s33.3,14.9,33.3,33.3S118.4,133.3,100,133.3
	L100,133.3z M100,83.3c-9.2,0-16.7,7.5-16.7,16.7s7.5,16.7,16.7,16.7s16.7-7.5,16.7-16.7v0C116.7,90.8,109.2,83.3,100,83.3
	C100,83.3,100,83.3,100,83.3z"/>
<path class="st0" d="M145.8,183.9c-2.9,0-5.8-0.7-8.3-2l-37-19.3c-0.3-0.2-0.7-0.2-1,0l-37,19.3c-8.7,4.6-19.4,1.2-24-7.5
	c-1.8-3.5-2.4-7.4-1.8-11.2l7-41.1c0.1-0.3,0-0.7-0.3-1L13.6,91.9c-7-6.9-7.1-18.1-0.2-25.1c2.7-2.8,6.3-4.6,10.1-5.1l41.3-6
	c0.3-0.1,0.6-0.3,0.8-0.6l18.5-37.5c4.3-8.8,15-12.4,23.8-8.1c3.5,1.7,6.3,4.6,8.1,8.1l18.5,37.5c0.2,0.3,0.5,0.5,0.8,0.6l41.3,6
	c9.7,1.4,16.4,10.4,15,20.1c-0.6,3.9-2.4,7.5-5.2,10.2l-29.9,29.2c-0.3,0.2-0.4,0.6-0.3,1c0.6,4.6-2.5,8.8-7.1,9.4
	c-4.4,0.6-8.5-2.3-9.3-6.6c-1-5.8,0.9-11.6,5.1-15.7L174.7,80c0.3-0.3,0.4-0.7,0.3-1.1c-0.1-0.4-0.5-0.7-0.9-0.8l-41.3-6
	c-5.8-0.8-10.8-4.5-13.4-9.7L101,25c-0.3-0.5-0.9-0.7-1.5-0.5c-0.2,0.1-0.4,0.3-0.5,0.5L80.6,62.5c-2.6,5.2-7.6,8.9-13.4,9.7
	l-41.3,6c-0.4,0.1-0.8,0.3-0.9,0.8c-0.1,0.4,0,0.8,0.3,1.1l29.9,29.2c4.2,4.1,6.1,10,5.1,15.8l-7,41.1c-0.1,0.4,0.1,0.8,0.4,1.1
	c0.4,0.2,0.8,0.2,1.2,0l36.8-19.5c5.2-2.8,11.5-2.8,16.7,0l36.9,19.4c0.4,0.2,0.8,0.2,1.2,0c0.4-0.2,0.5-0.7,0.4-1.1
	c-1-4.5,1.9-8.9,6.4-9.9c4.5-1,8.9,1.9,9.9,6.4c0,0.2,0.1,0.5,0.1,0.7c1.7,9.7-4.7,18.9-14.4,20.6c-1,0.2-2,0.3-3.1,0.3L145.8,183.9
	z"/>
</svg>
