<?xml version="1.0" encoding="utf-8"?>
<!-- Generator: Adobe Illustrator 22.1.0, SVG Export Plug-In . SVG Version: 6.00 Build 0)  -->
<svg version="1.1" id="图层_1" xmlns="http://www.w3.org/2000/svg" xmlns:xlink="http://www.w3.org/1999/xlink" x="0px" y="0px"
	 viewBox="0 0 200 200" style="enable-background:new 0 0 200 200;" xml:space="preserve">
<style type="text/css">
	.st0{fill:#40A3FF;}
</style>
<path class="st0" d="M65,25h110c8.3,0,15,6.7,15,15s-6.7,15-15,15H65c-8.3,0-15-6.7-15-15S56.7,25,65,25z"/>
<path class="st0" d="M25,25L25,25c10,0,15,5,15,15l0,0c0,10-5,15-15,15l0,0c-10,0-15-5-15-15l0,0C10,30,15,25,25,25z"/>
<path class="st0" d="M25,85L25,85c10,0,15,5,15,15l0,0c0,10-5,15-15,15l0,0c-10,0-15-5-15-15l0,0C10,90,15,85,25,85z"/>
<path class="st0" d="M25,145L25,145c10,0,15,5,15,15l0,0c0,10-5,15-15,15l0,0c-10,0-15-5-15-15l0,0C10,150,15,145,25,145z"/>
<path class="st0" d="M65,85h110c8.3,0,15,6.7,15,15c0,8.3-6.7,15-15,15H65c-8.3,0-15-6.7-15-15S56.7,85,65,85z M65,145h110
	c8.3,0,15,6.7,15,15c0,8.3-6.7,15-15,15H65c-8.3,0-15-6.7-15-15C50,151.7,56.7,145,65,145z"/>
</svg>
