<?xml version="1.0" encoding="utf-8"?>
<!-- Generator: Adobe Illustrator 22.1.0, SVG Export Plug-In . SVG Version: 6.00 Build 0)  -->
<svg version="1.1" id="图层_1" xmlns="http://www.w3.org/2000/svg" xmlns:xlink="http://www.w3.org/1999/xlink" x="0px" y="0px"
	 viewBox="0 0 200 200" style="enable-background:new 0 0 200 200;" xml:space="preserve">
<style type="text/css">
	.st0{fill:#64CDE5;}
</style>
<path class="st0" d="M141.7,191.7h-50c-9.2,0-16.7-7.5-16.7-16.7v-45.8c0.2-9.6,5.8-18.4,14.4-22.7c12.5-5.8,27.4-0.4,33.2,12.1
	c1.6,3.3,2.4,6.9,2.4,10.6v29.2c0,4.6-3.7,8.3-8.3,8.3c-4.6,0-8.3-3.7-8.3-8.3v-29.2c0-2.2-0.9-4.4-2.5-6c-2.6-2.5-6.5-3.1-9.8-1.5
	c-2.6,1.7-4.2,4.4-4.4,7.5V175h50c4.6,0,8.3-3.7,8.3-8.3c0,0,0,0,0,0V96.5c0-4.6,3.7-8.3,8.3-8.3l0,0h4.9l-57.3-57.3
	c-3.2-3.3-8.5-3.3-11.8,0c0,0,0,0,0,0L36.8,88.2h4.9c4.6,0,8.3,3.7,8.3,8.3V166c0,4.8,3.8,8.8,8.6,9c4.6,0.2,8.2,4,8,8.6
	c-0.2,4.6-4,8.2-8.6,8l0,0c-13.8-0.5-24.8-11.8-24.7-25.7v-61.1H16.7c-3.4,0-6.4-2-7.7-5.1c-1.3-3.1-0.6-6.7,1.8-9.1l71.5-71.5
	c9.8-9.7,25.6-9.7,35.3,0l71.5,71.5c2.4,2.4,3.1,6,1.8,9.1c-1.3,3.1-4.3,5.1-7.7,5.1h-16.7v61.8
	C166.7,180.5,155.5,191.7,141.7,191.7L141.7,191.7z"/>
</svg>
