<?xml version="1.0" encoding="utf-8"?>
<!-- Generator: Adobe Illustrator 22.1.0, SVG Export Plug-In . SVG Version: 6.00 Build 0)  -->
<svg version="1.1" id="图层_1" xmlns="http://www.w3.org/2000/svg" xmlns:xlink="http://www.w3.org/1999/xlink" x="0px" y="0px"
	 viewBox="0 0 200 200" style="enable-background:new 0 0 200 200;" xml:space="preserve">
<style type="text/css">
	.st0{fill:#39BFDE;}
</style>
<path class="st0" d="M62.5,100c-4.6,0-8.3-3.7-8.3-8.3c0-23,18.7-41.7,41.7-41.7l0,0c4.6,0,8.3,3.7,8.3,8.3s-3.7,8.3-8.3,8.3
	c-13.8,0-25,11.2-25,25C70.8,96.3,67.1,100,62.5,100z"/>
<path class="st0" d="M170.8,179.2c-2.2,0-4.3-0.9-5.9-2.4L137.8,150c-3.3-3.2-3.3-8.5-0.1-11.8c0.1-0.1,0.2-0.2,0.3-0.3
	c25.7-23,27.9-62.5,4.8-88.3C124.3,29,94.2,23,69.2,35.1c-31.3,14.6-44.8,51.8-30.2,83.1c13.7,29.4,47.6,43.4,78,32.3
	c4.4-1.4,9.1,0.9,10.5,5.3c1.4,4.2-0.7,8.7-4.9,10.4c-41.2,14.8-86.5-6.6-101.3-47.8C7.6,80,25.2,37.5,62,20.1
	c10.6-5,22.1-7.6,33.8-7.6c43.7,0,79.2,35.4,79.2,79.1c0,19.2-7,37.8-19.6,52.2l21.3,21.1c3.3,3.2,3.3,8.5,0,11.8
	C175.2,178.3,173.1,179.2,170.8,179.2z"/>
</svg>
