<svg xmlns="http://www.w3.org/2000/svg" viewBox="0 0 130.89 43.55"><defs><style>.cls-1{fill:#4aacc2;}.cls-1,.cls-3,.cls-5{stroke:#4aacc2;stroke-miterlimit:10;stroke-width:0.3px;}.cls-2{fill:#ffb876;}.cls-3{fill:#1d6c70;}.cls-4{fill:#fff;}.cls-5{fill:#3b8b93;}.cls-6{fill:#fff9f3;}.cls-7{fill:#534039;}.cls-8{fill:#161416;}</style></defs><title>资源 7</title><g id="图层_2" data-name="图层 2"><g id="图层_1-2" data-name="图层 1"><path class="cls-1" d="M41,28.12,41,31.67l.94-.09,0,1.06-1,.12-.2,7.56-1.29-.11-.09-7.32-1,.1-.06-1.14,1-.07,0-3.74Zm6.7-.57.14.18.13.21a2.85,2.85,0,0,1,.12.29.68.68,0,0,1,0,.35,2.37,2.37,0,0,1-.09.36l.85,0,0,1.41L46,30.36V31L48.7,31l.07,4.44H46.92v-.6l-1,0v.71l-1.33,0v-.66l-1,0v.92H42.54l0-4.73,2,0v-.64l-2.41,0,0-1.23,2.42-.1V27.52h1.77l0,1.49,1.07,0-.52-.58Zm0,8.15v1.06h1.33v1.15L47.79,38l0,1.29a1.54,1.54,0,0,1-.14.69,1.15,1.15,0,0,1-.38.43,1,1,0,0,1-1,.05,1.06,1.06,0,0,1-.41-.38,1.35,1.35,0,0,1-.21-.64h.49V38l-2,.07a2.61,2.61,0,0,1,.2.17,2.28,2.28,0,0,1,.22.22,1.05,1.05,0,0,1,.17.37,2.3,2.3,0,0,1,0,.45,2,2,0,0,1,0,.43,1.1,1.1,0,0,1-.09.33L43,39.27l.64-1.14-1.51.06V36.76h4V35.7Zm-4.18-2.89.95,0v-.61l-.94.06Zm0,1.24,1,0v-.56h-1ZM45.94,34l1,0v-.52l-.94,0ZM46,32.1l0,.63.91,0V32Z"/><path class="cls-1" d="M52.71,31H50.87l0-2.15,3.55.05,0-1.06L57,28l-.1.92,3.06,0L60,31H58.42V30L53.31,30v.26l1.52.77a.37.37,0,0,1-.06.1.93.93,0,0,1,0,.1l-.08.14,4.45.18V33l-1.76.92,3,1.09a1.5,1.5,0,0,1-.48.68,1.32,1.32,0,0,1-.33.2A2.21,2.21,0,0,1,59,36a2.61,2.61,0,0,1-.56,0,3.14,3.14,0,0,1-.7-.18c-.35-.11-.71-.24-1.1-.4s-.78-.35-1.18-.56l-1.59.84a3.62,3.62,0,0,1-1.14.44,1.7,1.7,0,0,1-.77-.05,1.14,1.14,0,0,1-.5-.32,5.15,5.15,0,0,1-.32-.41L54,34l-.26-.18-.26-.2.69-.85,1.35.5L57,32.53l-2.91-.35a9.7,9.7,0,0,1-1,1.3,1.12,1.12,0,0,1-.72.43,1.39,1.39,0,0,1-.68-.07,2.36,2.36,0,0,1-.71-.41Zm6.34,5.35,0,4-6.89-.12.06-3.7ZM53.5,37.53l0,1.74,3.37.06,0-1.93Z"/><path class="cls-1" d="M66.48,36.36c-.11.29-.24.61-.37.93s-.24.6-.39,1-.31.71-.48,1.08a1.51,1.51,0,0,1-.68.76,2.33,2.33,0,0,1-.84.24,2.7,2.7,0,0,1-1-.11l2.35-4.34ZM71,28.46l.07,6.29-8,.21,0-6.57Zm-5.5,1,0,4.55,4.06-.11,0-4.4Zm6.13,9.09a2.74,2.74,0,0,1-.29.46,3.18,3.18,0,0,1-.37.36,1.32,1.32,0,0,1-.52.25,1,1,0,0,1-.35,0,1.86,1.86,0,0,1-.41-.12c-.14,0-.29-.12-.44-.19l-.43-.24c-.33-.2-.67-.42-1-.68l1.11-1.73Z"/><path class="cls-1" d="M75.37,28.53a4.69,4.69,0,0,1,.43.47q.17.21.33.45a1.17,1.17,0,0,1,.19.47,1,1,0,0,1,0,.46,2.53,2.53,0,0,1-.18.44c-.09.15-.18.31-.28.46l-1.56-1.41ZM79.1,28v3.67l4-.24c0,.16,0,.42,0,.77s0,.77,0,1.23,0,1,0,1.45,0,1,0,1.46v1.23c0,.36,0,.62,0,.78a2.71,2.71,0,0,1-.09.84,1.65,1.65,0,0,1-.33.59.93.93,0,0,1-.67.29,1.08,1.08,0,0,1-.72-.17,1.75,1.75,0,0,1-.43-.43,2.14,2.14,0,0,1-.25-.64l.63-.06-.07-6L79.05,33c-.4,1.46-.76,2.68-1.08,3.67A13.81,13.81,0,0,1,77,39a2.65,2.65,0,0,1-1,1.1,1.38,1.38,0,0,1-1.16,0c.51-1.15,1-2.29,1.37-3.42a22.82,22.82,0,0,0,.92-3.42l-2.6.33,0-1.69,2.66-.15,0-3.91Zm.67,6.51.37.44c.11.15.22.3.32.46a1.44,1.44,0,0,1,.17.44,1.67,1.67,0,0,1,0,.5,1.93,1.93,0,0,1-.09.49,1.2,1.2,0,0,1-.22.4l-1.71-1.43Z"/><path class="cls-1" d="M88.91,37.05a1.48,1.48,0,0,1,0,.9.93.93,0,0,1-.25.44,3,3,0,0,1-.65.51c-.3.18-.61.36-.93.53l-1.2.6-.37-1.22.93-.47.14-4.82-1.36,0,0-1.14,2.81.12-.07,5Zm-2-8.52a2.46,2.46,0,0,1,.78.67,2.2,2.2,0,0,1,.39.78,2,2,0,0,1,0,.85,2.56,2.56,0,0,1-.32.87l-2-1.46Zm6.09,4.59,0-3.55-3.56-.21v-1h5.46l0,5.74-3.78.1,0,3.15a1.93,1.93,0,0,0,0,.5.31.31,0,0,0,.29.26,5.55,5.55,0,0,0,.69,0c.29,0,.61,0,.94,0s.65-.06,1-.11a2.8,2.8,0,0,0,.75-.19.94.94,0,0,0,.33-.23,2.2,2.2,0,0,0,.3-.37,2.11,2.11,0,0,0,.24-.44,2.47,2.47,0,0,0,.15-.43c0,.35,0,.69,0,1s0,.54,0,.83a2.2,2.2,0,0,1-.15.7,1,1,0,0,1-.44.49,3.2,3.2,0,0,1-.75.32,6.23,6.23,0,0,1-.92.19c-.34,0-.66.07-1,.08s-.64,0-.93,0l-.75,0a1.52,1.52,0,0,1-.71-.19,1.24,1.24,0,0,1-.44-.47,2.06,2.06,0,0,1-.23-.7,5.31,5.31,0,0,1,0-.91l.06-4.57Z"/><path class="cls-1" d="M100.5,36.59a2.75,2.75,0,0,1,.21.51,1.88,1.88,0,0,1,.06.49,1,1,0,0,1-.15.55,1.78,1.78,0,0,1-.44.46c-.22.19-.48.38-.75.58l-.83.57c-.28.18-.5.31-.66.4l-.63-1.3Zm3.13-4.17,0-.89h-5l0-1.2,5.1-.12,0-1.08-5.7,0v-1l7.55-.05.06,4.23,1.22-.05v1.65l-3.82,0,0,2.34,4.25,2.33a2.14,2.14,0,0,1-.46.63,1.51,1.51,0,0,1-.58.34,1.29,1.29,0,0,1-.82,0,2,2,0,0,1-.42-.21,5.88,5.88,0,0,1-.57-.39l-.68-.51-.7-.55v.86a2.11,2.11,0,0,1-.17.89,1.36,1.36,0,0,1-.41.56,1.06,1.06,0,0,1-.54.21,1.19,1.19,0,0,1-.58-.12,1.14,1.14,0,0,1-.47-.41,1.76,1.76,0,0,1-.28-.74l.64,0L101.22,34H97.61l0-1.34Zm-3.4,3.52a1.42,1.42,0,0,1-.56.51,1.19,1.19,0,0,1-.63.14,1.58,1.58,0,0,1-.65-.2,1.78,1.78,0,0,1-.56-.47l1-1.46Zm6.34-.62-.88,1a.73.73,0,0,1-.5.26,1.34,1.34,0,0,1-.53-.08,2.1,2.1,0,0,1-.58-.32l1.46-1.8Z"/><path class="cls-1" d="M110.35,33.41l.62-2-2-.25.19-1.38,3.74.39c-.11.52-.24,1.07-.37,1.64s-.24,1.05-.39,1.65-.31,1.22-.46,1.83l1.56,2.11a.72.72,0,0,1-.35.38,1.12,1.12,0,0,1-.54.11,1.42,1.42,0,0,1-.56-.15,1.09,1.09,0,0,1-.44-.38L111.2,37c-.08.25-.15.49-.23.72l-.21.59a4.14,4.14,0,0,1-.35.7,3.71,3.71,0,0,1-.38.45,1.47,1.47,0,0,1-.39.26,1.92,1.92,0,0,1-.37.11,1.44,1.44,0,0,1-.83-.13L109.88,35l-1.22-1.9.85-.81Zm6.61-.57-1.71,6a2.78,2.78,0,0,1-.29.65,1.86,1.86,0,0,1-.37.45,1.81,1.81,0,0,1-.41.29,1.54,1.54,0,0,1-.43.14,2.23,2.23,0,0,1-1,0l2.66-8Zm.78-2-2.35-.18c-.06.18-.11.34-.17.49l-.16.38a1.24,1.24,0,0,1-.59.53,1.84,1.84,0,0,1-.67.11A2.32,2.32,0,0,1,113,32l1.15-4.41,1.88.42c0,.11-.07.33-.14.65s-.16.67-.26,1.05l2.38.2.23-.65,1,.39c-.05.21-.11.42-.18.65s-.13.44-.2.65l-.22.59a4.06,4.06,0,0,1-.22.46.63.63,0,0,1-.35.34.84.84,0,0,1-.38,0,1.28,1.28,0,0,1-.44-.19Zm1.39,8.66a2.56,2.56,0,0,1-.77.22,1.83,1.83,0,0,1-.65-.07.89.89,0,0,1-.54-.49,7.56,7.56,0,0,1-.4-.81c-.11-.26-.21-.5-.29-.71s-.18-.47-.25-.68l1.18-.7Z"/><path class="cls-1" d="M123.81,37.86a1.61,1.61,0,0,1-.29.3,4.74,4.74,0,0,1-.42.3,4.9,4.9,0,0,1-.67.37,1.22,1.22,0,0,1-.78.12,1.9,1.9,0,0,1-.63-.26,2.72,2.72,0,0,1-.6-.53l2.06-2Zm2.88-6.49v2.92l3.46-.07V35l-3.45,0,0,3.48a2.48,2.48,0,0,1-.11.79,1.38,1.38,0,0,1-.33.57,1,1,0,0,1-.7.29,1.18,1.18,0,0,1-.74-.17,1.29,1.29,0,0,1-.39-.43,1.71,1.71,0,0,1-.21-.66l.64-.06-.05-3.77-3.42.06L122,28l2,.28-.11.7,5.44-.67.06,1.91-5.72.17-.63,4,1.88,0,0-3Zm4,5.94a2.32,2.32,0,0,1-.66.84,1.41,1.41,0,0,1-.52.26,1.17,1.17,0,0,1-.64,0,4.64,4.64,0,0,1-.65-.26,3.94,3.94,0,0,1-.69-.46l1.09-1.77Z"/><path class="cls-2" d="M51.47,1.32l-.13,6.35-7.59-.16.14,3.71,6.28-.46-.14,5L44,16l.14,8.35-4.47.16L39.14,1.79Z"/><path class="cls-2" d="M53.72,15,53.13,4l4.74-.31L57.65,16.2c1.08,1.85,2,2.78,2.66,2.78q1.86,0,1.86-9.82,0-2.6-.14-6l4.57.18Q66.78,18.14,65,22.42c-.85,2.11-2.18,3.16-4,3.16a6.33,6.33,0,0,1-2.1-.41Q54.18,23.48,53.72,15Z"/><path class="cls-2" d="M73,2.24l3.62,10a56.89,56.89,0,0,1-.44-7.95q0-1.37,0-2.88l4.61.18c-.18,2.52-.27,5.13-.27,7.81q0,6.47.69,13.52l-4.47.17-4.62-11c0,.51,0,1,0,1.56a75.22,75.22,0,0,0,.58,9H68.2q-.28-7.55-.29-15c0-1.86,0-3.71,0-5.57Z"/><path class="cls-2" d="M82,20.22q2.52-3,5-6.35-2.3-4.21-4.83-8.62L85.86,2c1.39,2.87,2.7,5.5,4,7.89C91.42,7.6,93,5.17,94.59,2.63l2.66,4.76Q94.69,11,92.31,14.45q2.16,3.81,4,6.47l-3.44,4.34c-1.07-2.18-2.2-4.41-3.38-6.67q-2.06,3.12-4,6.16Z"/><path class="cls-2" d="M96.76,24a2,2,0,0,1-.2-.84,1.62,1.62,0,0,1,.14-.65,1.11,1.11,0,0,1,.86-.71,1,1,0,0,1,.93.56,1.62,1.62,0,0,1,.27.88,1.77,1.77,0,0,1-.05.41,1.32,1.32,0,0,1-.76.92.86.86,0,0,1-.27.05A1.3,1.3,0,0,1,96.76,24Z"/><path class="cls-2" d="M101.74,21l1.2-5.93,2.28.08,1.08,7.09.84-8.25,2,.77-1.26,9.87-3.12.31-1-5.32-1.45,5.17L100,24.6,98.91,14.42l2.23-.15Z"/><path class="cls-2" d="M111.6,14.23a3.38,3.38,0,0,1,1-.15q2.33,0,3,3.11a16.07,16.07,0,0,1,.31,3.7l-.06,3.31-1.94.15,0-.45q-3.66-.16-3.82-2.31c0-.21,0-.36,0-.46,0-1.17.37-1.9,1.1-2.2a3,3,0,0,1,1.08-.22,3.35,3.35,0,0,1,1.48.38c0-1.11,0-1.69,0-1.76a1,1,0,0,0-1-.75c-.48,0-.94.46-1.38,1.54l-1.93-.38C109.87,15.68,110.62,14.51,111.6,14.23Zm1.24,6.2c-.52,0-.8.18-.82.53,0,.51.55.93,1.77,1.25l-.05-1.66A4.21,4.21,0,0,0,112.84,20.43Z"/><path class="cls-2" d="M118,14.34l.12,1.08a4.08,4.08,0,0,1,2.4-1.32c.58,0,1,.38,1.29,1.13a17.94,17.94,0,0,1,.64,5.64c0,.94,0,2-.09,3.11l-2,.08a31.41,31.41,0,0,0,.24-3.51A6.49,6.49,0,0,0,120.2,18c-.16-.34-.34-.5-.54-.5q-.57,0-1.41,1.74v5.1l-1.83-.06-.31-9.56Z"/><path class="cls-2" d="M129.18,22.28a4.85,4.85,0,0,1,.35,1.56,2.23,2.23,0,0,1-.66,1.38,3.73,3.73,0,0,1-3.19,1c-1.48,0-2.34-.52-2.56-1.4a3.13,3.13,0,0,1-.1-.77,1.89,1.89,0,0,1,.52-1.35,5.07,5.07,0,0,1-.23-1.54,1.89,1.89,0,0,1,.8-1.47,3.14,3.14,0,0,1-1-2.29,4,4,0,0,1,.09-.81,2.88,2.88,0,0,1,1.93-2.36,3.64,3.64,0,0,1,1.2-.22,2.4,2.4,0,0,1,1.43.44,2.58,2.58,0,0,1,.73-1.07L129.91,15a1.22,1.22,0,0,0-1,.93,3.29,3.29,0,0,1,.41,2.06,2.84,2.84,0,0,1-1,2.18,2.79,2.79,0,0,1-1.83.54,7.44,7.44,0,0,1-1-.08q-.66.26-.66.69a.76.76,0,0,0,.07.31,7.62,7.62,0,0,1,2.32-.43A1.78,1.78,0,0,1,129.18,22.28Zm-1.24,1.17a.62.62,0,0,0-.67-.56,7,7,0,0,0-1,.14c-1,.2-1.49.49-1.48.85s.37.45,1.08.45l.57,0c1-.08,1.48-.32,1.48-.74Zm-.42-6.1a1,1,0,0,0-.35-.89,2,2,0,0,0-.9-.16c-.8,0-1.21.27-1.22.87s.4,1,1.25,1.06l.31,0C127.25,18.25,127.56,18,127.52,17.35Z"/><path class="cls-3" d="M10,37.1S7.82,39,7.44,40.28s.28,1.69.61,1.19a4.68,4.68,0,0,1,.57-.76s-.23,2.27.59,1.81.37-1.35,1.38-1.8c0,0-.21,2,.65,1.93s0-1.65.73-2.83,1.11-1,1.11-1S11.24,36.68,10,37.1Z"/><path class="cls-3" d="M18.25,37.82s-1.74,2.32-1.84,3.67.64,1.58.85,1a5.11,5.11,0,0,1,.4-.86s.26,2.27,1,1.64.07-1.4,1-2.06c0,0,.23,2,1.05,1.75s-.35-1.62.1-2.92.87-1.19.87-1.19S19.35,37.15,18.25,37.82Z"/><path class="cls-1" d="M3.52.31s4.7,6.56,12.71,6.26S31.34,1.69,31.34,1.69,23.46,19.58,27.67,27.1s9.15,7,9.15,7-3.67,6.56-18.24,6.44S.27,23,.15,15.9,3.52.31,3.52.31Z"/><path class="cls-2" d="M16.23,6.57C8.84,6.85,4.27,1.28,3.61.42c.89,1.18,8.45,11.32,9.21,14.42,0,0,1.69-4.31,13.32-10.55A30.15,30.15,0,0,1,16.23,6.57Z"/><path class="cls-4" d="M5.41,23a13.06,13.06,0,0,0-.07,1.53.17.17,0,0,0,.33,0A13.06,13.06,0,0,1,5.74,23c0-.21-.31-.21-.33,0Z"/><path class="cls-4" d="M9.09,24.44a4.19,4.19,0,0,1,.32.83.17.17,0,0,0,.32-.09,5.33,5.33,0,0,0-.35-.91c-.09-.19-.38,0-.29.17Z"/><path class="cls-4" d="M8.61,27.69v.13a.17.17,0,1,0,.33,0v-.13a.17.17,0,0,0-.33,0Z"/><path class="cls-4" d="M8.15,31.37c.13.07.21.19.34.26s.35-.18.17-.29-.21-.19-.34-.26-.35.18-.17.29Z"/><path class="cls-4" d="M5.88,27.73a2.9,2.9,0,0,0,.64.94c.15.16.39-.08.24-.23a2.58,2.58,0,0,1-.56-.79c-.08-.2-.4-.11-.32.08Z"/><path class="cls-4" d="M11.59,32.11a2.67,2.67,0,0,1,.7.39c.17.12.34-.17.16-.29a2.74,2.74,0,0,0-.77-.42.17.17,0,0,0-.09.32Z"/><path class="cls-4" d="M11.7,30.06c.11,0,.2,0,.26.11s.39,0,.29-.17a.62.62,0,0,0-.55-.28.17.17,0,0,0,0,.34Z"/><path class="cls-4" d="M9.79,34.67c.3.25.58.52.86.8a.17.17,0,0,0,.24-.24,10.87,10.87,0,0,0-.87-.79c-.16-.14-.4.1-.23.23Z"/><path class="cls-4" d="M14.16,36.9a2.5,2.5,0,0,0,.79.73c.19.1.36-.19.17-.29a2.06,2.06,0,0,1-.67-.61c-.13-.16-.42,0-.29.17Z"/><path class="cls-4" d="M3.14,25.49a2,2,0,0,0,.36,1.15c.12.17.41,0,.28-.17a1.78,1.78,0,0,1-.31-1,.17.17,0,0,0-.33,0Z"/><path class="cls-4" d="M2.48,20.69a10.34,10.34,0,0,0-.07,1.47.17.17,0,0,0,.33,0,10.34,10.34,0,0,1,.07-1.47c0-.21-.31-.21-.33,0Z"/><path class="cls-4" d="M12.23,38a2,2,0,0,0,.89.67c.2.09.29-.24.09-.32a1.63,1.63,0,0,1-.7-.52c-.13-.17-.42,0-.28.17Z"/><path class="cls-4" d="M14.72,35.07a2.71,2.71,0,0,1,.7,1c.1.19.39,0,.29-.17a3,3,0,0,0-.76-1c-.16-.13-.4.1-.23.24Z"/><path class="cls-4" d="M18,38.2a.87.87,0,0,0,.59.32c.21,0,.21-.33,0-.34a.52.52,0,0,1-.35-.21c-.15-.16-.39.08-.24.23Z"/><path class="cls-4" d="M21,38.52h.27a.17.17,0,0,0,0-.34H21a.17.17,0,0,0,0,.34Z"/><path class="cls-4" d="M16.79,35.51a.45.45,0,0,1,.23.26c.1.19.39,0,.29-.17a.75.75,0,0,0-.43-.41c-.2-.07-.29.25-.09.32Z"/><path class="cls-4" d="M14.85,31.87c.19.19.35.41.53.6s.39-.08.24-.23-.35-.41-.53-.6-.39.08-.24.23Z"/><path class="cls-4" d="M5.86,32l.79.8a.17.17,0,0,0,.24-.24l-.8-.8a.17.17,0,0,0-.23.24Z"/><path class="cls-4" d="M13.34,27.56a1.46,1.46,0,0,0,.22.81c.11.18.4,0,.29-.16a1.16,1.16,0,0,1-.18-.65.17.17,0,1,0-.33,0Z"/><path class="cls-4" d="M11.94,24.36v1.33a.17.17,0,0,0,.33,0V24.36a.16.16,0,0,0-.33,0Z"/><path class="cls-5" d="M27.67,27.1c-1.14-2-1.39-4.83-1.16-7.83h0S20,18.1,17.38,22s2.12,20.1,19.44,12.11C36.82,34.09,31.88,34.63,27.67,27.1Z"/><path class="cls-2" d="M19.92,23.35a.91.91,0,0,1-.91.91h0a.91.91,0,0,1-.91-.91h0a.92.92,0,0,1,.91-.92h0a.92.92,0,0,1,.91.92Z"/><path class="cls-2" d="M22.52,22.76a.91.91,0,0,1-.91.91h0a.91.91,0,0,1-.91-.91h0a.92.92,0,0,1,.91-.92h0a.91.91,0,0,1,.91.92Z"/><path class="cls-2" d="M25.49,22.65a.91.91,0,0,1-.91.91h0a.91.91,0,0,1-.91-.91h0a.91.91,0,0,1,.91-.91h0a.91.91,0,0,1,.91.91Z"/><path class="cls-2" d="M25.85,34.21a.91.91,0,0,1-.91.91h0a.91.91,0,0,1-.91-.91h0a.91.91,0,0,1,.91-.91h0a.91.91,0,0,1,.91.91Z"/><path class="cls-2" d="M28.46,33.62a.92.92,0,0,1-.92.91h0a.91.91,0,0,1-.91-.91h0a.91.91,0,0,1,.91-.91h0a.91.91,0,0,1,.92.91Z"/><path class="cls-2" d="M31.42,33.51a.92.92,0,0,1-.91.92h0a.91.91,0,0,1-.91-.92h0a.91.91,0,0,1,.91-.91h0a.91.91,0,0,1,.91.91Z"/><path class="cls-2" d="M17.77,26.49l2.57,2-.19-2.85,2.57,2.09L22.16,25l1.71,2.33-.2-2.42,1.82,1.79.12-2.23v-.64S19.63,24.69,17.77,26.49Z"/><path class="cls-2" d="M20.44,31.83a5.41,5.41,0,0,1,.4-1.08c.11-.27.22-.53.34-.8s-.22-.12-.05,0l1.93,1.2a.17.17,0,0,0,.25-.14V29.13c0-.56,0-.19-.22-.31l2.23,1.05a.17.17,0,0,0,.25-.15V28c0-.17-.3,0,0,.09l2.34,1c.2.08.28-.24.09-.32l-2.58-1.05a.17.17,0,0,0-.21.16v1.74c0,.25.32.05.14,0l-2.15-1a.18.18,0,0,0-.26.15V31c0-.29.41,0,0-.27l-.78-.48-1-.64a.17.17,0,0,0-.23.06,10.2,10.2,0,0,0-.83,2.1c0,.21.28.3.32.09Z"/><polygon class="cls-2" points="21.61 33.62 21.9 32.24 22.88 33.06 21.61 33.62"/><polygon class="cls-2" points="23.23 32.93 23.51 31.55 24.5 32.37 23.23 32.93"/><polygon class="cls-2" points="24.84 32.16 25.13 30.78 26.11 31.6 24.84 32.16"/><polygon class="cls-2" points="26.46 31.47 26.74 30.09 27.73 30.91 26.46 31.47"/><polygon class="cls-2" points="28.08 30.78 28.36 29.41 29.34 30.22 28.08 30.78"/><path class="cls-6" d="M3.8,9c-.07.05-2.46,2-2.43,4.67S2,18.38,5.29,18.08s4.78-2.52,4.35-4.55S7.46,8.68,6.26,8.41A3,3,0,0,0,3.8,9Z"/><path class="cls-7" d="M4.74,12.28a1.88,1.88,0,0,0-.68,1.31c0,.74.18,1.33,1.1,1.25s1.33-.71,1.21-1.28-.61-1.36-.94-1.43A.8.8,0,0,0,4.74,12.28Z"/><path class="cls-6" d="M19.32,9.52c-.07.06-2.46,2-2.43,4.67s.65,4.76,3.92,4.47,4.78-2.52,4.35-4.56S23,9.25,21.78,9A3,3,0,0,0,19.32,9.52Z"/><path class="cls-7" d="M20.26,12.85a1.9,1.9,0,0,0-.68,1.31c0,.74.18,1.33,1.09,1.25s1.34-.7,1.22-1.27-.61-1.36-.94-1.44A.87.87,0,0,0,20.26,12.85Z"/><polygon class="cls-8" points="12.1 15.23 13.33 15.42 12.72 16.86 12.1 15.23"/></g></g></svg>