<svg xmlns="http://www.w3.org/2000/svg" viewBox="0 0 130.33 43.55"><defs><style>.cls-1{fill:#1d6c70;}.cls-1,.cls-2,.cls-5,.cls-9{stroke:#4aacc2;stroke-miterlimit:10;}.cls-1,.cls-2,.cls-5{stroke-width:0.3px;}.cls-2,.cls-9{fill:#4aacc2;}.cls-3{fill:#ffb876;}.cls-4{fill:#fff;}.cls-5{fill:#3b8b93;}.cls-6{fill:#fff9f3;}.cls-7{fill:#534039;}.cls-8{fill:#161416;}.cls-9{stroke-width:0.05px;}</style></defs><title>资源 38</title><g id="图层_2" data-name="图层 2"><g id="图层_1-2" data-name="图层 1"><path class="cls-1" d="M10,37.1S7.82,39,7.44,40.28s.28,1.69.61,1.19a4.68,4.68,0,0,1,.57-.76s-.23,2.27.59,1.81.37-1.35,1.38-1.8c0,0-.21,2,.65,1.93s0-1.65.73-2.83,1.11-1,1.11-1S11.24,36.68,10,37.1Z"/><path class="cls-1" d="M18.25,37.82s-1.74,2.32-1.84,3.67.64,1.58.85,1a5.11,5.11,0,0,1,.4-.86s.26,2.27,1,1.64.07-1.4,1-2.06c0,0,.23,2,1.05,1.75s-.35-1.62.1-2.92.87-1.19.87-1.19S19.35,37.15,18.25,37.82Z"/><path class="cls-2" d="M3.52.31s4.7,6.56,12.71,6.26S31.34,1.69,31.34,1.69,23.46,19.58,27.67,27.1s9.15,7,9.15,7-3.67,6.56-18.24,6.44S.27,23,.15,15.9,3.52.31,3.52.31Z"/><path class="cls-3" d="M16.23,6.57C8.84,6.85,4.27,1.28,3.61.42c.89,1.18,8.45,11.32,9.21,14.42,0,0,1.69-4.31,13.32-10.55A30.15,30.15,0,0,1,16.23,6.57Z"/><path class="cls-4" d="M5.41,23a13.06,13.06,0,0,0-.07,1.53.17.17,0,0,0,.33,0A13.06,13.06,0,0,1,5.74,23c0-.21-.31-.21-.33,0Z"/><path class="cls-4" d="M9.09,24.44a4.19,4.19,0,0,1,.32.83.17.17,0,0,0,.32-.09,5.33,5.33,0,0,0-.35-.91c-.09-.19-.38,0-.29.17Z"/><path class="cls-4" d="M8.61,27.69v.13a.17.17,0,1,0,.33,0v-.13a.17.17,0,0,0-.33,0Z"/><path class="cls-4" d="M8.15,31.37c.13.07.21.19.34.26s.35-.18.17-.29-.21-.19-.34-.26-.35.18-.17.29Z"/><path class="cls-4" d="M5.88,27.73a2.9,2.9,0,0,0,.64.94c.15.16.39-.08.24-.23a2.58,2.58,0,0,1-.56-.79c-.08-.2-.4-.11-.32.08Z"/><path class="cls-4" d="M11.59,32.11a2.67,2.67,0,0,1,.7.39c.17.12.34-.17.16-.29a2.74,2.74,0,0,0-.77-.42.17.17,0,0,0-.09.32Z"/><path class="cls-4" d="M11.7,30.06c.11,0,.2,0,.26.11s.39,0,.29-.17a.62.62,0,0,0-.55-.28.17.17,0,0,0,0,.34Z"/><path class="cls-4" d="M9.79,34.67c.3.25.58.52.86.8a.17.17,0,0,0,.24-.24,10.87,10.87,0,0,0-.87-.79c-.16-.14-.4.1-.23.23Z"/><path class="cls-4" d="M14.16,36.9a2.5,2.5,0,0,0,.79.73c.19.1.36-.19.17-.29a2.06,2.06,0,0,1-.67-.61c-.13-.16-.42,0-.29.17Z"/><path class="cls-4" d="M3.14,25.49a2,2,0,0,0,.36,1.15c.12.17.41,0,.28-.17a1.78,1.78,0,0,1-.31-1,.17.17,0,0,0-.33,0Z"/><path class="cls-4" d="M2.48,20.69a10.34,10.34,0,0,0-.07,1.47.17.17,0,0,0,.33,0,10.34,10.34,0,0,1,.07-1.47c0-.21-.31-.21-.33,0Z"/><path class="cls-4" d="M12.23,38a2,2,0,0,0,.89.67c.2.09.29-.24.09-.32a1.63,1.63,0,0,1-.7-.52c-.13-.17-.42,0-.28.17Z"/><path class="cls-4" d="M14.72,35.07a2.71,2.71,0,0,1,.7,1c.1.19.39,0,.29-.17a3,3,0,0,0-.76-1c-.16-.13-.4.1-.23.24Z"/><path class="cls-4" d="M18,38.2a.87.87,0,0,0,.59.32c.21,0,.21-.33,0-.34a.52.52,0,0,1-.35-.21c-.15-.16-.39.08-.24.23Z"/><path class="cls-4" d="M21,38.52h.27a.17.17,0,0,0,0-.34H21a.17.17,0,0,0,0,.34Z"/><path class="cls-4" d="M16.79,35.51a.45.45,0,0,1,.23.26c.1.19.39,0,.29-.17a.75.75,0,0,0-.43-.41c-.2-.07-.29.25-.09.32Z"/><path class="cls-4" d="M14.85,31.87c.19.19.35.41.53.6s.39-.08.24-.23-.35-.41-.53-.6-.39.08-.24.23Z"/><path class="cls-4" d="M5.86,32l.79.8a.17.17,0,0,0,.24-.24l-.8-.8a.17.17,0,0,0-.23.24Z"/><path class="cls-4" d="M13.34,27.56a1.46,1.46,0,0,0,.22.81c.11.18.4,0,.29-.16a1.16,1.16,0,0,1-.18-.65.17.17,0,1,0-.33,0Z"/><path class="cls-4" d="M11.94,24.36v1.33a.17.17,0,0,0,.33,0V24.36a.16.16,0,0,0-.33,0Z"/><path class="cls-5" d="M27.67,27.1c-1.14-2-1.39-4.83-1.16-7.83h0S20,18.1,17.38,22s2.12,20.1,19.44,12.11C36.82,34.09,31.88,34.63,27.67,27.1Z"/><path class="cls-3" d="M19.92,23.35a.91.91,0,0,1-.91.91h0a.91.91,0,0,1-.91-.91h0a.92.92,0,0,1,.91-.92h0a.92.92,0,0,1,.91.92Z"/><path class="cls-3" d="M22.52,22.76a.91.91,0,0,1-.91.91h0a.91.91,0,0,1-.91-.91h0a.92.92,0,0,1,.91-.92h0a.91.91,0,0,1,.91.92Z"/><path class="cls-3" d="M25.49,22.65a.91.91,0,0,1-.91.91h0a.91.91,0,0,1-.91-.91h0a.91.91,0,0,1,.91-.91h0a.91.91,0,0,1,.91.91Z"/><path class="cls-3" d="M25.85,34.21a.91.91,0,0,1-.91.91h0a.91.91,0,0,1-.91-.91h0a.91.91,0,0,1,.91-.91h0a.91.91,0,0,1,.91.91Z"/><path class="cls-3" d="M28.46,33.62a.92.92,0,0,1-.92.91h0a.91.91,0,0,1-.91-.91h0a.91.91,0,0,1,.91-.91h0a.91.91,0,0,1,.92.91Z"/><path class="cls-3" d="M31.42,33.51a.92.92,0,0,1-.91.92h0a.91.91,0,0,1-.91-.92h0a.91.91,0,0,1,.91-.91h0a.91.91,0,0,1,.91.91Z"/><path class="cls-3" d="M17.77,26.49l2.57,2-.19-2.85,2.57,2.09L22.16,25l1.71,2.33-.2-2.42,1.82,1.79.12-2.23v-.64S19.63,24.69,17.77,26.49Z"/><path class="cls-3" d="M20.44,31.83a5.41,5.41,0,0,1,.4-1.08c.11-.27.22-.53.34-.8s-.22-.12-.05,0l1.93,1.2a.17.17,0,0,0,.25-.14V29.13c0-.56,0-.19-.22-.31l2.23,1.05a.17.17,0,0,0,.25-.15V28c0-.17-.3,0,0,.09l2.34,1c.2.08.28-.24.09-.32l-2.58-1.05a.17.17,0,0,0-.21.16v1.74c0,.25.32.05.14,0l-2.15-1a.18.18,0,0,0-.26.15V31c0-.29.41,0,0-.27l-.78-.48-1-.64a.17.17,0,0,0-.23.06,10.2,10.2,0,0,0-.83,2.1c0,.21.28.3.32.09Z"/><polygon class="cls-3" points="21.61 33.62 21.9 32.24 22.88 33.06 21.61 33.62"/><polygon class="cls-3" points="23.23 32.93 23.51 31.55 24.5 32.37 23.23 32.93"/><polygon class="cls-3" points="24.84 32.16 25.13 30.78 26.11 31.6 24.84 32.16"/><polygon class="cls-3" points="26.46 31.47 26.74 30.09 27.73 30.91 26.46 31.47"/><polygon class="cls-3" points="28.08 30.78 28.36 29.41 29.34 30.22 28.08 30.78"/><path class="cls-6" d="M3.8,9c-.07.05-2.46,2-2.43,4.67S2,18.38,5.29,18.08s4.78-2.52,4.35-4.55S7.46,8.68,6.26,8.41A3,3,0,0,0,3.8,9Z"/><path class="cls-7" d="M4.74,12.28a1.88,1.88,0,0,0-.68,1.31c0,.74.18,1.33,1.1,1.25s1.33-.71,1.21-1.28-.61-1.36-.94-1.43A.8.8,0,0,0,4.74,12.28Z"/><path class="cls-6" d="M19.32,9.52c-.07.06-2.46,2-2.43,4.67s.65,4.76,3.92,4.47,4.78-2.52,4.35-4.56S23,9.25,21.78,9A3,3,0,0,0,19.32,9.52Z"/><path class="cls-7" d="M20.26,12.85a1.9,1.9,0,0,0-.68,1.31c0,.74.18,1.33,1.09,1.25s1.34-.7,1.22-1.27-.61-1.36-.94-1.44A.87.87,0,0,0,20.26,12.85Z"/><polygon class="cls-8" points="12.1 15.23 13.33 15.42 12.72 16.86 12.1 15.23"/><path class="cls-3" d="M49.18,3.7,49,9.31l-7.66-.14.14,3.28L47.86,12l-.14,4.37-6.06.28.13,7.38-4.51.14-.55-20.1Z"/><path class="cls-3" d="M51,15.32l-.6-9.71,4.79-.27L55,16.41c1.09,1.65,2,2.47,2.68,2.47q1.88,0,1.88-8.69c0-1.52,0-3.28-.14-5.28L64,5.07q.17,13-1.61,16.85a4.23,4.23,0,0,1-4,2.78,7.14,7.14,0,0,1-2.12-.36Q51.47,22.84,51,15.32Z"/><path class="cls-3" d="M70.42,5.5l3.66,8.86a43.06,43.06,0,0,1-.45-7c0-.81,0-1.66,0-2.55L78.31,5Q78,8.3,78,11.85a106.47,106.47,0,0,0,.7,12L74.23,24l-4.67-9.72c0,.45,0,.92,0,1.38a58.72,58.72,0,0,0,.58,7.91H65.62q-.3-6.66-.29-13.24,0-2.46,0-4.92Z"/><path class="cls-3" d="M79.37,20.23q3-2.61,5.95-5.55-2.91-3.54-6.12-7.23L83.61,4.6q2.65,3.62,5,6.63,2.82-3,5.61-6.34l3.38,4c-2,2.07-4,4.12-5.83,6.15a74,74,0,0,0,5.08,5.42l-4.07,3.79c-1.36-1.83-2.8-3.7-4.3-5.6-1.62,1.81-3.18,3.59-4.69,5.36Z"/><path class="cls-3" d="M97.79,23.45a2,2,0,0,1-.33-1,1.5,1.5,0,0,1,.23-.78A1.68,1.68,0,0,1,99,20.78a1.62,1.62,0,0,1,1.44.68,1.65,1.65,0,0,1,.44,1.08,1.37,1.37,0,0,1-.09.49,1.73,1.73,0,0,1-1.18,1.11,1.2,1.2,0,0,1-.42.07A2.06,2.06,0,0,1,97.79,23.45Z"/><path class="cls-3" d="M106.12,12.08q3.21,0,4.23,2.37a3,3,0,0,1,.27,1.19q0,2.28-4.44,3.55L106,23.78l-2.49-.08.23-11.35A11.7,11.7,0,0,1,106.12,12.08Zm2,3.28c0-.38-.59-.69-1.68-.94l-.07,2.19C107.53,16.15,108.12,15.73,108.09,15.36Z"/><path class="cls-3" d="M111.8,11.36q3.78,0,5.56,2.12a2.64,2.64,0,0,1,.69,1.74q0,1.72-2.39,3.8l4.17,4.81h-3.51l-2.34-3v3.07l-3.19-.18V11.38Zm4,4c0-.73-.6-1.18-1.81-1.37v3.12C115.19,16.54,115.79,16,115.79,15.37Z"/><path class="cls-3" d="M119.19,18.8a8.51,8.51,0,0,1,1.21-4.33,4.12,4.12,0,0,1,3.66-2.2,4.44,4.44,0,0,1,3.48,1.22,7.94,7.94,0,0,1,1.37,3.58,10.09,10.09,0,0,1,.2,1.91,5.34,5.34,0,0,1-.94,3.22A4.57,4.57,0,0,1,124,24q-2.77-.09-3.81-1.41A5.67,5.67,0,0,1,119.19,18.8Zm6.34-2.65a2.17,2.17,0,0,0-1.43-.72,1.88,1.88,0,0,0-1.51,1.09,3.53,3.53,0,0,0-.63,1.92,3.39,3.39,0,0,0,.57,1.8,1.76,1.76,0,0,0,1.46,1,2.24,2.24,0,0,0,1.69-1.05,3.17,3.17,0,0,0,.77-1.9A3.45,3.45,0,0,0,125.53,16.15Z"/><path class="cls-9" d="M39.64,36l-.76,3.44-2.15-.36,2.7-10h2.12l2.87,9.57-2.36.63L41.34,36ZM41,34.32l-.48-2.12L40,34.36Z"/><path class="cls-9" d="M46.1,32.05,46,29.69c2.72-.32,5.22-.57,7.52-.75l0,2.3-2.53.13.11,8.2-1.94-.27L49,31.52Z"/><path class="cls-9" d="M56.36,28.8l-.29,10.7-2-.32c.1-1.72.15-3.44.15-5.14s0-3.4-.15-5.08Z"/><path class="cls-9" d="M59.18,30.17l1.59,4.57a26.48,26.48,0,0,1-.19-3.62c0-.41,0-.85,0-1.31l2,.08c-.08,1.15-.12,2.34-.12,3.56q0,2.92.3,6.14l-1.95.08-2-5v.71a35.58,35.58,0,0,0,.25,4.07h-2C57,37.17,57,34.89,57,32.64c0-.85,0-1.69,0-2.54Z"/><path class="cls-9" d="M65,29.08l1,3.66,1.17-3.45,2,.36-2.36,5.62-.22,3.94-2-.28.52-3.73-2.26-5.54Z"/><path class="cls-9" d="M71.13,32.63,71,30.27c2.87-.32,5.51-.57,7.94-.75l0,2.3L76.22,32l.12,8.19-2-.27-.13-7.78Z"/><path class="cls-9" d="M85,29.41v2.84l-3.6-.07v1.47h3.06l-.06,2.25-3-.07v1.41h3.3L84.61,40l-5.4-.08.2-10.57Z"/><path class="cls-9" d="M90.41,34.08c-.12-1-.6-1.54-1.44-1.46s-1.29.7-1.37,1.89c0,.15,0,.27,0,.37a2.58,2.58,0,0,0,1,2.23,1.11,1.11,0,0,0,.66.26c.43,0,.81-.37,1.14-1.12l2.19.17q-1,3.48-2.77,3.41a6.15,6.15,0,0,1-2.33-.36A3.05,3.05,0,0,1,86,37.58a12.22,12.22,0,0,1-.43-2.51c0-.33,0-.62,0-.88a5.37,5.37,0,0,1,.9-3.23,3.12,3.12,0,0,1,2.69-1.33,4.09,4.09,0,0,1,.71.05Q92,30,92.47,33.85Z"/><path class="cls-9" d="M95.55,29.71v4h1.62L97.25,30l2.19.23-.28,9.68H97l.08-4h-1.5l0,4H93.37l-.25-10.35Z"/><path class="cls-9" d="M102.86,40.59l.06-11.25a13.2,13.2,0,0,1,2.81-.25c1.32.06,2.13.46,2.44,1.2a2.56,2.56,0,0,1,.2,1.08A4.1,4.1,0,0,1,106.94,34a3.18,3.18,0,0,1,2.11,2.86C109.06,38.08,107,39.32,102.86,40.59Zm1.73-9.19v1.52c1.07-.49,1.59-.92,1.57-1.29,0-.21-.2-.33-.56-.34A4.19,4.19,0,0,0,104.59,31.4Zm.19,4.41.1,1.84c1.16-.42,1.73-.82,1.73-1.2S106,35.86,104.78,35.81Z"/><path class="cls-9" d="M111.64,29.64c-.1,1.66-.16,3.17-.16,4.52s.06,2.53.16,3.56l3-.42-.07,2.6-5,.14-.31-10.55Z"/><path class="cls-9" d="M114.67,35.41a8.44,8.44,0,0,1,1-3.91,3.3,3.3,0,0,1,3-2,3.38,3.38,0,0,1,2.81,1.09,7.65,7.65,0,0,1,1.11,3.24,9.58,9.58,0,0,1,.16,1.72,5.21,5.21,0,0,1-.76,2.91,3.54,3.54,0,0,1-3.35,1.62,3.67,3.67,0,0,1-3.08-1.27A5.61,5.61,0,0,1,114.67,35.41ZM119.8,33a1.69,1.69,0,0,0-1.16-.66c-.44,0-.85.33-1.22,1a3.46,3.46,0,0,0-.51,1.73,3.39,3.39,0,0,0,.46,1.63c.34.62.74.93,1.18.93s.92-.32,1.37-1a3.07,3.07,0,0,0,.62-1.71A3.31,3.31,0,0,0,119.8,33Z"/><path class="cls-9" d="M127.88,33c-.25-1-.68-1.46-1.28-1.46a1.33,1.33,0,0,0-.43.07c-.84.26-1.3,1.15-1.39,2.67v.38a2.57,2.57,0,0,0,1.29,2.58,1.54,1.54,0,0,0,.71.19c.57,0,1-.44,1.3-1.31l-1.61-.21.4-1.6,3.43.36c-.17,2.89-.87,4.47-2.08,4.74a5.26,5.26,0,0,1-1.12.12,5.48,5.48,0,0,1-2.48-.62c-1.19-.61-1.84-1.88-2-3.83,0-.19,0-.41,0-.65a6.31,6.31,0,0,1,.93-3.62,3.43,3.43,0,0,1,3-1.51,6.3,6.3,0,0,1,.75.05c1.52.22,2.35,1.2,2.5,2.93Z"/></g></g></svg>