<?xml version="1.0" encoding="utf-8"?>
<!-- Generator: Adobe Illustrator 22.1.0, SVG Export Plug-In . SVG Version: 6.00 Build 0)  -->
<svg version="1.1" id="图层_1" xmlns="http://www.w3.org/2000/svg" xmlns:xlink="http://www.w3.org/1999/xlink" x="0px" y="0px"
	 viewBox="0 0 200 200" style="enable-background:new 0 0 200 200;" xml:space="preserve">
<style type="text/css">
	.st0{fill:#FFB876;}
</style>
<path class="st0" d="M134.4,81.3c-5.2,0-9.4-4.2-9.4-9.4c0-5.2,4.2-9.4,9.4-9.4h0c5.2,0,9.4,4.2,9.4,9.4
	C143.8,77.1,139.6,81.3,134.4,81.3 M103.1,81.3c-5.2,0-9.4-4.2-9.4-9.4c0-5.2,4.2-9.4,9.4-9.4h0c5.2,0,9.4,4.2,9.4,9.4
	C112.5,77.1,108.3,81.3,103.1,81.3 M174,31.3L174,31.3c-1.7-3.7-5.3-6.3-9.4-6.3H72.9c-4.2,0-7.7,2.6-9.4,6.3c-0.7,1.4-1,3-1,4.5
	v26.7H31.3h10.4c-5.7,0-10.4,4.8-10.4,10.8V147c0,6,4.7,10.8,10.4,10.8h11.9c0.3,0,0.7,0.2,1.1,0.4l0.1,9c0,0.5,0.1,1.1,0.3,1.6
	c0.2,0.8,0.5,1.5,1,2.2c2,2.6,4.9,4.1,7.9,4.1h0c2.9,0,5.6-1.3,7.6-3.6l2.8-2.6l8.8-8.3c0.4-0.4,0.9-1.1,1.2-1.6
	c0.5-0.5,1.1-0.9,1.8-1h47.3c3,0,5.7-1.3,7.6-3.4l-0.1-0.1h0.1l-5.7-5.3l-3.8-3.7h-0.1l-15.6-14.7H75C52.5,130.4,52,112,52,112V69.4
	c0-0.2,0.1-0.4,0.1-0.6c0-0.2-0.1-0.4-0.1-0.6v-0.1h0c-0.3-3.1-3-5.5-6.1-5.6h16.7v47c0,1,0.2,2,0.5,3c1.3,4.5,5.2,7.8,9.9,7.8h47.3
	c0.7,0.1,1.3,0.5,1.8,1c0.3,0.6,0.7,1.1,1.2,1.6l11.5,11c2,2.3,4.7,3.6,7.6,3.6c0.5,0,1-0.1,1.5-0.2c2.6-0.4,4.9-1.8,6.5-3.9
	c0.8-1.1,1.3-2.4,1.3-3.8l0-9c0.3-0.2,0.7-0.4,1-0.4h11.9c4.7,0,8.7-3.3,10-7.8c0.3-1,0.5-2,0.5-3V35.8
	C175,34.2,174.6,32.6,174,31.3"/>
</svg>
