<?xml version="1.0" standalone="no"?><!DOCTYPE svg PUBLIC "-//W3C//DTD SVG 1.1//EN" "http://www.w3.org/Graphics/SVG/1.1/DTD/svg11.dtd"><svg t="1569334631449" class="icon" viewBox="0 0 1024 1024" version="1.1" xmlns="http://www.w3.org/2000/svg" p-id="1676" xmlns:xlink="http://www.w3.org/1999/xlink" width="200" height="200"><defs><style type="text/css"></style></defs><path d="M672 320a160 160 0 1 0-160 160 160 160 0 0 0 160-160z m64 0a224 224 0 1 1-224-224 224 224 0 0 1 224 224z" p-id="1677"></path><path d="M224 832a32 32 0 0 1-64 0 352 352 0 0 1 704 0 32 32 0 0 1-64 0 288 288 0 0 0-576 0z" p-id="1678"></path></svg>