<svg xmlns="http://www.w3.org/2000/svg" viewBox="0 0 164 164"><defs><style>.cls-1{fill:#ff5959;}.cls-2{fill:#fff;}</style></defs><title>资源 1</title><g id="图层_2" data-name="图层 2"><g id="图层_1-2" data-name="图层 1"><circle class="cls-1" cx="82" cy="82" r="82"/><circle class="cls-2" cx="82" cy="82" r="73"/><circle class="cls-1" cx="82" cy="82" r="66.5"/><path class="cls-2" d="M79.67,88.32h3.18a6.31,6.31,0,0,1,6.32,6.31h0v21.05A6.32,6.32,0,0,1,82.85,122H75.73a6.32,6.32,0,0,1-6.32-6.32,6.42,6.42,0,0,1,.11-1.16l4-21a6.3,6.3,0,0,1,6.2-5.15Zm-29-25.27h2.75a6.31,6.31,0,0,1,6.31,6.32h0v46.31A6.31,6.31,0,0,1,53.38,122H45.67a6.31,6.31,0,0,1-6.31-6.32c0-.22,0-.45,0-.67l5-46.32A6.33,6.33,0,0,1,50.63,63.05Zm59.11-21h2.59a6.32,6.32,0,0,1,6.31,6.32v67.36a6.32,6.32,0,0,1-6.31,6.32h-7.9a6.32,6.32,0,0,1-6.32-6.32c0-.16,0-.33,0-.49l5.32-67.37A6.31,6.31,0,0,1,109.74,42Z"/></g></g></svg>