<svg xmlns="http://www.w3.org/2000/svg" viewBox="0 0 164 164"><defs><style>.cls-1{fill:#69c66d;}.cls-2{fill:#fff;}</style></defs><title>资源 2</title><g id="图层_2" data-name="图层 2"><g id="图层_1-2" data-name="图层 1"><circle class="cls-1" cx="82" cy="82" r="82"/><circle class="cls-2" cx="82" cy="82" r="73"/><circle class="cls-1" cx="82" cy="82" r="66.5"/><path class="cls-2" d="M48.58,79.24l-4-8a5.45,5.45,0,0,1,.17-5.21l4.48-7.64a5.68,5.68,0,0,1,4.5-2.75l9-.57a7.5,7.5,0,0,0,5.74-3.26l5-7.39A5.63,5.63,0,0,1,78.18,42h9a5.62,5.62,0,0,1,4.67,2.46l5,7.39a7.53,7.53,0,0,0,5.75,3.26l9,.57a5.65,5.65,0,0,1,4.5,2.75l4.48,7.64a5.45,5.45,0,0,1,.18,5.21l-4,8a7.26,7.26,0,0,0,0,6.52l4,8a5.45,5.45,0,0,1-.18,5.21l-4.48,7.64a5.66,5.66,0,0,1-4.5,2.75l-9,.57a7.53,7.53,0,0,0-5.75,3.26l-5,7.39A5.63,5.63,0,0,1,87.14,123h-9a5.65,5.65,0,0,1-4.67-2.46l-5-7.39a7.53,7.53,0,0,0-5.75-3.26l-9-.57a5.64,5.64,0,0,1-4.5-2.75l-4.48-7.64a5.45,5.45,0,0,1-.17-5.21l4-8a7.26,7.26,0,0,0,0-6.52ZM82.66,99.07A16.57,16.57,0,1,0,66.09,82.5,16.57,16.57,0,0,0,82.66,99.07Z"/></g></g></svg>