<svg xmlns="http://www.w3.org/2000/svg" viewBox="0 0 164 164"><defs><style>.cls-1{fill:#f3d14b;}.cls-2{fill:#fff;}</style></defs><title>资源 3</title><g id="图层_2" data-name="图层 2"><g id="图层_1-2" data-name="图层 1"><circle class="cls-1" cx="82" cy="82" r="82"/><circle class="cls-2" cx="82" cy="82" r="73"/><circle class="cls-1" cx="82" cy="82" r="66.5"/><path class="cls-2" d="M82,123.82a41.5,41.5,0,1,1,41.5-41.5A41.5,41.5,0,0,1,82,123.82Zm0-58.48a5.66,5.66,0,1,0-5.66-5.66A5.65,5.65,0,0,0,82,65.34ZM81.86,71a7.55,7.55,0,0,0-7.55,7.55c0,.27,0,.54,0,.8l2.92,27a4.76,4.76,0,0,0,9.46,0l2.92-27A7.55,7.55,0,0,0,83,71a7.32,7.32,0,0,0-.81,0Z"/></g></g></svg>