<svg xmlns="http://www.w3.org/2000/svg" viewBox="0 0 164 164"><defs><style>.cls-1{fill:#6abec4;}.cls-2{fill:#fff;}</style></defs><title>资源 4</title><g id="图层_2" data-name="图层 2"><g id="图层_1-2" data-name="图层 1"><circle class="cls-1" cx="82" cy="82" r="82"/><circle class="cls-2" cx="82" cy="82" r="73"/><circle class="cls-1" cx="82" cy="82" r="66.5"/><path class="cls-2" d="M92.6,95.16c13,1.17,20,4,20,9a5.73,5.73,0,1,0,11.45,0q0-26.43-30.8-36.49a142.07,142.07,0,0,0-15.72-3.64,3.87,3.87,0,0,1-3.12-3.82V50.05A2.1,2.1,0,0,0,72.28,48a2.06,2.06,0,0,0-1.39.54L42.1,74.27a6.33,6.33,0,0,0-.57,8.84,6.13,6.13,0,0,0,.57.57l28.79,25.79a2.08,2.08,0,0,0,3.47-1.57V98.44a3.85,3.85,0,0,1,3.82-3.88h.08q10,.21,14.34.6Z"/></g></g></svg>