<?xml version="1.0" encoding="utf-8"?>
<!-- Generator: Adobe Illustrator 22.1.0, SVG Export Plug-In . SVG Version: 6.00 Build 0)  -->
<svg version="1.1" id="图层_1" xmlns="http://www.w3.org/2000/svg" xmlns:xlink="http://www.w3.org/1999/xlink" x="0px" y="0px"
	 viewBox="0 0 200 200" style="enable-background:new 0 0 200 200;" xml:space="preserve">
<style type="text/css">
	.st0{fill:#64CDE5;}
</style>
<path class="st0" d="M141.7,179.2c-20.7,0-37.5-16.8-37.5-37.5v-29.2c0-4.6,3.7-8.3,8.3-8.3c0,0,0,0,0,0h29.2
	c20.7,0,37.5,16.8,37.5,37.5c0,3.6-0.5,7.3-1.6,10.7c-1.1,4.5-5.6,7.2-10,6.2c-4.5-1.1-7.2-5.6-6.2-10c0.1-0.3,0.2-0.7,0.3-1
	c0.6-1.9,0.8-3.9,0.8-5.9c0-11.5-9.3-20.8-20.8-20.8c0,0,0,0,0,0h-20.8v20.8c0,11.5,9.3,20.8,20.8,20.8c0,0,0,0,0,0
	c2,0,4-0.3,5.9-0.8c4.3-1.6,9.1,0.6,10.7,4.9c1.6,4.3-0.6,9.1-4.9,10.7c-0.3,0.1-0.7,0.2-1,0.3C148.9,178.6,145.3,179.2,141.7,179.2
	z"/>
<path class="st0" d="M154.2,95.8h-41.7c-4.6,0-8.3-3.7-8.3-8.3l0,0V45.8c0-13.8,11.2-25,25-25h25c13.8,0,25,11.2,25,25v25
	C179.2,84.6,168,95.8,154.2,95.8z M120.8,79.2h33.3c4.6,0,8.3-3.7,8.3-8.3l0,0v-25c0-4.6-3.7-8.3-8.3-8.3l0,0h-25
	c-4.6,0-8.3,3.7-8.3,8.3v0V79.2z"/>
<path class="st0" d="M70.8,179.2h-25c-13.8,0-25-11.2-25-25v-25c0-13.8,11.2-25,25-25h41.7c4.6,0,8.3,3.7,8.3,8.3l0,0v41.7
	C95.8,168,84.6,179.2,70.8,179.2z M45.8,120.8c-4.6,0-8.3,3.7-8.3,8.3l0,0v25c0,4.6,3.7,8.3,8.3,8.3h0h25c4.6,0,8.3-3.7,8.3-8.3l0,0
	v-33.3H45.8z"/>
<path class="st0" d="M87.5,95.8H45.8c-13.8,0-25-11.2-25-25v-25c0-13.8,11.2-25,25-25h25c13.8,0,25,11.2,25,25v41.7
	C95.8,92.1,92.1,95.8,87.5,95.8z M45.8,37.5c-4.6,0-8.3,3.7-8.3,8.3l0,0v25c0,4.6,3.7,8.3,8.3,8.3h33.3V45.8c0-4.6-3.7-8.3-8.3-8.3
	H45.8z"/>
</svg>
