<?xml version="1.0" standalone="no"?><!DOCTYPE svg PUBLIC "-//W3C//DTD SVG 1.1//EN" "http://www.w3.org/Graphics/SVG/1.1/DTD/svg11.dtd"><svg t="1568995618063" class="icon" viewBox="0 0 1024 1024" version="1.1" xmlns="http://www.w3.org/2000/svg" p-id="1201" xmlns:xlink="http://www.w3.org/1999/xlink" width="200" height="200"><defs><style type="text/css"></style></defs><path d="M682.666667 725.333333H341.333333a42.666667 42.666667 0 0 1 0-85.333333h341.333334a42.666667 42.666667 0 0 1 0 85.333333z" p-id="1202"></path><path d="M682.666667 554.666667H341.333333a42.666667 42.666667 0 0 1 0-85.333334h341.333334a42.666667 42.666667 0 0 1 0 85.333334z" p-id="1203"></path><path d="M469.333333 384h-128a42.666667 42.666667 0 0 1 0-85.333333h128a42.666667 42.666667 0 0 1 0 85.333333z" p-id="1204"></path><path d="M874.666667 426.666667H640a42.666667 42.666667 0 0 1-42.666667-42.666667V149.333333a42.666667 42.666667 0 0 1 85.333334 0v192h192a42.666667 42.666667 0 0 1 0 85.333334z" p-id="1205"></path><path d="M704 917.333333H234.666667a128 128 0 0 1-128-128V234.666667a128 128 0 0 1 128-128h405.333333a42.666667 42.666667 0 0 1 30.08 12.586666l234.666667 234.666667A42.666667 42.666667 0 0 1 917.333333 384v170.666667a42.666667 42.666667 0 0 1-85.333333 0v-152.96L622.293333 192H234.666667a42.666667 42.666667 0 0 0-42.666667 42.666667v554.666666a42.666667 42.666667 0 0 0 42.666667 42.666667h469.333333a128 128 0 0 0 123.946667-96 42.666667 42.666667 0 1 1 82.773333 21.333333A213.333333 213.333333 0 0 1 704 917.333333z" p-id="1206"></path></svg>