<?xml version="1.0" encoding="utf-8"?>
<!-- Generator: Adobe Illustrator 22.1.0, SVG Export Plug-In . SVG Version: 6.00 Build 0)  -->
<svg version="1.1" id="图层_1" xmlns="http://www.w3.org/2000/svg" xmlns:xlink="http://www.w3.org/1999/xlink" x="0px" y="0px"
	 viewBox="0 0 200 200" style="enable-background:new 0 0 200 200;" xml:space="preserve">
<style type="text/css">
	.st0{fill:#64CDE5;}
</style>
<path class="st0" d="M155.9,191.7H44.1c-7.9,0-15.4-3.7-20.1-10c-4.7-6.1-6.3-14.1-4.2-21.5c7.2-24.3,25.1-44.1,48.5-53.8
	c-24.2-17.6-29.6-51.4-12-75.7s51.4-29.6,75.7-12s29.6,51.4,12,75.7c-10.2,14.1-26.6,22.4-44,22.3c-29.6,0.1-55.6,19.6-64,48
	c-0.6,2.4-0.1,5,1.5,6.9c1.6,2.2,4.1,3.4,6.8,3.4h111.6c2.7,0,5.2-1.3,6.8-3.4c1.5-2,2-4.5,1.3-6.9c-4.4-15-14-28.1-27-36.8
	c-3.7-2.8-4.4-8-1.7-11.7c2.6-3.4,7.2-4.3,10.9-2.2c16.3,10.8,28.2,27.1,33.8,45.8c2.1,7.4,0.6,15.5-4.2,21.6
	C171.2,187.8,163.8,191.6,155.9,191.7z M100,25c-20.7-0.2-37.7,16.4-37.9,37.1C61.9,82.8,78.5,99.8,99.3,100h0.8
	c20.7,0,37.5-16.8,37.5-37.5S120.7,25,100,25z"/>
</svg>
