<?xml version="1.0" encoding="utf-8"?>
<!-- Generator: Adobe Illustrator 22.1.0, SVG Export Plug-In . SVG Version: 6.00 Build 0)  -->
<svg version="1.1" id="图层_1" xmlns="http://www.w3.org/2000/svg" xmlns:xlink="http://www.w3.org/1999/xlink" x="0px" y="0px"
	 viewBox="0 0 200 200" style="enable-background:new 0 0 200 200;" xml:space="preserve">
<style type="text/css">
	.st0{fill:#64CDE5;}
</style>
<path class="st0" d="M150,129.2h-16.7c-4.6,0-8.3-3.7-8.3-8.3c0-4.6,3.7-8.3,8.3-8.3H150c4.6,0,8.3,3.7,8.3,8.3
	C158.3,125.4,154.6,129.2,150,129.2z"/>
<path class="st0" d="M150,95.8h-16.7c-4.6,0-8.3-3.7-8.3-8.3c0-4.6,3.7-8.3,8.3-8.3H150c4.6,0,8.3,3.7,8.3,8.3
	C158.3,92.1,154.6,95.8,150,95.8z"/>
<path class="st0" d="M66.7,129.2H50c-4.6,0-8.3-3.7-8.3-8.3c0-4.6,3.7-8.3,8.3-8.3h16.7c4.6,0,8.3,3.7,8.3,8.3
	C75,125.4,71.3,129.2,66.7,129.2z"/>
<path class="st0" d="M66.7,95.8H50c-4.6,0-8.3-3.7-8.3-8.3c0-4.6,3.7-8.3,8.3-8.3h16.7c4.6,0,8.3,3.7,8.3,8.3
	C75,92.1,71.3,95.8,66.7,95.8z"/>
<path class="st0" d="M91.7,181c-1.4,0-2.8-0.2-4.2-0.5l-66.7-16.7c-7.4-1.9-12.5-8.6-12.5-16.2V48.2c0-9.2,7.4-16.7,16.6-16.7
	c1.4,0,2.8,0.2,4.2,0.5l48.3,14.2c4.4,1.3,7,5.9,5.7,10.3c-1.3,4.4-5.9,7-10.3,5.7L24.7,48.1l0.3,99.6l66.7,16.7V64.8
	c0-7.6,5.1-14.3,12.5-16.2L170.8,32c8.9-2.3,18,3.1,20.3,12c0.4,1.4,0.5,2.8,0.5,4.2v99.5c0,7.6-5.1,14.3-12.5,16.2l-51.7,15
	c-4.4,1.3-9-1.3-10.3-5.7c-1.3-4.4,1.2-9,5.7-10.3l52-15.1l0.2-99.6l-66.7,16.7v99.5C108.3,173.5,100.9,181,91.7,181L91.7,181z"/>
</svg>
