<svg xmlns="http://www.w3.org/2000/svg" viewBox="0 0 164 164"><defs><style>.cls-1{fill:#69c66d;}.cls-2{fill:#fff;}</style></defs><title>资源 6</title><g id="图层_2" data-name="图层 2"><g id="图层_1-2" data-name="图层 1"><circle class="cls-1" cx="82" cy="82" r="82"/><circle class="cls-2" cx="82" cy="82" r="73"/><circle class="cls-1" cx="82" cy="82" r="66.5"/><path class="cls-2" d="M67,109.07A31.65,31.65,0,0,0,114.14,81.5a5.93,5.93,0,0,1,11.86,0h0a43.51,43.51,0,0,1-67.65,36.19l-6.73,6.72a2.12,2.12,0,0,1-3-.06,2.23,2.23,0,0,1-.65-1.46l-1.07-22.4a3,3,0,0,1,2.82-3.17h.35l22.4,1.07a2.23,2.23,0,0,1,2.11,2.21A2,2,0,0,1,74,102l-7,7ZM98,53.93A31.65,31.65,0,0,0,50.86,81.5,5.93,5.93,0,0,1,39,81.5a43.51,43.51,0,0,1,67.65-36.19l6.73-6.72a2.12,2.12,0,0,1,3,.06,2.23,2.23,0,0,1,.65,1.46l1.07,22.4a3,3,0,0,1-2.82,3.17h-.35l-22.4-1.07a2.23,2.23,0,0,1-2.11-2.21A2,2,0,0,1,91,61l7-7Z"/></g></g></svg>