<?xml version="1.0" encoding="utf-8"?>
<!-- Generator: Adobe Illustrator 22.1.0, SVG Export Plug-In . SVG Version: 6.00 Build 0)  -->
<svg version="1.1" id="图层_1" xmlns="http://www.w3.org/2000/svg" xmlns:xlink="http://www.w3.org/1999/xlink" x="0px" y="0px"
	 viewBox="0 0 200 200" style="enable-background:new 0 0 200 200;" xml:space="preserve">
<style type="text/css">
	.st0{fill:#FFB8C9;}
</style>
<path class="st0" d="M64.8,23l27,27h26.4l27-27c3.3-3.3,8.5-3.3,11.8,0s3.3,8.5,0,11.8l0,0L141.8,50h17.4
	c16.1,0,29.2,13.1,29.2,29.2c0,0,0,0,0,0v66.7c0,16.1-13.1,29.2-29.2,29.2H50.8c-16.1,0-29.2-13.1-29.2-29.2l0,0V79.2
	C21.7,63.1,34.7,50,50.8,50l0,0h17.4L53,34.8c-3.3-3.3-3.3-8.5,0-11.8S61.5,19.7,64.8,23L64.8,23z M159.2,66.7H50.8
	c-6.4,0-11.8,4.9-12.4,11.3l-0.1,1.2v66.7c0,6.4,4.9,11.8,11.3,12.4l1.2,0.1h108.3c6.4,0,11.8-4.9,12.4-11.3l0.1-1.2V79.2
	C171.7,72.3,166.1,66.7,159.2,66.7z M71.7,91.7c4.6,0,8.3,3.7,8.3,8.3v16.7c0,4.6-3.7,8.3-8.3,8.3c-4.6,0-8.3-3.7-8.3-8.3V100
	C63.3,95.4,67.1,91.7,71.7,91.7z M138.3,91.7c4.6,0,8.3,3.7,8.3,8.3l0,0v16.7c0,4.6-3.7,8.3-8.3,8.3c-4.6,0-8.3-3.7-8.3-8.3V100
	C130,95.4,133.7,91.7,138.3,91.7L138.3,91.7L138.3,91.7z"/>
</svg>
