<?xml version="1.0" standalone="no"?><!DOCTYPE svg PUBLIC "-//W3C//DTD SVG 1.1//EN" "http://www.w3.org/Graphics/SVG/1.1/DTD/svg11.dtd"><svg t="1576555104533" class="icon" viewBox="0 0 1024 1024" version="1.1" xmlns="http://www.w3.org/2000/svg" p-id="1579" xmlns:xlink="http://www.w3.org/1999/xlink" width="200" height="200"><defs><style type="text/css"></style></defs><path d="M112 112m32 0l736 0q32 0 32 32l0 736q0 32-32 32l-736 0q-32 0-32-32l0-736q0-32 32-32Z" fill="#5090F1" p-id="1580"></path><path d="M422.354 633.7l332.918-336.233c12.434-12.558 32.695-12.659 45.254-0.224l0.224 0.224 29.043 29.332a8 8 0 0 1 0 11.258L445.148 726.533c-12.435 12.558-32.696 12.659-45.254 0.224l-0.225-0.224-27.444-27.718-0.054 0.056-177.964-179.736a8 8 0 0 1 0-11.258l29.043-29.332c12.435-12.558 32.696-12.659 45.254-0.224l0.224 0.224 153.626 155.156z" fill="#FFFFFF" p-id="1581"></path></svg>