<?xml version="1.0" encoding="utf-8"?>
<!-- Generator: Adobe Illustrator 22.1.0, SVG Export Plug-In . SVG Version: 6.00 Build 0)  -->
<svg version="1.1" id="图层_1" xmlns="http://www.w3.org/2000/svg" xmlns:xlink="http://www.w3.org/1999/xlink" x="0px" y="0px"
	 viewBox="0 0 200 200" style="enable-background:new 0 0 200 200;" xml:space="preserve">
<style type="text/css">
	.st0{fill:#6B5A45;}
	.st1{fill:#FFE9A7;}
</style>
<path class="st0" d="M80.4,200c-6.1,0-12-2.4-16.4-6.8L6.8,136c-9-9-9-23.7,0-32.7c0,0,0,0,0,0l96.4-96.4c4.9-5,11.9-7.5,18.9-6.8
	l51.5,5.8c10.7,1.2,19.2,9.7,20.4,20.4l5.8,51.5c0.8,7-1.6,13.9-6.6,18.9l-96.4,96.5C92.4,197.6,86.5,200,80.4,200z M119.4,11.7
	c-3.1,0-6,1.2-8.2,3.4L15,111.5c-4.5,4.5-4.5,11.8,0,16.3L72.3,185c4.5,4.5,11.8,4.5,16.3,0l96.5-96.3c2.5-2.5,3.7-5.9,3.4-9.4
	l-5.8-51.5c-0.6-5.4-4.9-9.7-10.4-10.2l-51.5-5.8H119.4z"/>
<path class="st1" d="M38,112.9l59-59c2.3-2,5.6-2.7,8.5-1.7L131,58c5.3,1.5,9.5,5.6,10.9,11l6.2,25.4c0.9,3,0.1,6.2-2,8.5l-59,59.2
	c-4.9,3.4-11.7,2.5-15.5-2.1l-31.5-31.6C35.5,124.6,34.6,117.8,38,112.9z"/>
<path class="st0" d="M133,95.8c-16,0-28.9-13-28.8-29c0-3,0.5-6,1.4-8.9c1-3,4.3-4.7,7.3-3.7c3,1,4.7,4.3,3.7,7.3
	c-3,9.1,2,18.9,11.1,21.9c9.1,3,18.9-2,21.9-11.1c0.6-1.7,0.9-3.6,0.9-5.4c0.1-8.7-6.3-16.1-14.9-17.3c-3.2-0.5-5.4-3.4-4.9-6.6
	s3.4-5.4,6.6-4.9c15.8,2.3,26.7,17,24.4,32.8c-0.9,6.1-3.8,11.8-8.1,16.2C148.1,92.7,140.7,95.8,133,95.8L133,95.8z"/>
</svg>
