<svg xmlns="http://www.w3.org/2000/svg" viewBox="0 0 130.01 39.36"><defs><style>.cls-1{fill:#a3774c;stroke:#ffb876;}.cls-1,.cls-2,.cls-3,.cls-5{stroke-miterlimit:10;}.cls-1,.cls-2{stroke-width:2px;}.cls-2,.cls-5{fill:none;}.cls-2,.cls-3,.cls-5{stroke:#4aacc2;}.cls-3{fill:#4aacc2;stroke-width:0.3px;}.cls-4{fill:#ffb876;}.cls-5{stroke-width:1.25px;}.cls-6{fill:#fff;}</style></defs><title>资源 6</title><g id="图层_2" data-name="图层 2"><g id="图层_1-2" data-name="图层 1"><ellipse class="cls-1" cx="7.85" cy="11.27" rx="4.91" ry="3.32" transform="translate(-5.65 13.84) rotate(-65.94)"/><path class="cls-2" d="M12.7,24.15s1,4.21,1.84,4.09,1.79-3.88,1.79-3.88"/><path class="cls-3" d="M40.16,26.8l-.09,3.54,1-.08v1.06l-1,.11L39.85,39l-1.3-.11-.08-7.32-1,.1-.06-1.14,1-.07-.05-3.75Zm6.71-.57.14.18a1,1,0,0,1,.12.21,2.85,2.85,0,0,1,.12.29.64.64,0,0,1,0,.34,2.22,2.22,0,0,1-.09.37l.86,0,0,1.41-2.91,0v.64l2.67,0,.08,4.44H46.05v-.6H45v.72l-1.32,0v-.66l-1,0v.92H41.66l0-4.73,2,0v-.64H41.22l0-1.22,2.42-.1V26.2h1.78l0,1.49,1.07,0-.52-.59Zm0,8.15v1.06h1.33v1.14l-1.32.06,0,1.28a1.45,1.45,0,0,1-.15.7,1,1,0,0,1-.87.59,1,1,0,0,1-.51-.11,1.14,1.14,0,0,1-.41-.38,1.34,1.34,0,0,1-.2-.64l.49,0V36.71l-2,.07a1.4,1.4,0,0,1,.2.17,1.52,1.52,0,0,1,.22.22.84.84,0,0,1,.17.37A1.64,1.64,0,0,1,44,38a3,3,0,0,1,0,.43,1.29,1.29,0,0,1-.1.33L42.14,38l.64-1.14-1.51,0V35.44h4V34.38Zm-4.18-2.89.95,0v-.61l-.94,0Zm0,1.24,1,0v-.56l-1,0Zm2.35-.08,1,0,0-.52-.93,0Zm.06-1.87,0,.62.91,0v-.66Z"/><path class="cls-3" d="M51.84,29.7H50l0-2.15,3.54,0,0-1.06,2.6.13-.1.92H59l0,2.11H57.55l0-1-5.09-.06v.27l1.52.77-.06.1a.44.44,0,0,0-.06.1l-.08.13,4.45.18v1.46l-1.75.92,2.94,1.09a1.53,1.53,0,0,1-.48.68,2,2,0,0,1-.32.2,1.77,1.77,0,0,1-.44.11,1.75,1.75,0,0,1-.56,0,3.07,3.07,0,0,1-.7-.17c-.34-.11-.71-.25-1.09-.41a12.43,12.43,0,0,1-1.19-.55L53,34.36a3.19,3.19,0,0,1-1.14.44,1.67,1.67,0,0,1-.76,0,1.17,1.17,0,0,1-.5-.32A2.71,2.71,0,0,1,50.3,34l2.85-1.38-.26-.18-.25-.2.69-.85,1.34.5,1.47-.71-2.91-.35a9.7,9.7,0,0,1-1,1.3,1.14,1.14,0,0,1-.71.43,1.38,1.38,0,0,1-.68-.07,2.25,2.25,0,0,1-.72-.42Zm6.34,5.35,0,4-6.89-.13.06-3.7Zm-5.56,1.16,0,1.74,3.37.06,0-1.93Z"/><path class="cls-3" d="M65.61,35l-.38.94c-.11.28-.24.6-.39,1L64.37,38a1.55,1.55,0,0,1-.69.77,2.22,2.22,0,0,1-.84.24,2.72,2.72,0,0,1-1-.11l2.35-4.34Zm4.51-7.9.07,6.3-8,.21,0-6.58Zm-5.5,1,0,4.55,4.06-.12,0-4.39Zm6.13,9.08a2,2,0,0,1-.29.46,2.58,2.58,0,0,1-.37.37,1.26,1.26,0,0,1-.52.25.77.77,0,0,1-.34,0,1.67,1.67,0,0,1-.41-.11,4.28,4.28,0,0,1-.44-.2,4.34,4.34,0,0,1-.43-.23q-.49-.3-1-.69L68,35.31Z"/><path class="cls-3" d="M74.5,27.2c.15.16.3.32.43.48s.22.29.32.44a1.07,1.07,0,0,1,.19.48.92.92,0,0,1,0,.46,2.41,2.41,0,0,1-.18.43c-.09.16-.18.31-.28.46l-1.56-1.41Zm3.73-.53v3.67l4-.23v.77c0,.36,0,.77,0,1.23s0,.94,0,1.45,0,1,0,1.45,0,.88,0,1.24V37a2.71,2.71,0,0,1-.09.84,1.51,1.51,0,0,1-.32.58.92.92,0,0,1-.68.3,1.06,1.06,0,0,1-.71-.17,1.59,1.59,0,0,1-.43-.43,2.11,2.11,0,0,1-.26-.65l.63,0-.07-6-2.16.28c-.4,1.46-.76,2.69-1.08,3.67a14,14,0,0,1-1,2.33,2.64,2.64,0,0,1-1,1.1,1.37,1.37,0,0,1-1.17,0q.78-1.71,1.38-3.42A23.39,23.39,0,0,0,76.29,32l-2.6.34,0-1.69,2.66-.15,0-3.91Zm.66,6.52c.14.15.26.3.37.44s.22.3.32.45a1.39,1.39,0,0,1,.17.44,1.73,1.73,0,0,1,0,.51,1.62,1.62,0,0,1-.08.49,1.09,1.09,0,0,1-.23.39l-1.71-1.42Z"/><path class="cls-3" d="M88,35.73a1.43,1.43,0,0,1,.07.46,1.71,1.71,0,0,1-.06.43,1.15,1.15,0,0,1-.26.45,2.57,2.57,0,0,1-.65.5c-.3.19-.61.37-.92.53s-.78.4-1.21.6l-.36-1.21.92-.47.14-4.82-1.36,0,0-1.13,2.81.11-.07,5ZM86.09,27.2a2.89,2.89,0,0,1,.78.67,2.24,2.24,0,0,1,.39.79,2,2,0,0,1,0,.85,2.54,2.54,0,0,1-.33.86l-2-1.45Zm6.08,4.6,0-3.55L88.58,28V27H94l0,5.74-3.78.09V36a2.57,2.57,0,0,0,.05.5.31.31,0,0,0,.29.25,3.9,3.9,0,0,0,.69.05,7.56,7.56,0,0,0,.94,0c.33,0,.65-.05,1-.1a2.87,2.87,0,0,0,.75-.2.84.84,0,0,0,.32-.22,3,3,0,0,0,.31-.38,3.09,3.09,0,0,0,.24-.44,3,3,0,0,0,.14-.42c0,.35,0,.69,0,1a7.81,7.81,0,0,1,0,.83,2.21,2.21,0,0,1-.15.71,1,1,0,0,1-.44.49,3.25,3.25,0,0,1-.75.32,7.45,7.45,0,0,1-.92.19c-.33,0-.66.07-1,.08s-.64,0-.93,0l-.74,0a1.42,1.42,0,0,1-.72-.19,1.3,1.3,0,0,1-.44-.46,2,2,0,0,1-.22-.71,5.08,5.08,0,0,1,0-.9l.06-4.58Z"/><path class="cls-3" d="M99.62,35.27a1.91,1.91,0,0,1,.21.5,2.51,2.51,0,0,1,.07.5,1.08,1.08,0,0,1-.16.55,1.7,1.7,0,0,1-.43.46c-.23.19-.48.38-.76.58s-.55.39-.83.57l-.66.4-.63-1.3Zm3.14-4.17,0-.9h-5l0-1.2,5.1-.11,0-1.09-5.7.05v-1l7.55-.06.06,4.23L106,31v1.65h-3.83l0,2.35,4.24,2.33a2.11,2.11,0,0,1-.45.63,1.59,1.59,0,0,1-.58.34,1.27,1.27,0,0,1-.83,0,1.35,1.35,0,0,1-.41-.2c-.18-.11-.37-.24-.58-.39s-.44-.32-.67-.51l-.71-.56v.87a2.14,2.14,0,0,1-.17.89,1.31,1.31,0,0,1-.4.55,1,1,0,0,1-.55.21,1,1,0,0,1-.57-.11,1.27,1.27,0,0,1-.48-.42,1.67,1.67,0,0,1-.28-.73l.65-.06-.07-5.15H96.73l0-1.34Zm-3.41,3.52a1.46,1.46,0,0,1-.55.51,1.21,1.21,0,0,1-.64.13,1.39,1.39,0,0,1-.64-.19A2.1,2.1,0,0,1,97,34.6l1-1.47Zm6.34-.62-.87,1a.72.72,0,0,1-.51.27,1.29,1.29,0,0,1-.52-.08,2.19,2.19,0,0,1-.59-.33l1.46-1.8Z"/><path class="cls-3" d="M109.47,32.09l.62-2.05-2-.25.18-1.39,3.75.39c-.12.53-.24,1.07-.38,1.65s-.24,1-.39,1.65-.3,1.21-.46,1.83l1.57,2.1a.69.69,0,0,1-.36.39,1.11,1.11,0,0,1-.54.1,1.4,1.4,0,0,1-.56-.14,1.1,1.1,0,0,1-.44-.39l-.18-.28c-.08.26-.16.49-.24.72l-.21.6a3.67,3.67,0,0,1-.35.69,2.27,2.27,0,0,1-.38.46,1.76,1.76,0,0,1-.39.26,2.07,2.07,0,0,1-.36.11,1.67,1.67,0,0,1-.84-.13L109,33.64l-1.21-1.9.84-.81Zm6.61-.57-1.71,6a2.82,2.82,0,0,1-.28.65,2.56,2.56,0,0,1-.37.46,1.81,1.81,0,0,1-.42.28,1.69,1.69,0,0,1-.43.15,2.19,2.19,0,0,1-1,0l2.65-7.95Zm.78-2-2.35-.18c-.05.17-.11.34-.17.49l-.15.37a1.2,1.2,0,0,1-.6.53,1.65,1.65,0,0,1-.67.11,2.12,2.12,0,0,1-.77-.16l1.16-4.41,1.87.41c0,.12-.07.33-.14.65s-.16.68-.26,1.06l2.39.19.22-.64,1,.39c0,.21-.11.42-.18.64s-.13.44-.2.65-.14.41-.22.6a3.4,3.4,0,0,1-.21.46.7.7,0,0,1-.35.34.88.88,0,0,1-.39,0,1,1,0,0,1-.43-.18Zm1.4,8.65a2.74,2.74,0,0,1-.78.23,2.09,2.09,0,0,1-.65-.07.89.89,0,0,1-.54-.49,7.56,7.56,0,0,1-.4-.81c-.11-.26-.2-.5-.29-.71s-.18-.47-.25-.69l1.19-.7Z"/><path class="cls-3" d="M122.93,36.54a1.58,1.58,0,0,1-.29.29,3.28,3.28,0,0,1-.42.31,5.54,5.54,0,0,1-.67.36,1.2,1.2,0,0,1-.77.12,1.6,1.6,0,0,1-.64-.26,2.29,2.29,0,0,1-.6-.53l2.06-2Zm2.88-6.49V33l3.47-.07v.81l-3.45,0,0,3.48a2.26,2.26,0,0,1-.11.79,1.44,1.44,0,0,1-.33.57,1,1,0,0,1-.69.28,1.05,1.05,0,0,1-.74-.17,1.34,1.34,0,0,1-.4-.43,1.61,1.61,0,0,1-.21-.65l.64-.06,0-3.77-3.43.06.53-7.19,2,.28-.1.7,5.44-.67.05,1.91-5.72.16-.63,4L124,33l0-3Zm4,5.93a2,2,0,0,1-.29.48,2.16,2.16,0,0,1-.37.37,1.49,1.49,0,0,1-.52.26,1.18,1.18,0,0,1-.64,0,4.06,4.06,0,0,1-.64-.25,3.77,3.77,0,0,1-.69-.46l1.08-1.78Z"/><path class="cls-4" d="M50.6,0l-.14,6.34-7.59-.15L43,9.9l6.28-.46-.13,5-6,.31.13,8.35-4.47.15L38.27.46Z"/><path class="cls-4" d="M52.84,13.64l-.59-11L57,2.34l-.22,12.53c1.08,1.86,2,2.79,2.66,2.79q1.86,0,1.86-9.82,0-2.59-.13-6L65.73,2Q65.9,16.8,64.14,21.1q-1.29,3.15-4,3.15a6.3,6.3,0,0,1-2.1-.4Q53.3,22.14,52.84,13.64Z"/><path class="cls-4" d="M72.08.91,75.7,11A56.89,56.89,0,0,1,75.26,3c0-.91,0-1.88,0-2.88l4.6.17c-.18,2.53-.27,5.13-.27,7.82q0,6.45.7,13.51l-4.48.18-4.62-11c0,.52,0,1,0,1.57a77.08,77.08,0,0,0,.57,9H67.32Q67,13.78,67,6.33c0-1.86,0-3.72,0-5.57Z"/><path class="cls-4" d="M81.09,18.9c1.69-2,3.36-4.11,5-6.36C84.59,9.74,83,6.86,81.29,3.93L85,.7q2.08,4.31,4,7.89,2.4-3.48,4.77-7.28l2.67,4.76q-2.56,3.57-4.95,7.06c1.44,2.54,2.78,4.69,4,6.47L92,23.94c-1.08-2.18-2.2-4.41-3.39-6.67q-2.05,3.12-4,6.16Z"/><path class="cls-4" d="M95.89,22.69a1.93,1.93,0,0,1-.21-.84,1.43,1.43,0,0,1,.15-.64,1.08,1.08,0,0,1,.85-.71,1,1,0,0,1,.93.55,1.65,1.65,0,0,1,.27.89,1.4,1.4,0,0,1,0,.41,1.29,1.29,0,0,1-.75.91.66.66,0,0,1-.27.06A1.25,1.25,0,0,1,95.89,22.69Z"/><path class="cls-4" d="M100.86,19.65l1.2-5.93,2.28.07,1.08,7.1.84-8.25,2,.77L107,23.28l-3.12.31-1-5.32-1.44,5.17-2.4-.16L98,13.1l2.22-.16Z"/><path class="cls-4" d="M110.72,12.91a3.38,3.38,0,0,1,1-.15q2.33,0,3,3.11a16.6,16.6,0,0,1,.31,3.7L115,22.88,113,23v-.45q-3.67-.16-3.82-2.32,0-.3,0-.45c0-1.17.37-1.9,1.1-2.2a2.83,2.83,0,0,1,1.09-.22,3.28,3.28,0,0,1,1.47.38c0-1.11,0-1.69,0-1.76a1,1,0,0,0-1-.75c-.48,0-.94.46-1.38,1.54l-1.92-.38Q109.25,13.33,110.72,12.91Zm1.25,6.2c-.53,0-.8.17-.83.53s.55.93,1.77,1.25l0-1.67A4.75,4.75,0,0,0,112,19.11Z"/><path class="cls-4" d="M117.1,13l.12,1.08a4.08,4.08,0,0,1,2.4-1.32c.58,0,1,.38,1.29,1.13a17.56,17.56,0,0,1,.64,5.64c0,.94,0,2-.08,3.11l-2,.08a31.57,31.57,0,0,0,.24-3.52,6.47,6.47,0,0,0-.36-2.53c-.15-.34-.33-.51-.53-.51-.39,0-.86.59-1.41,1.75V23L115.55,23l-.31-9.55Z"/><path class="cls-4" d="M128.3,21a4.92,4.92,0,0,1,.36,1.56A2.26,2.26,0,0,1,128,23.9a3.77,3.77,0,0,1-3.19,1c-1.49-.06-2.34-.53-2.56-1.41a3.1,3.1,0,0,1-.11-.76,1.9,1.9,0,0,1,.53-1.35,4.78,4.78,0,0,1-.23-1.54,1.9,1.9,0,0,1,.79-1.48,3.16,3.16,0,0,1-1-2.28,4,4,0,0,1,.09-.81,2.92,2.92,0,0,1,1.93-2.37,3.92,3.92,0,0,1,1.2-.22,2.42,2.42,0,0,1,1.44.45,2.42,2.42,0,0,1,.72-1.07L129,13.64a1.22,1.22,0,0,0-1,.92,3.35,3.35,0,0,1,.41,2.07,2.86,2.86,0,0,1-1,2.18,2.77,2.77,0,0,1-1.83.54,7.3,7.3,0,0,1-1-.08c-.45.17-.67.39-.67.69a.72.72,0,0,0,.07.3,7.28,7.28,0,0,1,2.32-.42A1.78,1.78,0,0,1,128.3,21Zm-1.24,1.16a.62.62,0,0,0-.66-.55,5.58,5.58,0,0,0-1,.14c-1,.2-1.5.48-1.48.85s.37.44,1.08.44l.56,0c1-.07,1.49-.32,1.49-.73C127.07,22.2,127.06,22.16,127.06,22.12ZM126.65,16a1.12,1.12,0,0,0-.36-.9,2,2,0,0,0-.9-.15c-.8,0-1.21.27-1.22.87s.4,1,1.25,1.06l.31,0C126.38,16.93,126.68,16.63,126.65,16Z"/><path class="cls-2" d="M2.13,16.9c-1.07-4.2.76-5.27,2.43-7.79,5-8.46,9.49-4.79,9.49-4.79,3.24,3.26,0,9.68,0,9.68C8.94,22.76,2.26,17.16,2.26,17.16,2.57,25,2,24.71,2,24.71"/><path class="cls-2" d="M18.78,12.6S22,6.36,27.34,7.85A8.42,8.42,0,0,1,34,17s-1.46,8.76-10.37,4.35C23.65,21.37,16.14,18.58,18.78,12.6Z"/><path class="cls-2" d="M10.78,24.15s2.3-5.16,4.32-5.09c0,0,2.5-.75,3,5.64,0,0-3.32.27-3.43-1.77a2.75,2.75,0,0,1-1.34,1.55A2.82,2.82,0,0,1,10.78,24.15Z"/><path class="cls-2" d="M14.75,5.85A5.69,5.69,0,0,1,17.5,3.3s-1.46,1.77-.35,3c0,0,.77-2.85,3-3.46,0,0-2.79,3.53-.63,3.46,0,0,1.5-2.5,3.2-2.79,0,0-2.57,2.12-1,2.8,0,0,.8-1.53,3.09-.48,0,0-2.73.4-2,1.29,0,0,.09.54,2,.55"/><ellipse class="cls-5" cx="2.09" cy="32.33" rx="1.46" ry="3.33"/><ellipse class="cls-5" cx="5.24" cy="33.34" rx="1.31" ry="3.38"/><ellipse class="cls-5" cx="8.89" cy="33.63" rx="1.46" ry="3.33"/><ellipse class="cls-5" cx="21.03" cy="34.98" rx="1.25" ry="3.33"/><ellipse class="cls-5" cx="24.05" cy="34.83" rx="1.12" ry="3.38"/><ellipse class="cls-5" cx="27.18" cy="35.12" rx="1.25" ry="3.33"/><path class="cls-6" d="M9.43,33.2c3.86,0,3.87-6,0-6s-3.87,6,0,6Z"/><path class="cls-6" d="M21.59,34c3.87,0,3.87-6,0-6s-3.86,6,0,6Z"/><path class="cls-6" d="M24.29,32.56c3.86,0,3.87-6,0-6s-3.86,6,0,6Z"/><path class="cls-2" d="M30.44,21.87l-.9,4.6c-1.68,10.14-17.18,6.05-17.18,6.05S.69,31.39,2.23,23.69"/><ellipse class="cls-1" cx="25.96" cy="14.87" rx="4.44" ry="4.31" transform="translate(-2.13 25.17) rotate(-49.95)"/></g></g></svg>