<?xml version="1.0" encoding="utf-8"?>
<!-- Generator: Adobe Illustrator 22.1.0, SVG Export Plug-In . SVG Version: 6.00 Build 0)  -->
<svg version="1.1" id="图层_1" xmlns="http://www.w3.org/2000/svg" xmlns:xlink="http://www.w3.org/1999/xlink" x="0px" y="0px"
	 viewBox="0 0 200 200" style="enable-background:new 0 0 200 200;" xml:space="preserve">
<style type="text/css">
	.st0{fill:#A5A5A5;}
</style>
<path class="st0" d="M100,162.5c-15.6,0-30.6-5.9-42.1-16.5c10.7-3.5,28.6-8.5,41.7-8.5c13.3,0,31.7,5.3,42.3,8.7
	C130.5,156.7,115.5,162.5,100,162.5 M100,118.8c-10.3,0-18.8-8.4-18.8-18.8V81.3c0-10.4,8.4-18.7,18.8-18.8
	c10.3,0,18.8,8.4,18.8,18.8V100C118.7,110.3,110.4,118.7,100,118.8 M100,37.5c34.5,0,62.5,28,62.5,62.5c0,12.9-4,25.5-11.6,36.1
	c-6.7-2.3-20.9-6.9-34.9-9.4c9.1-5.5,15.2-15.3,15.2-26.7V81.3c0-17.3-14-31.2-31.3-31.3c-17.2,0-31.3,14-31.3,31.3V100
	c0,11.3,6,21.1,15,26.6c-13.8,2.4-27.8,6.9-34.9,9.3c-7.4-10.5-11.4-23-11.4-35.9C37.5,65.5,65.5,37.5,100,37.5 M100,25
	c-41.4,0-75,33.6-75,75s33.6,75,75,75s75-33.6,75-75S141.4,25,100,25"/>
</svg>
