<?xml version="1.0" standalone="no"?><!DOCTYPE svg PUBLIC "-//W3C//DTD SVG 1.1//EN" "http://www.w3.org/Graphics/SVG/1.1/DTD/svg11.dtd"><svg t="1576550561658" class="icon" viewBox="0 0 1024 1024" version="1.1" xmlns="http://www.w3.org/2000/svg" p-id="5677" xmlns:xlink="http://www.w3.org/1999/xlink" width="200" height="200"><defs><style type="text/css"></style></defs><path d="M183.3 63.9c-11.2 0-23.2 4.5-31.4 13.4-8.2 9-13.4 20.2-13.4 31.4v806.6c0 11.2 4.5 23.2 13.4 31.4 9 9 20.2 13.4 31.4 13.4h657.2c11.2 0 23.2-4.5 31.4-13.4 9-9 13.4-20.2 13.4-31.4V317.8L631.4 63.9H183.3z" fill="#5FBB92" p-id="5678"></path><path d="M885.3 317.8H676.2c-11.2 0-23.2-4.5-31.4-13.4-9-8.2-13.4-20.2-13.4-31.4V63.9l253.9 253.9z" fill="#BADECF" p-id="5679"></path><path d="M558.6 535.9L669.8 384h-93l-64 93.6-61.2-93.6h-95.1l108.7 151.9-116.3 161.6h94.4l67.9-100.4 67.9 99.7h95.7z" fill="#FFFFFF" p-id="5680"></path></svg>