<?xml version="1.0" standalone="no"?><!DOCTYPE svg PUBLIC "-//W3C//DTD SVG 1.1//EN" "http://www.w3.org/Graphics/SVG/1.1/DTD/svg11.dtd"><svg t="1576550546433" class="icon" viewBox="0 0 1024 1024" version="1.1" xmlns="http://www.w3.org/2000/svg" p-id="5083" xmlns:xlink="http://www.w3.org/1999/xlink" width="200" height="200"><defs><style type="text/css"></style></defs><path d="M107.83 0C87.66 0 69.042 20.17 69.042 38.788v946.424c0 20.17 20.17 38.788 38.788 38.788h808.34c20.17 0 38.788-20.17 38.788-38.788V224.97L729.988 1.552 107.83 0z" fill="#2C97FF" p-id="5084"></path><path d="M734.642 0v178.424c0 20.17 20.17 38.788 38.788 38.788h179.976L734.642 0z" fill="#99D3FF" p-id="5085"></path><path d="M249.018 384.776l121.018 364.606h57.406l83.782-293.237 83.782 293.237h57.406L773.43 384.776h-63.612L619.83 679.564 537.6 384.776h-51.2l-83.782 294.788-89.988-294.788z" fill="#FFFFFF" p-id="5086"></path></svg>