<?xml version="1.0" standalone="no"?><!DOCTYPE svg PUBLIC "-//W3C//DTD SVG 1.1//EN" "http://www.w3.org/Graphics/SVG/1.1/DTD/svg11.dtd"><svg t="1570087585646" class="icon" viewBox="0 0 1024 1024" version="1.1" xmlns="http://www.w3.org/2000/svg" p-id="3651" xmlns:xlink="http://www.w3.org/1999/xlink" width="200" height="200"><defs><style type="text/css"></style></defs><path d="M948.378 520.448h-46.08l-74.343-123.34c-0.102-0.206-0.102-0.36-0.46-0.564 0-0.154 0-0.358-0.205-0.358a6.349 6.349 0 0 0-1.434-1.434 4.096 4.096 0 0 0-1.946-1.075c-0.204-0.359-0.563-0.359-0.972-0.512h-0.359L623.36 329.37c59.494-36.864 87.603-73.216 88.166-73.933a4.506 4.506 0 0 0-0.972-6.298 4.506 4.506 0 0 0-6.298 0.922c-0.563 0.717-29.9 38.502-92.211 75.673l-101.12-32.41a9.574 9.574 0 0 0-5.376 0l-7.936 2.51-216.474 69.324H168.55a23.296 23.296 0 0 0 0 46.49h11.418l-37.171 62.362h-71.68a23.245 23.245 0 1 0 0 46.49h44.032l-18.74 31.436a9.523 9.523 0 0 0-1.075 7.014 9.728 9.728 0 0 0 4.455 5.53l75.878 39.731v119.245c0 3.226 1.792 6.298 4.66 7.885l2.969 1.638 289.28 162.407a8.858 8.858 0 0 0 8.448 5.734c0.717 0 1.229 0 1.997-0.205h0.102c0.768 0 1.434 0.205 2.355 0.205a11.264 11.264 0 0 0 3.943-0.922l332.851-165.324 1.843-0.922a8.704 8.704 0 0 0 5.018-7.936V663.45l51.61 1.075a23.194 23.194 0 1 0 0.972-46.439l-52.531-1.075v-25.446l59.238-24.679h59.904a23.296 23.296 0 0 0 0.052-46.438zM792.883 402.483L511.078 508.058v-127.95a499.61 499.61 0 0 0 91.444-38.604l190.361 60.98zM511.078 370.74v-58.521l79.565 25.497a490.342 490.342 0 0 1-79.565 33.024z m-17.97-54.579v60.006c-36.506 10.24-77.825 17.818-124.724 20.43a4.557 4.557 0 0 0-4.3 4.71 4.557 4.557 0 0 0 4.505 4.25h0.256a591.718 591.718 0 0 0 124.262-20.02v129.382l-15.053 5.53L221.184 403.2l271.923-87.04z m-303.924 80.026zM116.736 553.01l83.098-139.571L468.48 535.91l-73.523 162.97-205.21-107.622-73.011-38.247z m278.426 166.195a8.192 8.192 0 0 0 7.014 0.512 9.626 9.626 0 0 0 5.376-4.864l64.563-142.796V874.24L193.69 718.285V613.632l201.472 105.574z m416.102 1.383l-321.126 159.18V559.259l89.036 129.28c2.51 3.584 6.964 4.864 10.957 3.225l221.133-92.62v121.446z m5.58-143.155c-0.511 0.204-1.074 0.358-1.586 0.768L589.926 672.46l-95.692-138.855 322.201-120.678 79.36 131.482-78.95 33.024z" fill="#9C9C9C" p-id="3652"></path><path d="M485.58 901.222c-0.92 0-1.638-0.204-2.354-0.204h-0.103c-0.768 0.204-1.28 0.204-1.997 0.204a8.858 8.858 0 0 1-8.448-5.734l-289.28-162.406c-15.206 14.387-23.808 30.054-23.808 46.438 0 70.349 153.344 127.386 342.426 127.386 189.03 0 342.374-57.037 342.374-127.386 0-15.667-7.987-30.618-21.913-44.493L489.626 900.352a13.056 13.056 0 0 1-4.045 0.87z" fill="#E5E5E4" p-id="3653"></path><path d="M816.435 412.877L494.234 533.555l95.692 138.855 225.332-94.26c0.563-0.41 1.075-0.563 1.587-0.768l78.95-33.075-79.36-131.43z" fill="#FFFFFF" p-id="3654"></path><path d="M590.08 691.866a9.114 9.114 0 0 1-10.957-3.226l-89.037-129.28v320.512l321.127-159.18V599.346L590.08 691.866z" fill="#E5E5E4" p-id="3655"></path><path d="M511.078 370.74a487.629 487.629 0 0 0 79.565-33.076l-79.565-25.446v58.521z m0 137.318l281.805-105.575-190.31-60.979c-25.6 14.08-56.115 27.546-91.443 38.605v127.949z m-33.075 12.39l15.053-5.53V385.536c-36.454 10.035-77.67 17.408-124.16 20.02h-0.256a4.557 4.557 0 0 1-4.506-4.25 4.454 4.454 0 0 1 4.25-4.71 584.704 584.704 0 0 0 124.723-20.43V316.16L221.184 403.2l256.82 117.248z" fill="#FFFFFF" p-id="3656"></path><path d="M472.115 874.24V572.058l-64.563 142.796a9.626 9.626 0 0 1-8.243 5.428 8.5 8.5 0 0 1-4.147-1.076L193.69 613.632v104.653L472.115 874.24z" fill="#E5E5E4" p-id="3657"></path><path d="M394.957 698.88l73.523-162.97-268.646-122.47-83.098 139.571 73.011 38.298z" fill="#FFFFFF" p-id="3658"></path><path d="M221.389 326.912c267.417-11.213 405.35-159.59 406.63-161.075 1.639-1.843 1.536-4.66-0.307-6.349s-4.66-1.587-6.298 0.307c-1.382 1.434-136.704 147.098-400.435 158.106a4.608 4.608 0 0 0-4.3 4.71 4.608 4.608 0 0 0 4.505 4.301h0.205z" fill="#9C9C9C" p-id="3659"></path></svg>