<?xml version="1.0" standalone="no"?><!DOCTYPE svg PUBLIC "-//W3C//DTD SVG 1.1//EN" "http://www.w3.org/Graphics/SVG/1.1/DTD/svg11.dtd"><svg t="1570344954102" class="icon" viewBox="0 0 1024 1024" version="1.1" xmlns="http://www.w3.org/2000/svg" p-id="1182" xmlns:xlink="http://www.w3.org/1999/xlink" width="200" height="200"><defs><style type="text/css"></style></defs><path d="M692.38 325.4a250.16 250.16 0 0 0-178.06-73.75h-4.65a251.81 251.81 0 0 0-251.8 251.81 326 326 0 0 0 30.62 138.69c17.45 37.45 41.85 72 72.53 102.65a382.55 382.55 0 0 0 37.71 33.08h226.54A382.58 382.58 0 0 0 663 744.8c30.68-30.67 55.09-65.2 72.54-102.65a326 326 0 0 0 30.62-138.69 250.16 250.16 0 0 0-73.78-178.06zM512 681.08a39.25 39.25 0 1 1 39.25-39.25A39.25 39.25 0 0 1 512 681.08z m40.5-230.62c-3.71 61.45-27.67 100.54-40.36 99.21-17.48-1.84-35.23-40.28-40.36-99.21-4.75-54.59 0.08-99.21 40.36-99.21 42.96 0 43.66 44.51 40.36 99.21z" fill="#F9DB91" p-id="1183"></path><path d="M394.92 777.88v54.37A115.13 115.13 0 0 0 509.67 947h4.66a115.13 115.13 0 0 0 114.75-114.75v-54.37H394.92z" fill="#EF6A6A" p-id="1184"></path><path d="M512.15 351.25c-40.28 0-45.1 44.62-40.36 99.21 5.12 58.93 22.88 97.37 40.36 99.21 12.69 1.33 36.65-37.76 40.36-99.21 3.29-54.7 2.59-99.21-40.36-99.21z" fill="#AEF0FF" p-id="1185"></path><path d="M512 641.83m-39.25 0a39.25 39.25 0 1 0 78.5 0 39.25 39.25 0 1 0-78.5 0Z" fill="#AEF0FF" p-id="1186"></path><path d="M514.32 238.65h-4.65c-146.25 0-264.81 118.56-264.81 264.81 0 126.57 67.48 221.06 137.05 277.67v51.12c0 70.26 57.49 127.75 127.75 127.75h4.66c70.26 0 127.75-57.49 127.75-127.75v-51.12C711.65 724.52 779.13 630 779.13 503.46c0-146.25-118.56-264.81-264.81-264.81z m101.76 593.6A102.13 102.13 0 0 1 514.33 934h-4.66a102.13 102.13 0 0 1-101.75-101.75v-41.37h208.16z m137.05-328.79a313.07 313.07 0 0 1-29.4 133.2c-16.81 36.07-40.34 69.36-69.94 98.95a369.93 369.93 0 0 1-33 29.28H403.21a369.78 369.78 0 0 1-33-29.28c-29.6-29.59-53.14-62.88-69.94-98.95a313.07 313.07 0 0 1-29.4-133.2 238.59 238.59 0 0 1 238.81-238.81h4.65a238.59 238.59 0 0 1 238.8 238.81z" fill="#512C56" p-id="1187"></path><path d="M455 863.94h114a13 13 0 0 0 0-26H455a13 13 0 0 0 0 26zM512 167.56a13 13 0 0 0 13-13V77a13 13 0 1 0-26 0v77.56a13 13 0 0 0 13 13zM282 262.84a13 13 0 0 0 9.19-22.19l-54.86-54.85a13 13 0 0 0-18.38 18.38L272.79 259a13 13 0 0 0 9.21 3.84zM186.71 466.85h-77.56a13 13 0 1 0 0 26h77.56a13 13 0 0 0 0-26zM914.85 466.85h-77.56a13 13 0 0 0 0 26h77.56a13 13 0 0 0 0-26zM787.66 185.8l-54.84 54.84A13 13 0 1 0 751.2 259l54.8-54.82a13 13 0 1 0-18.38-18.38zM512.15 338.25c-15.2 0-27.57 5.09-36.77 15.12-15.84 17.28-20.94 47.57-16.54 98.22 2.57 29.51 8.28 55.42 16.52 74.94 11.81 28 25.78 35.06 35.43 36.07a18.85 18.85 0 0 0 2 0.1c4.13 0 9.81-1.33 16.07-6.63 15.91-13.48 33.42-51.13 36.66-104.83 2.43-40.25 3-78.07-16.19-98.47-9.11-9.64-21.61-14.52-37.18-14.52z m27.38 111.43c-1.79 29.66-8.22 50.7-13.3 63.13-5.85 14.3-11.4 21-14.09 23.35-6.21-4-22.27-27.83-27.4-86.82-1.33-15.29-5.38-61.84 9.8-78.39 2.63-2.87 7.32-6.69 17.6-6.69 11 0 15.65 3.62 18.22 6.35 12.09 12.82 11.07 47.53 9.17 79.06zM512 589.58a52.25 52.25 0 1 0 52.25 52.25A52.31 52.31 0 0 0 512 589.58z m0 78.5a26.25 26.25 0 1 1 26.25-26.25A26.28 26.28 0 0 1 512 668.08z" fill="#512C56" p-id="1188"></path></svg>