<?xml version="1.0" encoding="utf-8"?>
<!-- Generator: Adobe Illustrator 22.1.0, SVG Export Plug-In . SVG Version: 6.00 Build 0)  -->
<svg version="1.1" id="图层_1" xmlns="http://www.w3.org/2000/svg" xmlns:xlink="http://www.w3.org/1999/xlink" x="0px" y="0px"
	 viewBox="0 0 200 200" style="enable-background:new 0 0 200 200;" xml:space="preserve">
<style type="text/css">
	.st0{fill:#FFB876;}
</style>
<path class="st0" d="M168.1,95.6c0-9.2-5.8-17.2-14.2-19.8c-3.2-1-6.6-1.2-10-1c-1.5,0.1-2.3,0.1-2.2-2.1c0.4-5.6,0.5-11.2,0.2-16.8
	c-0.8-18.5-13.7-34-31.9-38.8c-17.2-4.5-35.7,3.1-45.6,18.3c-7.9,12.2-6.9,25.6-6.2,39.4c-2.3,0-4.4-0.1-6.5,0
	c-11,0.3-19.7,9-19.8,20c-0.1,23-0.1,46,0,69.1c0.1,11.2,8.8,20.4,19.9,20.4c32.3,0.2,64.6,0.2,96.9,0c10.7-0.1,19.3-9.1,19.4-19.9
	C168.2,141.4,168.2,118.5,168.1,95.6L168.1,95.6z M110.6,130.1c-1.7,1.3-2.2,2.5-2.2,4.5c0.1,5,0.1,10.1,0,15.1
	c-0.1,5.8-3.4,9.3-8.6,9.2c-5-0.1-8.2-3.5-8.2-9.1c-0.1-2.9-0.1-5.9,0-8.8c0.2-5.1,0-9.5-4.6-13.6c-5-4.5-5.1-11.3-2.1-17.6
	c3-6.5,8.4-9.5,14.1-9.9c8.2,0.1,14.8,4.9,17.1,11.7C118.3,118.4,116.2,125.8,110.6,130.1L110.6,130.1z M122.2,74.8
	c-7.3-0.1-14.6-0.1-21.9-0.1c-7.4,0-14.9-0.2-22.3,0.1c-2.9,0.1-3.5-0.9-3.4-3.5c0.2-4.5,0-9,0.1-13.5c0.2-14,11.2-25.1,25.1-25.2
	c13.9-0.1,25.1,10.9,25.4,24.9c0.1,4.8-0.1,9.6,0.1,14.3C125.4,74.3,124.5,74.8,122.2,74.8L122.2,74.8z"/>
</svg>
