<?xml version="1.0" encoding="utf-8"?>
<!-- Generator: Adobe Illustrator 22.1.0, SVG Export Plug-In . SVG Version: 6.00 Build 0)  -->
<svg version="1.1" id="图层_1" xmlns="http://www.w3.org/2000/svg" xmlns:xlink="http://www.w3.org/1999/xlink" x="0px" y="0px"
	 viewBox="0 0 200 200" style="enable-background:new 0 0 200 200;" xml:space="preserve">
<style type="text/css">
	.st0{fill:#FFDB9C;}
</style>
<path class="st0" d="M146.1,104.3l-5.8-15c0-0.2,0.1-3.1,0.1-4.7c0-25.6-11.7-51.3-40.4-51.3S59.6,59.1,59.6,84.7
	c0,1.5,0.1,4.5,0.1,4.7l-5.8,15c-1.6,4.3-3.2,8.8-4.3,12.6c-5.5,18.2-3.7,25.8-2.4,26c2.9,0.4,11.3-13.7,11.3-13.7
	c0,8.2,4.1,18.8,12.8,26.5c-3.3,1.1-7.3,2.7-9.9,4.6c-2.3,1.8-2,3.6-1.6,4.3c1.8,3.2,31.6,2,40.2,1c8.6,1,38.3,2.2,40.2-1
	c0.4-0.7,0.7-2.5-1.6-4.3c-2.6-2-6.6-3.6-9.9-4.6c8.8-7.7,12.9-18.4,12.9-26.5c0,0,8.4,14.1,11.3,13.7c1.3-0.2,3.1-7.7-2.4-26
	C149.3,113,147.7,108.6,146.1,104.3z M154.6,172.8c-3.1,5.4-6.9,7.4-12,8.8c-2.2,0.6-4.4,0.9-6.6,1.1c-3.7,0.4-8.2,0.5-13.4,0.5
	c-7.5,0-15.1-0.3-22.6-1c-5.8,0.5-14.9,0.9-22.6,1c-4.5,0-9-0.1-13.5-0.5c-2.2-0.2-4.4-0.6-6.6-1.1c-5-1.4-8.9-3.4-12-8.8
	c-2.4-4.2-3.1-9.1-2-13.8c-4.9-1.1-8.3-4-10.7-7.6c-1.2-1.8-2-3.8-2.6-5.9c-0.7-3-1.1-6.1-1-9.2c0.1-6.5,1.6-14.7,4.4-24.3
	c1.2-3.9,2.7-8.4,4.7-13.8L43,86.4c0-0.6,0-1.1,0-1.7c0-38,20.3-68,57.1-68c36.8,0,57.1,30,57.1,68l0,1.7l4.6,11.9l0.1,0.2
	c1.9,5,3.4,9.6,4.6,13.6c2.9,9.6,4.4,17.7,4.5,24.3c0.1,3.4-0.3,6.5-1,9.2c-0.6,2-1.3,4-2.6,5.9c-2.3,3.6-5.7,6.5-10.6,7.6
	C157.7,163.7,157.1,168.6,154.6,172.8L154.6,172.8z"/>
</svg>
