<?xml version="1.0" encoding="utf-8"?>
<!-- Generator: Adobe Illustrator 22.1.0, SVG Export Plug-In . SVG Version: 6.00 Build 0)  -->
<svg version="1.1" id="图层_1" xmlns="http://www.w3.org/2000/svg" xmlns:xlink="http://www.w3.org/1999/xlink" x="0px" y="0px"
	 viewBox="0 0 200 200" style="enable-background:new 0 0 200 200;" xml:space="preserve">
<style type="text/css">
	.st0{fill:#FFB876;}
</style>
<path class="st0" d="M167.3,142c8.3-12.1,13.1-26.5,13.1-42c0-42.5-36-76.9-80.3-76.9S19.7,57.5,19.7,100s36,76.9,80.3,76.9
	c14.1,0,27.4-3.5,39-9.7l33.2,9.3c1.5,0.4,3-1,2.6-2.5L167.3,142z M72.1,107.7c-3.4,2-7.6,2-11,0c-3.4-2-5.5-5.6-5.5-9.5
	c0-5.3,3.8-9.9,9.1-10.8c5.2-0.9,10.4,2.1,12.2,7.1C78.8,99.4,76.7,105,72.1,107.7L72.1,107.7z M109.6,103.7
	c-2.5,4.3-7.5,6.4-12.3,5.1c-4.8-1.3-8.1-5.6-8.1-10.6H89c0-3.9,2.2-7.6,5.6-9.5c4.3-2.5,9.7-1.8,13.2,1.7
	C111.4,93.9,112.1,99.4,109.6,103.7L109.6,103.7z M142.9,103.6c-2.5,4.3-7.5,6.4-12.3,5.1c-4.8-1.3-8.1-5.6-8.1-10.5
	c0-3.9,2.1-7.5,5.5-9.5c4.3-2.5,9.7-1.8,13.2,1.7C144.6,93.9,145.4,99.3,142.9,103.6z"/>
</svg>
