<?xml version="1.0" encoding="utf-8"?>
<!-- Generator: Adobe Illustrator 22.1.0, SVG Export Plug-In . SVG Version: 6.00 Build 0)  -->
<svg version="1.1" id="图层_1" xmlns="http://www.w3.org/2000/svg" xmlns:xlink="http://www.w3.org/1999/xlink" x="0px" y="0px"
	 viewBox="0 0 200 200" style="enable-background:new 0 0 200 200;" xml:space="preserve">
<style type="text/css">
	.st0{fill:#ECB588;stroke:#EA9854;stroke-width:4;stroke-miterlimit:10;}
</style>
<path class="st0" d="M103.6,188.2c-2.2,0-4.3-0.9-5.8-2.5c0,0-19.2-19.8-26.6-27.6H42.1c-14.4,0-26.6-12.9-26.6-28.2V49.9
	C15.5,35,27.2,23,41.7,23h123.9c14.4,0,26.2,12,26.2,26.9v80.1c0,15.3-12.2,28.2-26.6,28.2h-29.9c-10.5,10.4-25.4,27.2-25.6,27.4
	C107.9,187.3,105.8,188.2,103.6,188.2z M41.7,34c-8.3,0-15.1,7.1-15.1,15.8v80.1c0,9.1,7.3,17.2,15.6,17.2H76l1.6,1.7
	c4.4,4.7,20.1,20.9,25.9,26.9c4.8-5.3,16.9-18.7,25.5-27.1l1.6-1.6h34.4c8.3,0,15.6-8,15.6-17.2V49.9c0-8.7-6.8-15.8-15.1-15.8H41.7
	z"/>
<path class="st0" d="M62.3,81.9c-5.7,0-10.3,4.8-10.3,10.7c0,5.9,4.6,10.7,10.3,10.7s10.3-4.8,10.3-10.7
	C72.6,86.7,68,81.9,62.3,81.9z M103.6,81.9c-5.7,0-10.3,4.8-10.3,10.7c0,5.9,4.6,10.7,10.3,10.7s10.3-4.8,10.3-10.7
	C113.9,86.7,109.3,81.9,103.6,81.9z M144.9,81.9c-5.7,0-10.3,4.8-10.3,10.7c0,5.9,4.6,10.7,10.3,10.7s10.3-4.8,10.3-10.7
	C155.2,86.7,150.6,81.9,144.9,81.9z"/>
</svg>
