<?xml version="1.0" standalone="no"?><!DOCTYPE svg PUBLIC "-//W3C//DTD SVG 1.1//EN" "http://www.w3.org/Graphics/SVG/1.1/DTD/svg11.dtd"><svg t="1570341678088" class="icon" viewBox="0 0 1024 1024" version="1.1" xmlns="http://www.w3.org/2000/svg" p-id="894" xmlns:xlink="http://www.w3.org/1999/xlink" width="200" height="200"><defs><style type="text/css"></style></defs><path d="M912.82 342.68A436.48 436.48 0 1 0 947 512a433.57 433.57 0 0 0-34.18-169.32zM752.54 745.77l-3.66 3.89a27.2 27.2 0 0 1-38.27 1.16L560.14 609.21a108.49 108.49 0 1 1-77.89-201.56V253.08A27.11 27.11 0 0 1 509.33 226h5.34a27.11 27.11 0 0 1 27.08 27.08v154.57A108.44 108.44 0 0 1 604.26 569l147.12 138.5a27.11 27.11 0 0 1 1.16 38.27z" fill="#F9DB91" p-id="895"></path><path d="M541.75 407.65V253.08A27.11 27.11 0 0 0 514.67 226h-5.34a27.11 27.11 0 0 0-27.08 27.08v154.57a108.78 108.78 0 0 1 59.5 0zM751.38 707.5L604.26 569a109.25 109.25 0 0 1-44.12 40.18L710.6 750.82a27.2 27.2 0 0 0 38.27-1.16l3.66-3.89a27.11 27.11 0 0 0-1.15-38.27z" fill="#EF6A6A" p-id="896"></path><path d="M604.26 569a108.49 108.49 0 1 0-44.12 40.18A109.25 109.25 0 0 0 604.26 569z" fill="#AEF0FF" p-id="897"></path><path d="M512 64C264.58 64 64 264.58 64 512s200.58 448 448 448 448-200.58 448-448S759.42 64 512 64z m298.4 746.4A420.46 420.46 0 0 1 525 933.8V896a13 13 0 0 0-26 0v37.8A421.56 421.56 0 0 1 90.2 525H128a13 13 0 0 0 0-26H90.2A421.56 421.56 0 0 1 499 90.2V128a13 13 0 0 0 26 0V90.2A421.56 421.56 0 0 1 933.8 499H896a13 13 0 0 0 0 26h37.8a420.46 420.46 0 0 1-123.4 285.4z" fill="#512C56" p-id="898"></path><path d="M760.29 698L620.58 566.54a121.57 121.57 0 0 0-65.84-168.29V253.08A40.19 40.19 0 0 0 514.67 213h-5.34a40.19 40.19 0 0 0-40.08 40.08v145.17a121.52 121.52 0 1 0 88.32 226.4l144.12 135.64a40.19 40.19 0 0 0 56.65-1.72l3.66-3.89a40.19 40.19 0 0 0-1.71-56.68z m-265-445a14.26 14.26 0 0 1 14.04-14h5.34a14.26 14.26 0 0 1 14.08 14.08v138.58a122.06 122.06 0 0 0-33.5 0z m-78.78 259A95.49 95.49 0 1 1 512 607.49 95.6 95.6 0 0 1 416.51 512z m326.56 224.86l-3.66 3.89a14.19 14.19 0 0 1-19.9 0.6L581.62 611.57a122.18 122.18 0 0 0 24.59-22.86L742.47 717a14.26 14.26 0 0 1 0.6 19.86z" fill="#512C56" p-id="899"></path></svg>