<?xml version="1.0" encoding="utf-8"?>
<!-- Generator: Adobe Illustrator 22.1.0, SVG Export Plug-In . SVG Version: 6.00 Build 0)  -->
<svg version="1.1" id="图层_1" xmlns="http://www.w3.org/2000/svg" xmlns:xlink="http://www.w3.org/1999/xlink" x="0px" y="0px"
	 viewBox="0 0 200 200" style="enable-background:new 0 0 200 200;" xml:space="preserve">
<style type="text/css">
	.st0{fill:#FFB876;}
</style>
<path class="st0" d="M96.8,23c-46.5,0-84.2,37.7-84.2,84.2s37.7,84.2,84.2,84.2s84.2-37.7,84.2-84.2S143.3,23,96.8,23z M127.3,138
	c-0.3,0-0.7,0-1,0h-25.6v-21.5l5.3,5.3c1.2,1.2,3.3,1.2,4.5,0c1.2-1.2,1.2-3.3,0-4.5l-11-11c-0.1-0.1-0.2-0.3-0.3-0.4
	c-0.6-0.6-1.5-0.9-2.3-0.9c-0.8,0-1.7,0.3-2.3,0.9c-0.1,0.1-0.2,0.3-0.3,0.4l-11,11c-1.2,1.2-1.2,3.3,0,4.5c1.2,1.2,3.3,1.2,4.5,0
	l5.3-5.3V138H70.3c-0.3,0-0.6,0-0.9,0c-0.3,0-0.7,0-1.1,0c-14.1,0-25.4-11.4-25.4-25.5S54.3,87,68.3,87c1.6,0,3.2,0.1,4.7,0.4
	c0-0.1,0-0.2,0-0.2c0-15.2,12.3-27.6,27.5-27.6s27.5,12.4,27.5,27.6c0,0.5,0,1.1,0,1.6c12.7,1,22.8,11.6,22.8,24.6
	C150.8,126.6,140.4,137.4,127.3,138L127.3,138z"/>
</svg>
