<?xml version="1.0" encoding="utf-8"?>
<!-- Generator: Adobe Illustrator 22.1.0, SVG Export Plug-In . SVG Version: 6.00 Build 0)  -->
<svg version="1.1" id="图层_1" xmlns="http://www.w3.org/2000/svg" xmlns:xlink="http://www.w3.org/1999/xlink" x="0px" y="0px"
	 viewBox="0 0 200 200" style="enable-background:new 0 0 200 200;" xml:space="preserve">
<style type="text/css">
	.st0{fill:#71C2FF;}
</style>
<path class="st0" d="M102.9,149.7l-14.1,8.9L71,130.7c-3.7,11.7-9.8,22.2-17.8,31.9c-3.4,4-6.8,7.6-10.8,11.5
	c-1.3,1.2-6.5,6-7.3,6.8l-11.8-11.8c1.2-1.2,6.6-6.1,7.6-7.1c3.6-3.4,6.6-6.6,9.5-10.1c10.5-12.6,16.9-26.8,17.8-43.6H25V91.7h33.3
	V58.3h-7.2c-5.7,10.5-13,18.5-21.8,23.8l-8.6-14.3c11.6-7,20.2-21.7,25.3-44.7l16.3,3.6c-1.2,5.3-2.5,10.2-4.1,14.9h37.6v16.7H75
	v33.3h20.8v16.7H76.5L102.9,149.7L102.9,149.7z M134.9,149.1l9.3-7.4h14.2V58.3H125v83.3h6.1L134.9,149.1z M108.3,41.7H175v116.7
	h-25L129.2,175l-8.3-16.7h-12.5V41.7z"/>
</svg>
