<?xml version="1.0" standalone="no"?><!DOCTYPE svg PUBLIC "-//W3C//DTD SVG 1.1//EN" "http://www.w3.org/Graphics/SVG/1.1/DTD/svg11.dtd"><svg t="1576577514172" class="icon" viewBox="0 0 1024 1024" version="1.1" xmlns="http://www.w3.org/2000/svg" p-id="1313" xmlns:xlink="http://www.w3.org/1999/xlink" width="200" height="200"><defs><style type="text/css"></style></defs><path d="M184 184v656h656V520a8 8 0 0 1 8-8h56a8 8 0 0 1 8 8v360c0 17.673-14.327 32-32 32H144c-17.673 0-32-14.327-32-32V144c0-17.673 14.327-32 32-32h360a8 8 0 0 1 8 8v56a8 8 0 0 1-8 8H184z m683.103-66.7l39.598 39.597a8 8 0 0 1 0 11.314l-486.49 486.49a8 8 0 0 1-11.314 0L369.3 615.103a8 8 0 0 1 0-11.314l486.49-486.49a8 8 0 0 1 11.314 0z" fill="#5090F1" p-id="1314"></path></svg>