<?xml version="1.0" standalone="no"?><!DOCTYPE svg PUBLIC "-//W3C//DTD SVG 1.1//EN" "http://www.w3.org/Graphics/SVG/1.1/DTD/svg11.dtd"><svg t="1576578415413" class="icon" viewBox="0 0 1024 1024" version="1.1" xmlns="http://www.w3.org/2000/svg" p-id="1446" xmlns:xlink="http://www.w3.org/1999/xlink" width="200" height="200"><defs><style type="text/css"></style></defs><path d="M696 918.429l-24 13.856c-15.305 8.837-34.876 3.594-43.712-11.711A32 32 0 0 1 624 904.573V72a8 8 0 0 1 8-8h56a8 8 0 0 1 8 8v763.289l184.003-106.24a16 16 0 0 1 16 0l51.998 30.023a8 8 0 0 1 0 13.856L696 918.428zM328 105.57l24-13.856c15.305-8.837 34.876-3.594 43.712 11.711A32 32 0 0 1 400 119.427V952a8 8 0 0 1-8 8h-56a8 8 0 0 1-8-8V188.711l-184.003 106.24a16 16 0 0 1-16 0l-51.998-30.023a8 8 0 0 1 0-13.856L328 105.572z" fill="#5090F1" p-id="1447"></path></svg>