<svg xmlns="http://www.w3.org/2000/svg" viewBox="0 0 182.3 222.81"><defs><style>.cls-1{fill:#fef0f0;}.cls-2{fill:#85676f;}.cls-3{fill:#f5f5f9;}.cls-4{fill:#874b5a;}.cls-5{fill:#936b74;}.cls-10,.cls-6{fill:none;stroke-linecap:round;}.cls-6{stroke:#fff;stroke-miterlimit:10;stroke-width:3px;}.cls-7{fill:#e5aebb;}.cls-8{fill:#e1b9b4;}.cls-9{fill:#fff;}.cls-10{stroke:#000;stroke-linejoin:round;stroke-width:0.5px;}</style></defs><title>资源 8</title><g id="图层_2" data-name="图层 2"><g id="图层_2-2" data-name="图层 2"><path class="cls-1" d="M9.13,109.64l-1.46.12a17.27,17.27,0,0,1-3.18-5.33,35.13,35.13,0,0,1-.69-3.82c-.26-1.42-.71-2.81-.9-4.25a12.24,12.24,0,0,1,2.41-9l1.64-1c.12.23.26.47.39.71.26.46.53.92.82,1.37.26,5.49.48,11.77.74,17.25C9,107,9,108.32,9.13,109.64Z"/><path class="cls-1" d="M118.45,81.12c1.29,6.4-2,12.72-3.21,19.12-.82,4.35-.68,8.86-1.83,13.12a38.32,38.32,0,0,1-3,7.21c-2.37,4.72-3.49,10.4-6.58,14.37a12.31,12.31,0,0,1-3.29,3c-7.52,4.55-15.5,9.64-23.73,12.8a63.12,63.12,0,0,1-25.16,3.63C45.29,154,41,150.08,35.56,147a49,49,0,0,1-4.77-3c-4.66-3.47-8-8.32-11.77-12.63-4-4.55-7.52-9.68-9-15.63a35.8,35.8,0,0,1-.9-6.09c-.11-1.32-.17-2.64-.23-4-.26-5.48-.48-11.76-.74-17.25-.29-.45-.56-.91-.82-1.37L9.79,87c-1.55-14.6-3-30,3.05-43.4a26.43,26.43,0,0,1,4.1-6.63,34.52,34.52,0,0,1,5.6-4.85C29,27.31,35.75,23,42.49,18.67A35.29,35.29,0,0,1,48,15.61c3.88-1.57,8.18-1.67,12.38-1.74a40,40,0,0,0-7.3,29.93,21.52,21.52,0,0,1,6.45.41c.63-9.19,1.63-19.24,8.1-25.8a84.15,84.15,0,0,0-.47,27.38C72.45,47.1,78,50.1,82.82,52.55c-.24-6.8-.31-14.18,3.76-19.63a31.51,31.51,0,0,0,3.11,20c.3-8.91.68-18.14,4.7-26.09A96.9,96.9,0,0,0,99.81,57a52.1,52.1,0,0,1,2.45-15.17c-.5,6.12,0,12.44,2.42,18.09s6.86,10.59,12.62,12.7l1.26,0A22.39,22.39,0,0,0,118.45,81.12Zm-16.1,13.71c3.14-4.62,2.76-10.75,1.56-16.2-.9-4-2.24-8.13-4.94-11.28s-7-5.18-11-4.2c-3.88.94-6.63,4.32-8.83,7.66-5.64,8.59-9.53,21-1,29.35,3.66,3.57,9.39,5,14.13,3.14a22.25,22.25,0,0,0,6.47-4.53A22.79,22.79,0,0,0,102.35,94.83ZM79.64,124.56c.33-3.21-1.46-6.37-4-8.4a22.42,22.42,0,0,0-8.79-3.89,62.73,62.73,0,0,0-15.31-1.87c-3.31,0-9.16-.15-13.56,1.32a8.46,8.46,0,0,0-5.5,7.14,14,14,0,0,0,1.07,6.77A31.1,31.1,0,0,0,39,134.87a1.21,1.21,0,0,0,0,.37c.07,1.85,3.38,3.68,4.85,4.43,4.37,2.26,9.56,2,14.47,1.6a21.84,21.84,0,0,0,5.21-.81,18.61,18.61,0,0,0,5-2.73,58.93,58.93,0,0,0,6.22-5.14l.44-.42C77.33,130.05,79.34,127.55,79.64,124.56ZM44.45,87.74a38.15,38.15,0,0,0,1-25c-1-3.15-2.56-6.41-5.5-7.88a10.48,10.48,0,0,0-6.8-.59,14.66,14.66,0,0,0-5.11,2c-3.22,2.1-5.13,5.53-6.39,9-1.93,5.39-4.49,13-3.83,18.77,1,8.23,5.72,11.66,13.69,11.05,4.16-.33,8.81-1,11.35-4.29A12.78,12.78,0,0,0,44.45,87.74Z"/><path class="cls-2" d="M151.71,119.42l1.8.09c2.25,10,9.88,17.81,16.11,26a112.47,112.47,0,0,1,7.51,11.18,27.81,27.81,0,0,1,3,6.41,25.1,25.1,0,0,1,.68,7.64A54.45,54.45,0,0,1,178.85,183c-1.51-8.18-3.21-16.68-8.27-23.28-2.47-3.22-5.64-5.83-8.45-8.77s-5.33-6.38-6-10.38a62.54,62.54,0,0,0,9.53,24.27,15.94,15.94,0,0,0-7.48-3.26c-4.25-2.91-7.3-7.32-9.85-11.82-1.78-3.16-3.36-6.42-5.19-9.54s-3.2-4.67-3.29-8.46c-.14-6.12,0-12.55-2.34-18.29a11.25,11.25,0,0,0,.44-2.94,3.6,3.6,0,0,0-1.17-3.11,3.42,3.42,0,0,0-1.94-.51l0-1.22a46.92,46.92,0,0,0,5.64-7.3c4.69-7.53,7.12-16.21,9.5-24.76l.36,0A288.5,288.5,0,0,1,151.71,119.42Z"/><path class="cls-2" d="M148.3,149.78c2.55,4.5,5.6,8.91,9.85,11.82-5.09-.91-10.65-.1-15.69-.39-3.68-.2-7.58-.49-10.56-2.66-2.57-1.88-4-4.89-5.22-7.84a76.27,76.27,0,0,1-4.79-18.49l.93-1.15a18,18,0,0,0,4.3-3.92c2.29-2.49,4.87-4.73,7-7.38a18,18,0,0,0,3.38-6.28c2.38,5.74,2.2,12.17,2.34,18.29.09,3.79,1.4,5.23,3.29,8.46S146.52,146.62,148.3,149.78Z"/><path class="cls-2" d="M126.27,107q-2.68,11.19-6.13,22.17c-8.9,28.33-21.65,55.71-25.81,85.1A42.89,42.89,0,0,1,93,197.39a43.38,43.38,0,0,0-1.61,23.91c-3.53,0-7.69-.36-9.55-3.36a9.6,9.6,0,0,1-1.11-4.52c-1.06-17.32,6.91-33.73,14.12-49.52q2.9-6.35,5.67-12.77c2.2-5.1,4.39-10.57,3.58-16.07l-.17-.12c3.09-4,4.21-9.65,6.58-14.37a38.32,38.32,0,0,0,3-7.21c1.15-4.26,1-8.77,1.83-13.12,1.2-6.4,4.5-12.72,3.21-19.12a22.39,22.39,0,0,1,.11-8.48c1-5.66,3.36-11.28,3.51-17.16.34-13.21-.78-27.23-8.37-38A30.69,30.69,0,0,0,100.4,6.74L101.08,5l8.4,3.26a51.69,51.69,0,0,1,10.6,5.08,45.17,45.17,0,0,1,9.22,9.1q5.37,6.62,10.11,13.7A55.49,55.49,0,0,1,145.84,48a58.71,58.71,0,0,1,2.41,10.33c.83,5.06,1.54,10.14,2.09,15.24l-.36,0c-2.38,8.55-4.81,17.23-9.5,24.76a46.92,46.92,0,0,1-5.64,7.3l0,1.22h-.63l-7.71.08Z"/><path class="cls-2" d="M113.7,17.43c7.59,10.82,8.71,24.84,8.37,38.05-.15,5.88-2.49,11.5-3.51,17.16l-1.26,0c-5.76-2.11-10.22-7.05-12.62-12.7s-2.92-12-2.42-18.09A52.1,52.1,0,0,0,99.81,57a96.9,96.9,0,0,1-5.42-30.12c-4,8-4.4,17.18-4.7,26.09a31.51,31.51,0,0,1-3.11-20c-4.07,5.45-4,12.83-3.76,19.63C78,50.1,72.45,47.1,67.15,45.79a84.15,84.15,0,0,1,.47-27.38C61.15,25,60.15,35,59.52,44.21a21.52,21.52,0,0,0-6.45-.41,40,40,0,0,1,7.3-29.93c-4.2.07-8.5.17-12.38,1.74a35.29,35.29,0,0,0-5.5,3.06C35.75,23,29,27.31,22.54,32.08a34.52,34.52,0,0,0-5.6,4.85,26.43,26.43,0,0,0-4.1,6.63C6.81,57,8.24,72.36,9.79,87l-2.45.09c-.13-.24-.27-.48-.39-.71A60.9,60.9,0,0,1,3.2,76.58C2.61,74.75,4,72.7,3,71.1a8.59,8.59,0,0,1-1.34-3.44,17.4,17.4,0,0,1,0-4.08q.52-6,1.07-12c.26-2.88.77-6.65,2.06-9.24A55.82,55.82,0,0,1,10.59,33C14.1,28.46,18,25.3,22.18,21.32A97.73,97.73,0,0,1,42.26,6.53C53.88.09,67.57,1.23,80.8,2.45c7,.64,13.73,1.77,19.6,4.29A30.69,30.69,0,0,1,113.7,17.43Z"/><path class="cls-3" d="M103.91,78.63c1.2,5.45,1.58,11.58-1.56,16.2a22.79,22.79,0,0,1-3.67,3.94,22.25,22.25,0,0,1-6.47,4.53c-4.74,1.9-10.47.43-14.13-3.14-8.52-8.32-4.63-20.76,1-29.35,2.2-3.34,5-6.72,8.83-7.66,4-1,8.34,1.06,11,4.2S103,74.58,103.91,78.63Zm-12.46,7A16,16,0,0,0,92.56,80a11.38,11.38,0,0,0-3.83-8.31,2.87,2.87,0,0,0-1.82-.89,3,3,0,0,0-1.15.33c-6.89,3.17-8.69,15-4.14,20.82a3.52,3.52,0,0,0,1,1,3.3,3.3,0,0,0,2.7,0C88.41,91.73,90.32,88.7,91.45,85.64Z"/><path class="cls-4" d="M92.56,80a16,16,0,0,1-1.11,5.68c-1.13,3.06-3,6.09-6.08,7.21a3.3,3.3,0,0,1-2.7,0,3.52,3.52,0,0,1-1-1c-4.55-5.78-2.75-17.65,4.14-20.82a3,3,0,0,1,1.15-.33,2.87,2.87,0,0,1,1.82.89A11.38,11.38,0,0,1,92.56,80Z"/><path class="cls-5" d="M75.67,116.16c2.51,2,4.3,5.19,4,8.4-.3,3-2.31,5.49-4.48,7.61l-1-1.06c-1.6-3.22-3.43-6.68-6.69-8.19-2.19-1-4.69-1-7.11-1-4.18.07-8.6.21-12.16,2.39A20.51,20.51,0,0,0,43.39,129c-1,1.21-4,4.13-4.37,5.92a31.1,31.1,0,0,1-5.44-9.24,14,14,0,0,1-1.07-6.77,8.46,8.46,0,0,1,5.5-7.14c4.4-1.47,10.25-1.31,13.56-1.32a62.73,62.73,0,0,1,15.31,1.87A22.42,22.42,0,0,1,75.67,116.16Z"/><path class="cls-3" d="M45.43,62.72a38.15,38.15,0,0,1-1,25,12.78,12.78,0,0,1-1.61,3.09c-2.54,3.31-7.19,4-11.35,4.29-8,.61-12.73-2.82-13.69-11.05-.66-5.76,1.9-13.38,3.83-18.77,1.26-3.52,3.17-6.95,6.39-9a14.66,14.66,0,0,1,5.11-2,10.48,10.48,0,0,1,6.8.59C42.87,56.31,44.47,59.57,45.43,62.72Zm-2,13.35A15.36,15.36,0,0,0,40,65.28a2.71,2.71,0,0,0-1.59-1.06,3.08,3.08,0,0,0-1.42.3,15.34,15.34,0,0,0-5.4,3c-3.68,3.69-4.09,14.51-1.16,18.9,1.53,2.29,6.2,3.18,8.56,1.81C42,86.47,43.25,79.27,43.41,76.07Z"/><path class="cls-4" d="M40,65.28a15.36,15.36,0,0,1,3.43,10.79C43.25,79.27,42,86.47,39,88.25c-2.36,1.37-7,.48-8.56-1.81-2.93-4.39-2.52-15.21,1.16-18.9a15.34,15.34,0,0,1,5.4-3,3.08,3.08,0,0,1,1.42-.3A2.71,2.71,0,0,1,40,65.28Z"/><path class="cls-6" d="M100.4,6.74a30.69,30.69,0,0,1,13.3,10.69c7.59,10.82,8.71,24.84,8.37,38.05-.15,5.88-2.49,11.5-3.51,17.16a22.39,22.39,0,0,0-.11,8.48c1.29,6.4-2,12.72-3.21,19.12-.82,4.35-.68,8.86-1.83,13.12a38.32,38.32,0,0,1-3,7.21c-2.37,4.72-3.49,10.4-6.58,14.37a12.31,12.31,0,0,1-3.29,3c-7.52,4.55-15.5,9.64-23.73,12.8a63.12,63.12,0,0,1-25.16,3.63C45.29,154,41,150.08,35.56,147a49,49,0,0,1-4.77-3c-4.66-3.47-8-8.32-11.77-12.63-4-4.55-7.52-9.68-9-15.63a35.8,35.8,0,0,1-.9-6.09c-.11-1.32-.17-2.64-.23-4-.26-5.48-.48-11.76-.74-17.25-.29-.45-.56-.91-.82-1.37-.13-.24-.27-.48-.39-.71A60.9,60.9,0,0,1,3.2,76.58C2.61,74.75,4,72.7,3,71.1a8.59,8.59,0,0,1-1.34-3.44,17.4,17.4,0,0,1,0-4.08q.52-6,1.07-12c.26-2.88.77-6.65,2.06-9.24A55.82,55.82,0,0,1,10.59,33C14.1,28.46,18,25.3,22.18,21.32A97.73,97.73,0,0,1,42.26,6.53C53.88.09,67.57,1.23,80.8,2.45,87.84,3.09,94.53,4.22,100.4,6.74Z"/><path class="cls-6" d="M9.79,87c-1.55-14.6-3-30,3.05-43.4a26.43,26.43,0,0,1,4.1-6.63,34.52,34.52,0,0,1,5.6-4.85C29,27.31,35.75,23,42.49,18.67A35.29,35.29,0,0,1,48,15.61c3.88-1.57,8.18-1.67,12.38-1.74a40,40,0,0,0-7.3,29.93,21.52,21.52,0,0,1,6.45.41c.63-9.19,1.63-19.24,8.1-25.8a84.15,84.15,0,0,0-.47,27.38C72.45,47.1,78,50.1,82.82,52.55c-.24-6.8-.31-14.18,3.76-19.63a31.51,31.51,0,0,0,3.11,20c.3-8.91.68-18.14,4.7-26.09A96.9,96.9,0,0,0,99.81,57a52.1,52.1,0,0,1,2.45-15.17c-.5,6.12,0,12.44,2.42,18.09s6.86,10.59,12.62,12.7"/><path class="cls-6" d="M28,56.25a14.66,14.66,0,0,1,5.11-2,10.48,10.48,0,0,1,6.8.59c2.94,1.47,4.54,4.73,5.5,7.88a38.15,38.15,0,0,1-1,25,12.78,12.78,0,0,1-1.61,3.09c-2.54,3.31-7.19,4-11.35,4.29-8,.61-12.73-2.82-13.69-11.05-.66-5.76,1.9-13.38,3.83-18.77C22.89,61.78,24.8,58.35,28,56.25Z"/><path class="cls-6" d="M79.09,70.81c2.2-3.34,5-6.72,8.83-7.66,4-1,8.34,1.06,11,4.2s4,7.23,4.94,11.28c1.2,5.45,1.58,11.58-1.56,16.2a22.79,22.79,0,0,1-3.67,3.94,22.25,22.25,0,0,1-6.47,4.53c-4.74,1.9-10.47.43-14.13-3.14C69.56,91.84,73.45,79.4,79.09,70.81Z"/><path class="cls-6" d="M31.57,67.54a15.34,15.34,0,0,1,5.4-3,3.08,3.08,0,0,1,1.42-.3A2.71,2.71,0,0,1,40,65.28a15.36,15.36,0,0,1,3.43,10.79C43.25,79.27,42,86.47,39,88.25c-2.36,1.37-7,.48-8.56-1.81C27.48,82.05,27.89,71.23,31.57,67.54Z"/><path class="cls-6" d="M85.76,71.09a3,3,0,0,1,1.15-.33,2.87,2.87,0,0,1,1.82.89A11.38,11.38,0,0,1,92.56,80a16,16,0,0,1-1.11,5.68c-1.13,3.06-3,6.09-6.08,7.21a3.3,3.3,0,0,1-2.7,0,3.52,3.52,0,0,1-1-1C77.07,86.13,78.87,74.26,85.76,71.09Z"/><path class="cls-6" d="M74.2,131.11c-1.6-3.22-3.43-6.68-6.69-8.19-2.19-1-4.69-1-7.11-1-4.18.07-8.6.21-12.16,2.39A20.51,20.51,0,0,0,43.39,129c-1,1.21-4,4.13-4.37,5.92a1.21,1.21,0,0,0,0,.37c.07,1.85,3.38,3.68,4.85,4.43,4.37,2.26,9.56,2,14.47,1.6a21.84,21.84,0,0,0,5.21-.81,18.61,18.61,0,0,0,5-2.73,58.93,58.93,0,0,0,6.22-5.14l.44-.42c2.17-2.12,4.18-4.62,4.48-7.61.33-3.21-1.46-6.37-4-8.4a22.42,22.42,0,0,0-8.79-3.89,62.73,62.73,0,0,0-15.31-1.87c-3.31,0-9.16-.15-13.56,1.32a8.46,8.46,0,0,0-5.5,7.14,14,14,0,0,0,1.07,6.77A31.1,31.1,0,0,0,39,134.87c.18.22.36.44.55.65"/><path class="cls-6" d="M100.53,4.78l.55.21,8.4,3.26a51.69,51.69,0,0,1,10.6,5.08,45.17,45.17,0,0,1,9.22,9.1q5.37,6.62,10.11,13.7A55.49,55.49,0,0,1,145.84,48a58.71,58.71,0,0,1,2.41,10.33c.83,5.06,1.54,10.14,2.09,15.24a288.5,288.5,0,0,1,1.37,45.81c-.18,3.59-.42,7.19-.74,10.77"/><path class="cls-6" d="M104.05,135.06c.81,5.5-1.38,11-3.58,16.07q-2.79,6.42-5.67,12.77c-7.21,15.79-15.18,32.2-14.12,49.52a9.6,9.6,0,0,0,1.11,4.52c1.86,3,6,3.34,9.55,3.36A43.38,43.38,0,0,1,93,197.39a42.89,42.89,0,0,0,1.38,16.83c4.16-29.39,16.91-56.77,25.81-85.1q3.45-11,6.13-22.17A334,334,0,0,0,134.89,49"/><path class="cls-6" d="M117.22,16.68c9.13,15,11.1,33.23,11.24,50.78,0,3.68-.12,7.68-2.48,10.49a35.27,35.27,0,0,0-3.12-18.3"/><path class="cls-6" d="M143.78,46.65c-.5,2.59-.07,5.26-.12,7.9a21.52,21.52,0,0,1-4,12"/><path class="cls-6" d="M150,73.65c-2.38,8.55-4.81,17.23-9.5,24.76a46.92,46.92,0,0,1-5.64,7.3"/><path class="cls-6" d="M121.89,132.22a76.27,76.27,0,0,0,4.79,18.49c1.19,2.95,2.65,6,5.22,7.84,3,2.17,6.88,2.46,10.56,2.66,5,.29,10.6-.52,15.69.39a15.94,15.94,0,0,1,7.48,3.26,62.54,62.54,0,0,1-9.53-24.27c.7,4,3.22,7.44,6,10.38s6,5.55,8.45,8.77c5.06,6.6,6.76,15.1,8.27,23.28a54.45,54.45,0,0,0,1.92-12.29,25.1,25.1,0,0,0-.68-7.64,27.81,27.81,0,0,0-3-6.41,112.47,112.47,0,0,0-7.51-11.18c-6.23-8.18-13.86-15.95-16.11-26"/><path class="cls-6" d="M136.76,111.92c.26.52.5,1,.72,1.57,2.38,5.74,2.2,12.17,2.34,18.29.09,3.79,1.4,5.23,3.29,8.46s3.41,6.38,5.19,9.54c2.55,4.5,5.6,8.91,9.85,11.82.22.17.44.31.67.46"/><path class="cls-6" d="M122.82,131.07a18,18,0,0,0,4.3-3.92c2.29-2.49,4.87-4.73,7-7.38a18,18,0,0,0,3.38-6.28,11.25,11.25,0,0,0,.44-2.94,3.6,3.6,0,0,0-1.17-3.11,3.42,3.42,0,0,0-1.94-.51h-.63l-7.71.08"/><path class="cls-6" d="M5.31,87.35a12.24,12.24,0,0,0-2.41,9c.19,1.44.64,2.83.9,4.25a35.13,35.13,0,0,0,.69,3.82,17.27,17.27,0,0,0,3.18,5.33"/><path class="cls-7" d="M33.92,76.05c-.47.17-.8-.47-.87-1a24.06,24.06,0,0,1-.28-3.5,3.2,3.2,0,0,1,.44-1.93c.67-.92,2-.93,3.14-.85a1.11,1.11,0,0,1,.79.25,1.13,1.13,0,0,1,.26.6,15.13,15.13,0,0,1,.29,3.22A4.44,4.44,0,0,1,37,75.45a1.91,1.91,0,0,1-2.36.71l-.72-1"/><path class="cls-7" d="M81.36,76.74l1.1,3.79c.2.7.49,1.5,1.19,1.72s1.49-.35,2-.92a7,7,0,0,0,2.15-3.94,4.24,4.24,0,0,0-.46-2.32,3.06,3.06,0,0,0-3.68-1.6c-1.31.58-1.77,2.16-2.07,3.56l-.5,2.27"/><path class="cls-8" d="M39.84,132.05a23.22,23.22,0,0,1,15.65-9.87,47.44,47.44,0,0,1,5.84-.36c2,0,4.08,0,5.82.92a10.12,10.12,0,0,1,2.95,2.81A53.69,53.69,0,0,1,73.27,130a3.26,3.26,0,0,1,.7,2.69A3.09,3.09,0,0,1,72.82,134c-6.41,4.88-14.83,6.46-22.88,6.11a18,18,0,0,1-6.47-1.23A8.58,8.58,0,0,1,40,136.13C38.84,134.55,38.75,133.68,39.84,132.05Z"/><path class="cls-9" d="M70.19,114.26a16.12,16.12,0,0,1-9.32,3.9,33.39,33.39,0,0,1-10.2-.82,27.57,27.57,0,0,1-5.36-1.6,17,17,0,0,1-5.77-4.18,42.82,42.82,0,0,1,19.32-1.06c1.88.34,3.74.82,5.6,1.29l4.21,1.07a2,2,0,0,1,1.29.69C70.24,114,70.69,114.29,70.19,114.26Z"/><path class="cls-10" d="M9.13,109.64l-1.46.12a17.27,17.27,0,0,1-3.18-5.33,35.13,35.13,0,0,1-.69-3.82c-.26-1.42-.71-2.81-.9-4.25a12.24,12.24,0,0,1,2.41-9l1.64-1c.12.23.26.47.39.71.26.46.53.92.82,1.37.26,5.49.48,11.77.74,17.25C9,107,9,108.32,9.13,109.64Z"/><path class="cls-10" d="M118.45,81.12c1.29,6.4-2,12.72-3.21,19.12-.82,4.35-.68,8.86-1.83,13.12a38.32,38.32,0,0,1-3,7.21c-2.37,4.72-3.49,10.4-6.58,14.37a12.31,12.31,0,0,1-3.29,3c-7.52,4.55-15.5,9.64-23.73,12.8a63.12,63.12,0,0,1-25.16,3.63C45.29,154,41,150.08,35.56,147a49,49,0,0,1-4.77-3c-4.66-3.47-8-8.32-11.77-12.63-4-4.55-7.52-9.68-9-15.63a35.8,35.8,0,0,1-.9-6.09c-.11-1.32-.17-2.64-.23-4-.26-5.48-.48-11.76-.74-17.25-.29-.45-.56-.91-.82-1.37L9.79,87c-1.55-14.6-3-30,3.05-43.4a26.43,26.43,0,0,1,4.1-6.63,34.52,34.52,0,0,1,5.6-4.85C29,27.31,35.75,23,42.49,18.67A35.29,35.29,0,0,1,48,15.61c3.88-1.57,8.18-1.67,12.38-1.74a40,40,0,0,0-7.3,29.93,21.52,21.52,0,0,1,6.45.41c.63-9.19,1.63-19.24,8.1-25.8a84.15,84.15,0,0,0-.47,27.38C72.45,47.1,78,50.1,82.82,52.55c-.24-6.8-.31-14.18,3.76-19.63a31.51,31.51,0,0,0,3.11,20c.3-8.91.68-18.14,4.7-26.09A96.9,96.9,0,0,0,99.81,57a52.1,52.1,0,0,1,2.45-15.17c-.5,6.12,0,12.44,2.42,18.09s6.86,10.59,12.62,12.7l1.26,0A22.39,22.39,0,0,0,118.45,81.12Zm-16.1,13.71c3.14-4.62,2.76-10.75,1.56-16.2-.9-4-2.24-8.13-4.94-11.28s-7-5.18-11-4.2c-3.88.94-6.63,4.32-8.83,7.66-5.64,8.59-9.53,21-1,29.35,3.66,3.57,9.39,5,14.13,3.14a22.25,22.25,0,0,0,6.47-4.53A22.79,22.79,0,0,0,102.35,94.83ZM79.64,124.56c.33-3.21-1.46-6.37-4-8.4a22.42,22.42,0,0,0-8.79-3.89,62.73,62.73,0,0,0-15.31-1.87c-3.31,0-9.16-.15-13.56,1.32a8.46,8.46,0,0,0-5.5,7.14,14,14,0,0,0,1.07,6.77A31.1,31.1,0,0,0,39,134.87a1.21,1.21,0,0,0,0,.37c.07,1.85,3.38,3.68,4.85,4.43,4.37,2.26,9.56,2,14.47,1.6a21.84,21.84,0,0,0,5.21-.81,18.61,18.61,0,0,0,5-2.73,58.93,58.93,0,0,0,6.22-5.14l.44-.42C77.33,130.05,79.34,127.55,79.64,124.56ZM44.45,87.74a38.15,38.15,0,0,0,1-25c-1-3.15-2.56-6.41-5.5-7.88a10.48,10.48,0,0,0-6.8-.59,14.66,14.66,0,0,0-5.11,2c-3.22,2.1-5.13,5.53-6.39,9-1.93,5.39-4.49,13-3.83,18.77,1,8.23,5.72,11.66,13.69,11.05,4.16-.33,8.81-1,11.35-4.29A12.78,12.78,0,0,0,44.45,87.74Z"/><path class="cls-10" d="M151.71,119.42l1.8.09c2.25,10,9.88,17.81,16.11,26a112.47,112.47,0,0,1,7.51,11.18,27.81,27.81,0,0,1,3,6.41,25.1,25.1,0,0,1,.68,7.64A54.45,54.45,0,0,1,178.85,183c-1.51-8.18-3.21-16.68-8.27-23.28-2.47-3.22-5.64-5.83-8.45-8.77s-5.33-6.38-6-10.38a62.54,62.54,0,0,0,9.53,24.27,15.94,15.94,0,0,0-7.48-3.26c-4.25-2.91-7.3-7.32-9.85-11.82-1.78-3.16-3.36-6.42-5.19-9.54s-3.2-4.67-3.29-8.46c-.14-6.12,0-12.55-2.34-18.29a11.25,11.25,0,0,0,.44-2.94,3.6,3.6,0,0,0-1.17-3.11,3.42,3.42,0,0,0-1.94-.51l0-1.22a46.92,46.92,0,0,0,5.64-7.3c4.69-7.53,7.12-16.21,9.5-24.76l.36,0A288.5,288.5,0,0,1,151.71,119.42Z"/><path class="cls-10" d="M148.3,149.78c2.55,4.5,5.6,8.91,9.85,11.82-5.09-.91-10.65-.1-15.69-.39-3.68-.2-7.58-.49-10.56-2.66-2.57-1.88-4-4.89-5.22-7.84a76.27,76.27,0,0,1-4.79-18.49l.93-1.15a18,18,0,0,0,4.3-3.92c2.29-2.49,4.87-4.73,7-7.38a18,18,0,0,0,3.38-6.28c2.38,5.74,2.2,12.17,2.34,18.29.09,3.79,1.4,5.23,3.29,8.46S146.52,146.62,148.3,149.78Z"/><path class="cls-10" d="M126.27,107q-2.68,11.19-6.13,22.17c-8.9,28.33-21.65,55.71-25.81,85.1A42.89,42.89,0,0,1,93,197.39a43.38,43.38,0,0,0-1.61,23.91c-3.53,0-7.69-.36-9.55-3.36a9.6,9.6,0,0,1-1.11-4.52c-1.06-17.32,6.91-33.73,14.12-49.52q2.9-6.35,5.67-12.77c2.2-5.1,4.39-10.57,3.58-16.07l-.17-.12c3.09-4,4.21-9.65,6.58-14.37a38.32,38.32,0,0,0,3-7.21c1.15-4.26,1-8.77,1.83-13.12,1.2-6.4,4.5-12.72,3.21-19.12a22.39,22.39,0,0,1,.11-8.48c1-5.66,3.36-11.28,3.51-17.16.34-13.21-.78-27.23-8.37-38A30.69,30.69,0,0,0,100.4,6.74L101.08,5l8.4,3.26a51.69,51.69,0,0,1,10.6,5.08,45.17,45.17,0,0,1,9.22,9.1q5.37,6.62,10.11,13.7A55.49,55.49,0,0,1,145.84,48a58.71,58.71,0,0,1,2.41,10.33c.83,5.06,1.54,10.14,2.09,15.24l-.36,0c-2.38,8.55-4.81,17.23-9.5,24.76a46.92,46.92,0,0,1-5.64,7.3l0,1.22h-.63l-7.71.08Z"/><path class="cls-10" d="M113.7,17.43c7.59,10.82,8.71,24.84,8.37,38.05-.15,5.88-2.49,11.5-3.51,17.16l-1.26,0c-5.76-2.11-10.22-7.05-12.62-12.7s-2.92-12-2.42-18.09A52.1,52.1,0,0,0,99.81,57a96.9,96.9,0,0,1-5.42-30.12c-4,8-4.4,17.18-4.7,26.09a31.51,31.51,0,0,1-3.11-20c-4.07,5.45-4,12.83-3.76,19.63C78,50.1,72.45,47.1,67.15,45.79a84.15,84.15,0,0,1,.47-27.38C61.15,25,60.15,35,59.52,44.21a21.52,21.52,0,0,0-6.45-.41,40,40,0,0,1,7.3-29.93c-4.2.07-8.5.17-12.38,1.74a35.29,35.29,0,0,0-5.5,3.06C35.75,23,29,27.31,22.54,32.08a34.52,34.52,0,0,0-5.6,4.85,26.43,26.43,0,0,0-4.1,6.63C6.81,57,8.24,72.36,9.79,87l-2.45.09c-.13-.24-.27-.48-.39-.71A60.9,60.9,0,0,1,3.2,76.58C2.61,74.75,4,72.7,3,71.1a8.59,8.59,0,0,1-1.34-3.44,17.4,17.4,0,0,1,0-4.08q.52-6,1.07-12c.26-2.88.77-6.65,2.06-9.24A55.82,55.82,0,0,1,10.59,33C14.1,28.46,18,25.3,22.18,21.32A97.73,97.73,0,0,1,42.26,6.53C53.88.09,67.57,1.23,80.8,2.45c7,.64,13.73,1.77,19.6,4.29A30.69,30.69,0,0,1,113.7,17.43Z"/><path class="cls-10" d="M103.91,78.63c1.2,5.45,1.58,11.58-1.56,16.2a22.79,22.79,0,0,1-3.67,3.94,22.25,22.25,0,0,1-6.47,4.53c-4.74,1.9-10.47.43-14.13-3.14-8.52-8.32-4.63-20.76,1-29.35,2.2-3.34,5-6.72,8.83-7.66,4-1,8.34,1.06,11,4.2S103,74.58,103.91,78.63Zm-12.46,7A16,16,0,0,0,92.56,80a11.38,11.38,0,0,0-3.83-8.31,2.87,2.87,0,0,0-1.82-.89,3,3,0,0,0-1.15.33c-6.89,3.17-8.69,15-4.14,20.82a3.52,3.52,0,0,0,1,1,3.3,3.3,0,0,0,2.7,0C88.41,91.73,90.32,88.7,91.45,85.64Z"/><path class="cls-10" d="M92.56,80a16,16,0,0,1-1.11,5.68c-1.13,3.06-3,6.09-6.08,7.21a3.3,3.3,0,0,1-2.7,0,3.52,3.52,0,0,1-1-1c-4.55-5.78-2.75-17.65,4.14-20.82a3,3,0,0,1,1.15-.33,2.87,2.87,0,0,1,1.82.89A11.38,11.38,0,0,1,92.56,80Z"/><path class="cls-10" d="M75.67,116.16c2.51,2,4.3,5.19,4,8.4-.3,3-2.31,5.49-4.48,7.61l-1-1.06c-1.6-3.22-3.43-6.68-6.69-8.19-2.19-1-4.69-1-7.11-1-4.18.07-8.6.21-12.16,2.39A20.51,20.51,0,0,0,43.39,129c-1,1.21-4,4.13-4.37,5.92a31.1,31.1,0,0,1-5.44-9.24,14,14,0,0,1-1.07-6.77,8.46,8.46,0,0,1,5.5-7.14c4.4-1.47,10.25-1.31,13.56-1.32a62.73,62.73,0,0,1,15.31,1.87A22.42,22.42,0,0,1,75.67,116.16Z"/><path class="cls-10" d="M45.43,62.72a38.15,38.15,0,0,1-1,25,12.78,12.78,0,0,1-1.61,3.09c-2.54,3.31-7.19,4-11.35,4.29-8,.61-12.73-2.82-13.69-11.05-.66-5.76,1.9-13.38,3.83-18.77,1.26-3.52,3.17-6.95,6.39-9a14.66,14.66,0,0,1,5.11-2,10.48,10.48,0,0,1,6.8.59C42.87,56.31,44.47,59.57,45.43,62.72Zm-2,13.35A15.36,15.36,0,0,0,40,65.28a2.71,2.71,0,0,0-1.59-1.06,3.08,3.08,0,0,0-1.42.3,15.34,15.34,0,0,0-5.4,3c-3.68,3.69-4.09,14.51-1.16,18.9,1.53,2.29,6.2,3.18,8.56,1.81C42,86.47,43.25,79.27,43.41,76.07Z"/><path class="cls-10" d="M40,65.28a15.36,15.36,0,0,1,3.43,10.79C43.25,79.27,42,86.47,39,88.25c-2.36,1.37-7,.48-8.56-1.81-2.93-4.39-2.52-15.21,1.16-18.9a15.34,15.34,0,0,1,5.4-3,3.08,3.08,0,0,1,1.42-.3A2.71,2.71,0,0,1,40,65.28Z"/><path class="cls-10" d="M100.4,6.74a30.69,30.69,0,0,1,13.3,10.69c7.59,10.82,8.71,24.84,8.37,38.05-.15,5.88-2.49,11.5-3.51,17.16a22.39,22.39,0,0,0-.11,8.48c1.29,6.4-2,12.72-3.21,19.12-.82,4.35-.68,8.86-1.83,13.12a38.32,38.32,0,0,1-3,7.21c-2.37,4.72-3.49,10.4-6.58,14.37a12.31,12.31,0,0,1-3.29,3c-7.52,4.55-15.5,9.64-23.73,12.8a63.12,63.12,0,0,1-25.16,3.63C45.29,154,41,150.08,35.56,147a49,49,0,0,1-4.77-3c-4.66-3.47-8-8.32-11.77-12.63-4-4.55-7.52-9.68-9-15.63a35.8,35.8,0,0,1-.9-6.09c-.11-1.32-.17-2.64-.23-4-.26-5.48-.48-11.76-.74-17.25-.29-.45-.56-.91-.82-1.37-.13-.24-.27-.48-.39-.71A60.9,60.9,0,0,1,3.2,76.58C2.61,74.75,4,72.7,3,71.1a8.59,8.59,0,0,1-1.34-3.44,17.4,17.4,0,0,1,0-4.08q.52-6,1.07-12c.26-2.88.77-6.65,2.06-9.24A55.82,55.82,0,0,1,10.59,33C14.1,28.46,18,25.3,22.18,21.32A97.73,97.73,0,0,1,42.26,6.53C53.88.09,67.57,1.23,80.8,2.45,87.84,3.09,94.53,4.22,100.4,6.74Z"/><path class="cls-10" d="M9.79,87c-1.55-14.6-3-30,3.05-43.4a26.43,26.43,0,0,1,4.1-6.63,34.52,34.52,0,0,1,5.6-4.85C29,27.31,35.75,23,42.49,18.67A35.29,35.29,0,0,1,48,15.61c3.88-1.57,8.18-1.67,12.38-1.74a40,40,0,0,0-7.3,29.93,21.52,21.52,0,0,1,6.45.41c.63-9.19,1.63-19.24,8.1-25.8a84.15,84.15,0,0,0-.47,27.38C72.45,47.1,78,50.1,82.82,52.55c-.24-6.8-.31-14.18,3.76-19.63a31.51,31.51,0,0,0,3.11,20c.3-8.91.68-18.14,4.7-26.09A96.9,96.9,0,0,0,99.81,57a52.1,52.1,0,0,1,2.45-15.17c-.5,6.12,0,12.44,2.42,18.09s6.86,10.59,12.62,12.7"/><path class="cls-10" d="M28,56.25a14.66,14.66,0,0,1,5.11-2,10.48,10.48,0,0,1,6.8.59c2.94,1.47,4.54,4.73,5.5,7.88a38.15,38.15,0,0,1-1,25,12.78,12.78,0,0,1-1.61,3.09c-2.54,3.31-7.19,4-11.35,4.29-8,.61-12.73-2.82-13.69-11.05-.66-5.76,1.9-13.38,3.83-18.77C22.89,61.78,24.8,58.35,28,56.25Z"/><path class="cls-10" d="M79.09,70.81c2.2-3.34,5-6.72,8.83-7.66,4-1,8.34,1.06,11,4.2s4,7.23,4.94,11.28c1.2,5.45,1.58,11.58-1.56,16.2a22.79,22.79,0,0,1-3.67,3.94,22.25,22.25,0,0,1-6.47,4.53c-4.74,1.9-10.47.43-14.13-3.14C69.56,91.84,73.45,79.4,79.09,70.81Z"/><path class="cls-10" d="M31.57,67.54a15.34,15.34,0,0,1,5.4-3,3.08,3.08,0,0,1,1.42-.3A2.71,2.71,0,0,1,40,65.28a15.36,15.36,0,0,1,3.43,10.79C43.25,79.27,42,86.47,39,88.25c-2.36,1.37-7,.48-8.56-1.81C27.48,82.05,27.89,71.23,31.57,67.54Z"/><path class="cls-10" d="M85.76,71.09a3,3,0,0,1,1.15-.33,2.87,2.87,0,0,1,1.82.89A11.38,11.38,0,0,1,92.56,80a16,16,0,0,1-1.11,5.68c-1.13,3.06-3,6.09-6.08,7.21a3.3,3.3,0,0,1-2.7,0,3.52,3.52,0,0,1-1-1C77.07,86.13,78.87,74.26,85.76,71.09Z"/><path class="cls-10" d="M74.2,131.11c-1.6-3.22-3.43-6.68-6.69-8.19-2.19-1-4.69-1-7.11-1-4.18.07-8.6.21-12.16,2.39A20.51,20.51,0,0,0,43.39,129c-1,1.21-4,4.13-4.37,5.92a1.21,1.21,0,0,0,0,.37c.07,1.85,3.38,3.68,4.85,4.43,4.37,2.26,9.56,2,14.47,1.6a21.84,21.84,0,0,0,5.21-.81,18.61,18.61,0,0,0,5-2.73,58.93,58.93,0,0,0,6.22-5.14l.44-.42c2.17-2.12,4.18-4.62,4.48-7.61.33-3.21-1.46-6.37-4-8.4a22.42,22.42,0,0,0-8.79-3.89,62.73,62.73,0,0,0-15.31-1.87c-3.31,0-9.16-.15-13.56,1.32a8.46,8.46,0,0,0-5.5,7.14,14,14,0,0,0,1.07,6.77A31.1,31.1,0,0,0,39,134.87c.18.22.36.44.55.65"/><path class="cls-10" d="M100.53,4.78l.55.21,8.4,3.26a51.69,51.69,0,0,1,10.6,5.08,45.17,45.17,0,0,1,9.22,9.1q5.37,6.62,10.11,13.7A55.49,55.49,0,0,1,145.84,48a58.71,58.71,0,0,1,2.41,10.33c.83,5.06,1.54,10.14,2.09,15.24a288.5,288.5,0,0,1,1.37,45.81c-.18,3.59-.42,7.19-.74,10.77"/><path class="cls-10" d="M104.05,135.06c.81,5.5-1.38,11-3.58,16.07q-2.79,6.42-5.67,12.77c-7.21,15.79-15.18,32.2-14.12,49.52a9.6,9.6,0,0,0,1.11,4.52c1.86,3,6,3.34,9.55,3.36A43.38,43.38,0,0,1,93,197.39a42.89,42.89,0,0,0,1.38,16.83c4.16-29.39,16.91-56.77,25.81-85.1q3.45-11,6.13-22.17A334,334,0,0,0,134.89,49"/><path class="cls-10" d="M117.22,16.68c9.13,15,11.1,33.23,11.24,50.78,0,3.68-.12,7.68-2.48,10.49a35.27,35.27,0,0,0-3.12-18.3"/><path class="cls-10" d="M143.78,46.65c-.5,2.59-.07,5.26-.12,7.9a21.52,21.52,0,0,1-4,12"/><path class="cls-10" d="M150,73.65c-2.38,8.55-4.81,17.23-9.5,24.76a46.92,46.92,0,0,1-5.64,7.3"/><path class="cls-10" d="M121.89,132.22a76.27,76.27,0,0,0,4.79,18.49c1.19,2.95,2.65,6,5.22,7.84,3,2.17,6.88,2.46,10.56,2.66,5,.29,10.6-.52,15.69.39a15.94,15.94,0,0,1,7.48,3.26,62.54,62.54,0,0,1-9.53-24.27c.7,4,3.22,7.44,6,10.38s6,5.55,8.45,8.77c5.06,6.6,6.76,15.1,8.27,23.28a54.45,54.45,0,0,0,1.92-12.29,25.1,25.1,0,0,0-.68-7.64,27.81,27.81,0,0,0-3-6.41,112.47,112.47,0,0,0-7.51-11.18c-6.23-8.18-13.86-15.95-16.11-26"/><path class="cls-10" d="M136.76,111.92c.26.52.5,1,.72,1.57,2.38,5.74,2.2,12.17,2.34,18.29.09,3.79,1.4,5.23,3.29,8.46s3.41,6.38,5.19,9.54c2.55,4.5,5.6,8.91,9.85,11.82.22.17.44.31.67.46"/><path class="cls-10" d="M122.82,131.07a18,18,0,0,0,4.3-3.92c2.29-2.49,4.87-4.73,7-7.38a18,18,0,0,0,3.38-6.28,11.25,11.25,0,0,0,.44-2.94,3.6,3.6,0,0,0-1.17-3.11,3.42,3.42,0,0,0-1.94-.51h-.63l-7.71.08"/><path class="cls-10" d="M5.31,87.35a12.24,12.24,0,0,0-2.41,9c.19,1.44.64,2.83.9,4.25a35.13,35.13,0,0,0,.69,3.82,17.27,17.27,0,0,0,3.18,5.33"/><path class="cls-10" d="M33.92,76.05c-.47.17-.8-.47-.87-1a24.06,24.06,0,0,1-.28-3.5,3.2,3.2,0,0,1,.44-1.93c.67-.92,2-.93,3.14-.85a1.11,1.11,0,0,1,.79.25,1.13,1.13,0,0,1,.26.6,15.13,15.13,0,0,1,.29,3.22A4.44,4.44,0,0,1,37,75.45a1.91,1.91,0,0,1-2.36.71l-.72-1"/><path class="cls-10" d="M33.92,76.05c-.47.17-.8-.47-.87-1a24.06,24.06,0,0,1-.28-3.5,3.2,3.2,0,0,1,.44-1.93c.67-.92,2-.93,3.14-.85a1.11,1.11,0,0,1,.79.25,1.13,1.13,0,0,1,.26.6,15.13,15.13,0,0,1,.29,3.22A4.44,4.44,0,0,1,37,75.45a1.91,1.91,0,0,1-2.36.71l-.72-1"/><path class="cls-10" d="M81.36,76.74l1.1,3.79c.2.7.49,1.5,1.19,1.72s1.49-.35,2-.92a7,7,0,0,0,2.15-3.94,4.24,4.24,0,0,0-.46-2.32,3.06,3.06,0,0,0-3.68-1.6c-1.31.58-1.77,2.16-2.07,3.56l-.5,2.27"/><path class="cls-10" d="M81.36,76.74l1.1,3.79c.2.7.49,1.5,1.19,1.72s1.49-.35,2-.92a7,7,0,0,0,2.15-3.94,4.24,4.24,0,0,0-.46-2.32,3.06,3.06,0,0,0-3.68-1.6c-1.31.58-1.77,2.16-2.07,3.56l-.5,2.27"/><path class="cls-10" d="M39.84,132.05a23.22,23.22,0,0,1,15.65-9.87,47.44,47.44,0,0,1,5.84-.36c2,0,4.08,0,5.82.92a10.12,10.12,0,0,1,2.95,2.81A53.69,53.69,0,0,1,73.27,130a3.26,3.26,0,0,1,.7,2.69A3.09,3.09,0,0,1,72.82,134c-6.41,4.88-14.83,6.46-22.88,6.11a18,18,0,0,1-6.47-1.23A8.58,8.58,0,0,1,40,136.13C38.84,134.55,38.75,133.68,39.84,132.05Z"/><path class="cls-10" d="M39.84,132.05a23.22,23.22,0,0,1,15.65-9.87,47.44,47.44,0,0,1,5.84-.36c2,0,4.08,0,5.82.92a10.12,10.12,0,0,1,2.95,2.81A53.69,53.69,0,0,1,73.27,130a3.26,3.26,0,0,1,.7,2.69A3.09,3.09,0,0,1,72.82,134c-6.41,4.88-14.83,6.46-22.88,6.11a18,18,0,0,1-6.47-1.23A8.58,8.58,0,0,1,40,136.13C38.84,134.55,38.75,133.68,39.84,132.05Z"/><path class="cls-10" d="M70.19,114.26a16.12,16.12,0,0,1-9.32,3.9,33.39,33.39,0,0,1-10.2-.82,27.57,27.57,0,0,1-5.36-1.6,17,17,0,0,1-5.77-4.18,42.82,42.82,0,0,1,19.32-1.06c1.88.34,3.74.82,5.6,1.29l4.21,1.07a2,2,0,0,1,1.29.69C70.24,114,70.69,114.29,70.19,114.26Z"/></g></g></svg>