<?xml version="1.0" encoding="utf-8"?>
<!-- Generator: Adobe Illustrator 22.1.0, SVG Export Plug-In . SVG Version: 6.00 Build 0)  -->
<svg version="1.1" id="图层_1" xmlns="http://www.w3.org/2000/svg" xmlns:xlink="http://www.w3.org/1999/xlink" x="0px" y="0px"
	 viewBox="0 0 200 200" style="enable-background:new 0 0 200 200;" xml:space="preserve">
<style type="text/css">
	.st0{fill:#039B71;}
	.st1{fill-opacity:0;}
	.st2{fill:#FFFFFF;}
</style>
<path class="st0" d="M100.2,7.3c51.4,0,93.8,42.5,93.8,93.8S151.5,195,100.2,195S6.3,152.5,6.3,101.2S48.8,7.3,100.2,7.3z"/>
<path class="st1" d="M36,46.8h128.4v128.4H36V46.8z"/>
<path class="st2" d="M87.3,156.5c-2.2,0-4.4-1.1-5.5-2.2L37.2,114c-3.3-2.2-3.3-6.5,0-9.8c3.3-2.2,7.6-2.2,10.9,0L87.3,139
	l76.3-68.7c3.3-2.2,7.6-2.2,10.9,0s3.3,6.5,0,9.8l-81.8,73C90.6,155.4,89.5,156.5,87.3,156.5L87.3,156.5z"/>
</svg>
