<?xml version="1.0" standalone="no"?><!DOCTYPE svg PUBLIC "-//W3C//DTD SVG 1.1//EN" "http://www.w3.org/Graphics/SVG/1.1/DTD/svg11.dtd"><svg t="1576554307088" class="icon" viewBox="0 0 1024 1024" version="1.1" xmlns="http://www.w3.org/2000/svg" p-id="1910" xmlns:xlink="http://www.w3.org/1999/xlink" width="200" height="200"><defs><style type="text/css"></style></defs><path d="M145.6 0c-44.8 0-80 36.8-80 81.6v860.8c0 44.8 35.2 81.6 80 81.6h732.8c44.8 0 81.6-36.8 81.6-81.6V324.8L657.6 0h-512z" fill="#20A971" p-id="1911"></path><path d="M225.6 600v262.4h344V600H225.6z m104 240h-80V784h80v56z m0-80h-80V704h80v56z m0-80h-80v-57.6h80v57.6z m217.6 160H352V784h195.2v56z m0-80H352V704h195.2v56z m0-80H352v-57.6h195.2v57.6z" fill="#FFFFFF" p-id="1912"></path><path d="M960 324.8v16H755.2s-100.8-19.2-97.6-107.2c0 0 3.2 91.2 96 91.2H960z" fill="#189355" p-id="1913"></path><path d="M657.6 0v232c0 27.2 17.6 92.8 97.6 92.8H960L657.6 0z" fill="#FFFFFF" p-id="1914"></path></svg>