<?xml version="1.0" standalone="no"?><!DOCTYPE svg PUBLIC "-//W3C//DTD SVG 1.1//EN" "http://www.w3.org/Graphics/SVG/1.1/DTD/svg11.dtd"><svg t="1576550292824" class="icon" viewBox="0 0 1024 1024" version="1.1" xmlns="http://www.w3.org/2000/svg" p-id="4099" xmlns:xlink="http://www.w3.org/1999/xlink" width="200" height="200"><defs><style type="text/css"></style></defs><path d="M85.333333 170.666667h853.333334c51.2 0 85.333333 34.133333 85.333333 85.333333s-34.133333 85.333333-85.333333 85.333333H85.333333c-51.2 0-85.333333-34.133333-85.333333-85.333333s34.133333-85.333333 85.333333-85.333333zM264.533333 426.666667l34.133334 349.866666c0 42.666667 42.666667 76.8 85.333333 76.8h264.533333c42.666667 0 85.333333-34.133333 85.333334-76.8L759.466667 426.666667H938.666667l-76.8 520.533333c-8.533333 42.666667-42.666667 76.8-85.333334 76.8H247.466667c-42.666667 0-76.8-34.133333-85.333334-76.8L85.333333 426.666667h179.2z" fill="#21A3FF" p-id="4100"></path><path d="M512 512c51.2 0 85.333333 34.133333 85.333333 85.333333v85.333334c0 51.2-34.133333 85.333333-85.333333 85.333333s-85.333333-34.133333-85.333333-85.333333V597.333333c0-51.2 34.133333-85.333333 85.333333-85.333333zM597.333333 213.333333H426.666667c-51.2 0-85.333333-34.133333-85.333334-85.333333s34.133333-85.333333 85.333334-85.333333h170.666666c51.2 0 85.333333 34.133333 85.333334 85.333333s-34.133333 85.333333-85.333334 85.333333zM426.666667 85.333333v42.666667V85.333333z" fill="#21A3FF" p-id="4101"></path></svg>