<?xml version="1.0" standalone="no"?><!DOCTYPE svg PUBLIC "-//W3C//DTD SVG 1.1//EN" "http://www.w3.org/Graphics/SVG/1.1/DTD/svg11.dtd"><svg t="1576550529177" class="icon" viewBox="0 0 1024 1024" version="1.1" xmlns="http://www.w3.org/2000/svg" p-id="4465" xmlns:xlink="http://www.w3.org/1999/xlink" width="200" height="200"><defs><style type="text/css"></style></defs><path d="M396.817 448.084h139.022c79.911 0 119.806 33.934 119.806 101.925 0 68.6-40.26 102.899-120.779 102.899h-86.965v130.63h-51.084V448.084z m51.206 43.665v117.494h83.681c25.42 0 43.787-4.744 55.463-14.11 11.555-9.73 17.393-24.69 17.393-45.124 0-20.92-5.96-35.759-17.88-44.151-11.554-9.366-29.92-14.11-54.976-14.11h-83.681z" fill="#FFFFFF" p-id="4466"></path><path d="M277.741 609.851h31.38l60.572 139.144h0.73l60.328-139.144h31.38v173.687h-26.514V659.476h-0.973L381.37 783.538h-22.867L305.23 659.476h-0.973v124.062H277.74V609.851z m218.447 0h72.005c41.354 0 62.031 17.636 62.031 52.787 0 35.516-20.799 53.274-62.518 53.274h-45.003v67.626h-26.515V609.851z m26.515 22.623v60.815h43.3c13.137 0 22.745-2.433 28.705-7.298 5.96-4.987 9-12.77 9-23.353 0-10.825-3.04-18.487-9.243-22.866-5.96-4.865-15.447-7.298-28.461-7.298h-43.3z m205.555-22.623h24.325V724.67h26.272v21.164h-26.272v37.705h-25.299v-37.705H642.63v-25.056l85.628-110.926z m-1.703 33.57l-62.275 81.248h63.004v-81.248h-0.73z" fill="#FFFFFF" p-id="4467"></path><path d="M169.49 53.395c-11.676 0-24.082 4.622-32.717 13.988-8.515 9.365-13.988 21.042-13.988 32.718v840.704c0 11.677 4.622 24.083 13.988 32.719 9.365 9.365 21.041 13.987 32.718 13.987h685.018c11.677 0 24.083-4.622 32.718-13.987 9.366-9.366 13.988-21.042 13.988-32.719V318.062L636.549 53.395H169.49z m0 0" fill="#FFC257" p-id="4468"></path><path d="M636.549 53.395v217.96c0 11.677 4.622 24.083 13.987 32.72 8.514 9.365 21.042 13.987 32.719 13.987h217.96L636.549 53.395z" fill="#FFF2BD" p-id="4469"></path><path d="M267.646 609.851h31.38l60.572 139.144h0.73l60.328-139.144h31.38v173.687h-26.515V659.476h-0.973l-53.274 124.062h-22.866l-53.274-124.062h-0.973v124.062h-26.515V609.851z m218.447 0h72.005c41.354 0 62.03 17.636 62.03 52.787 0 35.516-20.798 53.274-62.517 53.274h-45.003v67.626h-26.515V609.851z m26.515 22.623v60.815h43.3c13.136 0 22.745-2.433 28.705-7.298 5.96-4.987 9-12.77 9-23.353 0-10.825-3.04-18.487-9.243-22.866-5.96-4.865-15.447-7.298-28.462-7.298h-43.3z m231.826-13.38c10.339 8.637 15.569 20.313 15.569 35.03 0 19.096-9.609 31.867-28.705 38.192 10.096 3.04 17.88 7.906 23.353 14.352 5.838 6.447 8.757 14.96 8.757 25.3 0 16.054-5.473 29.19-16.541 39.407-11.798 10.339-27.002 15.569-45.49 15.569-17.636 0-31.988-4.5-42.813-13.623-12.163-10.217-18.975-25.055-20.434-44.516h26.758c0.487 11.798 4.258 20.799 11.434 27.002 6.324 5.838 14.595 8.757 24.812 8.757 11.068 0 20.069-3.284 27.002-9.73 5.96-5.96 9-13.258 9-21.65 0-10.217-3.162-17.758-9.487-22.624-5.838-4.865-14.474-7.297-26.028-7.297h-12.65v-19.948h12.406c10.582 0 18.61-2.31 24.083-7.054s8.27-11.433 8.27-20.19c0-8.636-2.553-15.204-7.54-19.948-5.23-4.744-13.015-7.054-23.596-7.054s-18.731 2.675-24.57 8.027c-5.96 5.473-9.487 13.501-10.46 24.083h-26.028c1.46-17.15 7.906-30.65 19.217-40.381 10.582-9.609 24.448-14.353 41.597-14.353 17.515 0 31.502 4.257 42.084 12.65z" fill="#FFFFFF" p-id="4470"></path></svg>