<?xml version="1.0" standalone="no"?><!DOCTYPE svg PUBLIC "-//W3C//DTD SVG 1.1//EN" "http://www.w3.org/Graphics/SVG/1.1/DTD/svg11.dtd"><svg t="1576550538986" class="icon" viewBox="0 0 1024 1024" version="1.1" xmlns="http://www.w3.org/2000/svg" p-id="4713" xmlns:xlink="http://www.w3.org/1999/xlink" width="200" height="200"><defs><style type="text/css"></style></defs><path d="M109.014 0C89.416 0 69.818 19.598 69.818 39.196v945.608c0 19.598 19.598 39.196 39.196 39.196h805.972c19.598 0 39.196-19.598 39.196-39.196V222.928L728.804 0h-619.79z" fill="#55C7F7" p-id="4714"></path><path d="M728.804 0v183.732c0 19.598 19.598 39.196 39.196 39.196h183.732L728.804 0z" fill="#9FE8FC" p-id="4715"></path><path d="M510.775 759.426c-14.698 0-26.947-12.249-26.947-26.948V387.062H363.789c-14.698 0-26.947-12.249-26.947-26.947 0-14.699 12.249-26.948 26.947-26.948H662.66c14.699 0 26.948 12.25 26.948 26.948s-12.25 26.947-26.948 26.947H542.622v345.416c-4.9 14.699-17.148 26.948-31.847 26.948z" fill="#FFFFFF" p-id="4716"></path></svg>