<?xml version="1.0" standalone="no"?><!DOCTYPE svg PUBLIC "-//W3C//DTD SVG 1.1//EN" "http://www.w3.org/Graphics/SVG/1.1/DTD/svg11.dtd"><svg t="1576550526400" class="icon" viewBox="0 0 1024 1024" version="1.1" xmlns="http://www.w3.org/2000/svg" p-id="4343" xmlns:xlink="http://www.w3.org/1999/xlink" width="200" height="200"><defs><style type="text/css"></style></defs><path d="M358.4 612.25v-58.198H238.933V819.2h238.934V612.25H358.4zM68.267 0h614.4l273.066 282.487V1024H68.267V0z m170.666 204.8v64.683H358.4V204.8H238.933z m0 116.395v64.682H358.4V321.23H238.933zM358.4 262.997v64.683h119.467v-64.683H358.4z m0 116.395v64.717h119.467v-64.683H358.4z m-119.467 58.266v64.682H358.4v-64.75H238.933zM358.4 495.855v64.683h119.467v-64.683H358.4zM265.49 670.48h185.82v90.556H265.49V670.48z" fill="#FF9F51" p-id="4344"></path><path d="M682.667 0l273.066 273.067H682.667z" fill="#D97B2D" p-id="4345"></path></svg>