<?xml version="1.0" standalone="no"?><!DOCTYPE svg PUBLIC "-//W3C//DTD SVG 1.1//EN" "http://www.w3.org/Graphics/SVG/1.1/DTD/svg11.dtd"><svg t="1576579803925" class="icon" viewBox="0 0 1024 1024" version="1.1" xmlns="http://www.w3.org/2000/svg" p-id="6832" xmlns:xlink="http://www.w3.org/1999/xlink" width="200" height="200"><defs><style type="text/css"></style></defs><path d="M512.5 511.7m-447.8 0a447.8 447.8 0 1 0 895.6 0 447.8 447.8 0 1 0-895.6 0Z" fill="#FE585A" p-id="6833"></path><path d="M323.2 737.1c-6.8 0-13.6-2.5-18.8-7.6-10.7-10.4-11-27.5-0.6-38.3L695.2 287c10.4-10.8 27.6-11 38.3-0.6 10.7 10.4 11 27.5 0.6 38.3L342.7 728.9c-5.3 5.5-12.4 8.2-19.5 8.2z" fill="#FFFFFF" p-id="6834"></path><path d="M700.2 727.5c-7 0-14-2.7-19.3-8L291.1 324.9c-10.5-10.7-10.4-27.8 0.2-38.3 10.7-10.6 27.8-10.4 38.3 0.2l389.8 394.6c10.5 10.7 10.4 27.8-0.2 38.3-5.3 5.2-12.2 7.8-19 7.8z" fill="#FFFFFF" p-id="6835"></path></svg>