<?xml version="1.0" encoding="utf-8"?>
<!-- Generator: Adobe Illustrator 22.1.0, SVG Export Plug-In . SVG Version: 6.00 Build 0)  -->
<svg version="1.1" id="图层_1" xmlns="http://www.w3.org/2000/svg" xmlns:xlink="http://www.w3.org/1999/xlink" x="0px" y="0px"
	 viewBox="0 0 200 200" style="enable-background:new 0 0 200 200;" xml:space="preserve">
<style type="text/css">
	.st0{fill:#ED9E7E;}
	.st1{fill:#FFFFFF;}
</style>
<path class="st0" d="M13,100c0,48.6,39.4,88,88,88s88-39.4,88-88s-39.4-88-88-88S13,51.4,13,100z"/>
<path class="st1" d="M67.7,55.6l77.8,77.8c0.7,0.7,0.7,1.5,0,2.2l-8.9,8.9c-0.7,0.7-1.5,0.7-2.2,0L56.6,66.7c-0.7-0.7-0.7-1.5,0-2.2
	l8.9-8.9C66.2,54.8,66.9,54.8,67.7,55.6L67.7,55.6z"/>
<path class="st1" d="M136.6,55.6l8.9,8.9c0.7,0.7,0.7,1.5,0,2.2l-77.8,77.8c-0.7,0.7-1.5,0.7-2.2,0l-8.9-8.9c-0.7-0.7-0.7-1.5,0-2.2
	l77.8-77.8C135.1,54.8,135.8,54.8,136.6,55.6L136.6,55.6z"/>
</svg>
