<?xml version="1.0" standalone="no"?><!DOCTYPE svg PUBLIC "-//W3C//DTD SVG 1.1//EN" "http://www.w3.org/Graphics/SVG/1.1/DTD/svg11.dtd"><svg t="1576555151080" class="icon" viewBox="0 0 1024 1024" version="1.1" xmlns="http://www.w3.org/2000/svg" p-id="1713" xmlns:xlink="http://www.w3.org/1999/xlink" width="200" height="200"><defs><style type="text/css"></style></defs><path d="M352.898 618.523C327.316 641.806 293.316 656 256 656c-79.529 0-144-64.471-144-144s64.471-144 144-144c37.082 0 70.89 14.017 96.416 37.04L583 252.479c-4.544-14.008-7-28.956-7-44.478 0-79.529 64.471-144 144-144s144 64.471 144 144-64.471 144-144 144c-38.01 0-72.58-14.726-98.315-38.785l-229.507 151.85C397.248 479.778 400 495.568 400 512c0 16.204-2.677 31.783-7.612 46.32l230.714 151.157C648.684 686.194 682.684 672 720 672c79.529 0 144 64.471 144 144s-64.471 144-144 144-144-64.471-144-144c0-16.204 2.677-31.783 7.612-46.32L352.898 618.524z" fill="#5090F1" p-id="1714"></path><path d="M720 280c39.765 0 72-32.235 72-72s-32.235-72-72-72-72 32.235-72 72 32.235 72 72 72zM720 888c39.765 0 72-32.235 72-72s-32.235-72-72-72-72 32.235-72 72 32.235 72 72 72zM256 584c39.765 0 72-32.235 72-72s-32.235-72-72-72-72 32.235-72 72 32.235 72 72 72z" fill="#FFFFFF" p-id="1715"></path></svg>