<?xml version="1.0" standalone="no"?><!DOCTYPE svg PUBLIC "-//W3C//DTD SVG 1.1//EN" "http://www.w3.org/Graphics/SVG/1.1/DTD/svg11.dtd"><svg t="1576555204072" class="icon" viewBox="0 0 1024 1024" version="1.1" xmlns="http://www.w3.org/2000/svg" p-id="1981" xmlns:xlink="http://www.w3.org/1999/xlink" width="200" height="200"><defs><style type="text/css"></style></defs><path d="M800 280v624a8 8 0 0 1-8 8H232a8 8 0 0 1-8-8V280H120a8 8 0 0 1-8-8v-56a8 8 0 0 1 8-8h198v-64c0-17.673 14.327-32 32-32h324c17.673 0 32 14.327 32 32v64h198a8 8 0 0 1 8 8v56a8 8 0 0 1-8 8H800z m-72 0H296v560h432V280zM408 384h48a8 8 0 0 1 8 8v384a8 8 0 0 1-8 8h-48a8 8 0 0 1-8-8V392a8 8 0 0 1 8-8z m160 0h48a8 8 0 0 1 8 8v384a8 8 0 0 1-8 8h-48a8 8 0 0 1-8-8V392a8 8 0 0 1 8-8z" fill="#5090F1" p-id="1982"></path></svg>