<?xml version="1.0" standalone="no"?><!DOCTYPE svg PUBLIC "-//W3C//DTD SVG 1.1//EN" "http://www.w3.org/Graphics/SVG/1.1/DTD/svg11.dtd"><svg t="1576579127936" class="icon" viewBox="0 0 1024 1024" version="1.1" xmlns="http://www.w3.org/2000/svg" p-id="1579" xmlns:xlink="http://www.w3.org/1999/xlink" width="200" height="200"><defs><style type="text/css"></style></defs><path d="M136 231.964v512.003l55.242 0.2c34.579 0.124 66.833 17.418 86.062 46.143l26.588 39.718 26.7-40.032c19.29-28.918 51.761-46.288 86.534-46.288H888V231.964H136zM928 160c17.673 0 32 14.32 32 31.984v591.704c0 17.665-14.327 31.984-32 31.984H417.126c-10.7 0-20.69 5.345-26.626 14.243l-59.922 89.84c-9.804 14.697-29.672 18.668-44.376 8.87a31.992 31.992 0 0 1-8.846-8.826l-59.893-89.47a32.004 32.004 0 0 0-26.48-14.199l-95.098-0.343C78.257 815.724 64 801.423 64 783.804v-591.82C64 174.32 78.327 160 96 160h832zM480 447.856V311.928a8 8 0 0 1 8-8h48a8 8 0 0 1 8 8v135.928h136a8 8 0 0 1 8 8v47.968a8 8 0 0 1-8 8H544v135.928a8 8 0 0 1-8 8h-48a8 8 0 0 1-8-8V511.824H344a8 8 0 0 1-8-8v-47.968a8 8 0 0 1 8-8h136z" fill="#5090F1" p-id="1580"></path></svg>