<?xml version="1.0" standalone="no"?><!DOCTYPE svg PUBLIC "-//W3C//DTD SVG 1.1//EN" "http://www.w3.org/Graphics/SVG/1.1/DTD/svg11.dtd"><svg t="1576555048384" class="icon" viewBox="0 0 1024 1024" version="1.1" xmlns="http://www.w3.org/2000/svg" p-id="1313" xmlns:xlink="http://www.w3.org/1999/xlink" width="200" height="200"><defs><style type="text/css"></style></defs><path d="M771.292 500.445l1.394-1.257C804.548 470.466 823 429.874 823 386.138c0-83.999-68.053-152.094-152-152.094-41.13 0-79.49 16.325-107.893 44.963l-50.798 51.219-51.444-51.248-0.118-0.119c-28.39-28.548-66.69-44.815-107.747-44.815-83.947 0-152 68.095-152 152.094 0 41.082 16.256 79.406 44.787 107.815l0.125 0.124 265.872 266.037 259.508-259.67z m-261.57-274.45l2.28 2.263 0.507-0.51C553.053 187.127 609.094 162 671 162c123.712 0 224 100.35 224 224.138 0 66.12-28.612 125.552-74.122 166.577L511.784 862 195 545.02c-40.766-40.592-66-96.788-66-158.882C129 262.35 229.288 162 353 162c61.01 0 116.324 24.407 156.721 63.994z" fill="#5090F1" p-id="1314"></path></svg>