<?xml version="1.0" standalone="no"?><!DOCTYPE svg PUBLIC "-//W3C//DTD SVG 1.1//EN" "http://www.w3.org/Graphics/SVG/1.1/DTD/svg11.dtd"><svg t="1576568333799" class="icon" viewBox="0 0 1024 1024" version="1.1" xmlns="http://www.w3.org/2000/svg" p-id="14019" xmlns:xlink="http://www.w3.org/1999/xlink" width="200" height="200"><defs><style type="text/css"></style></defs><path d="M511.284202 1022.568404a511.284202 511.284202 0 1 1 511.284202-511.284202 511.284202 511.284202 0 0 1-511.284202 511.284202z m0-971.439984a460.155782 460.155782 0 1 0 460.155782 460.155782 460.155782 460.155782 0 0 0-460.155782-460.155782z m0 0" fill="#5094F3" p-id="14020"></path><path d="M178.949471 486.333533m25.56421 0l613.541042 0q25.56421 0 25.56421 25.56421l0 0q0 25.56421-25.56421 25.56421l-613.541042 0q-25.56421 0-25.56421-25.56421l0 0q0-25.56421 25.56421-25.56421Z" fill="#5094F3" p-id="14021"></path><path d="M169.645263 510.644161m18.076627-18.076626l253.072768-253.072768q18.076626-18.076626 36.153253 0l0 0q18.076626 18.076626 0 36.153252l-253.072769 253.072769q-18.076626 18.076626-36.153252 0l0 0q-18.076626-18.076626 0-36.153253Z" fill="#5094F3" p-id="14022"></path><path d="M205.792445 477.053631m18.076627 18.076626l253.072768 253.072769q18.076626 18.076626 0 36.153252l0 0q-18.076626 18.076626-36.153253 0l-253.072768-253.072768q-18.076626-18.076626 0-36.153253l0 0q18.076626-18.076626 36.153253 0Z" fill="#5094F3" p-id="14023"></path></svg>