<?xml version="1.0" encoding="utf-8"?>
<!-- Generator: Adobe Illustrator 22.1.0, SVG Export Plug-In . SVG Version: 6.00 Build 0)  -->
<svg version="1.1" id="图层_1" xmlns="http://www.w3.org/2000/svg" xmlns:xlink="http://www.w3.org/1999/xlink" x="0px" y="0px"
	 viewBox="0 0 200 200" style="enable-background:new 0 0 200 200;" xml:space="preserve">
<style type="text/css">
	.st0{fill:#74D6A0;}
	.st1{fill:#FFFFFF;}
</style>
<path class="st0" d="M12.5,100c0,48.3,39.2,87.5,87.5,87.5s87.5-39.2,87.5-87.5S148.3,12.5,100,12.5S12.5,51.7,12.5,100z"/>
<path class="st1" d="M82.5,123.8l65-65.7c2.4-2.5,6.4-2.5,8.8,0l0,0l5.7,5.7c0.6,0.6,0.6,1.6,0,2.2l-75.1,75.9
	c-2.4,2.5-6.4,2.5-8.8,0l0,0l-5.4-5.4l0,0l-34.8-35.1c-0.6-0.6-0.6-1.6,0-2.2l5.7-5.7c2.4-2.5,6.4-2.5,8.8,0l0,0L82.5,123.8
	L82.5,123.8z"/>
</svg>
