<?xml version="1.0" encoding="utf-8"?>
<!-- Generator: Adobe Illustrator 22.1.0, SVG Export Plug-In . SVG Version: 6.00 Build 0)  -->
<svg version="1.1" id="图层_1" xmlns="http://www.w3.org/2000/svg" xmlns:xlink="http://www.w3.org/1999/xlink" x="0px" y="0px"
	 viewBox="0 0 200 200" style="enable-background:new 0 0 200 200;" xml:space="preserve">
<style type="text/css">
	.st0{fill:#A5A5A5;}
</style>
<path class="st0" d="M158.8,103.3c-0.1,0.4-16,40.4-60.3,40.4c-44,0-59.6-38.7-60.5-40.9c-0.6-1.3-0.6-4.2,0.3-5.8
	c0.2-0.4,18-40.8,60.2-40.8c42.1,0,59.4,39,60.4,41.2C159.5,98.6,159.6,101.6,158.8,103.3 M170.1,92c-0.8-2-21.2-48.2-71.6-48.2
	s-70.9,46.4-71.5,48c-2.5,4.9-2.6,11.9-0.4,16.2c0.2,0.5,19.1,48.4,71.9,48.4c52.8,0,71.8-48,71.8-48
	C172.5,103.3,172.4,96.2,170.1,92"/>
<path class="st0" d="M111,107.8c0,6.9-5.6,12.5-12.5,12.5c-6.9,0-12.5-5.6-12.5-12.5v-14c0-6.9,5.6-12.5,12.5-12.5
	S111,86.9,111,93.8V107.8z M98.5,68.8c-13.8,0-25,11.2-25,25v14c0,13.8,11.2,25,25,25c13.8,0,25-11.2,25-25v-14
	C123.5,80,112.3,68.8,98.5,68.8z"/>
</svg>
