<?xml version="1.0" encoding="utf-8"?>
<!-- Generator: Adobe Illustrator 22.1.0, SVG Export Plug-In . SVG Version: 6.00 Build 0)  -->
<svg version="1.1" id="图层_1" xmlns="http://www.w3.org/2000/svg" xmlns:xlink="http://www.w3.org/1999/xlink" x="0px" y="0px"
	 viewBox="0 0 200 200" style="enable-background:new 0 0 200 200;" xml:space="preserve">
<style type="text/css">
	.st0{fill:#A0A0A0;}
</style>
<path class="st0" d="M100,16.7C54,16.7,16.7,54,16.7,100c0,35.9,22.9,67.7,57,79.1c4.2,0.7,5.7-1.8,5.7-4c0-2-0.1-8.5-0.1-15.5
	c-20.9,3.9-26.3-5.1-28-9.8c-0.9-2.4-5-9.8-8.5-11.8c-2.9-1.6-7.1-5.4-0.1-5.5c6.6-0.1,11.3,6,12.8,8.5c7.5,12.6,19.5,9.1,24.3,6.9
	c0.7-5.4,2.9-9.1,5.3-11.1c-18.5-2.1-37.9-9.3-37.9-41.1c0-9.1,3.2-16.6,8.5-22.4c-0.8-2.1-3.8-10.6,0.8-22.1c0,0,7-2.2,22.9,8.5
	c6.8-1.9,13.8-2.8,20.8-2.8c7.1,0,14.2,0.9,20.8,2.8C137,48.8,144,51.1,144,51.1c4.6,11.5,1.7,20,0.8,22.1
	c5.3,5.8,8.5,13.2,8.5,22.4c0,32-19.5,39.1-38,41.1c3,2.6,5.6,7.6,5.6,15.4c0,11.1-0.1,20.1-0.1,22.9c0,2.2,1.6,4.8,5.7,4
	c33.9-11.5,56.8-43.3,56.8-79.1C183.3,54,146,16.7,100,16.7z"/>
</svg>
