<?xml version="1.0" encoding="utf-8"?>
<!-- Generator: Adobe Illustrator 22.1.0, SVG Export Plug-In . SVG Version: 6.00 Build 0)  -->
<svg version="1.1" id="图层_1" xmlns="http://www.w3.org/2000/svg" xmlns:xlink="http://www.w3.org/1999/xlink" x="0px" y="0px"
	 viewBox="0 0 200 200" style="enable-background:new 0 0 200 200;" xml:space="preserve">
<style type="text/css">
	.st0{fill:#A5A5A5;}
</style>
<path class="st0" d="M137.5,140.7c-2.9,0-5.3,1.9-6,4.6H86.1c-4.7,0-9.6,2.7-12.2,6.6l-6.7,6.4l0-2.5c0-1-0.3-2-0.7-2.9
	c-2.3-4.4-7.7-7.7-12.8-7.7h-9.9V75h2.1c3.5,0,6.3-2.8,6.3-6.3s-2.8-6.3-6.3-6.3h-4.2c-5.7,0-10.4,4.9-10.4,10.8V147
	c0,6,4.7,10.8,10.4,10.8h11.9c0.4,0.1,0.7,0.2,1.1,0.4l0.1,9c0,1.4,0.5,2.7,1.3,3.8c2,2.6,4.9,4.1,8,4.1h0c2.9,0,5.6-1.3,7.6-3.6
	l11.5-11c0.4-0.4,0.9-1.1,1.2-1.6c0.5-0.5,1.1-0.9,1.8-1h47.3c3.9,0,7.5-2.3,9.2-5.8c0.8-1.1,1.2-2.3,1.2-3.7V147
	C143.8,143.5,141,140.7,137.5,140.7"/>
<path class="st0" d="M162.5,107.8h-9.9c-3.1,0-6.3,1.3-8.9,3.3c-0.6,0.5-1.2,0.9-1.7,1.4c-0.9,0.9-1.6,1.9-2.2,3
	c-0.5,0.9-0.7,1.9-0.7,2.9l0,2.5l-6.7-6.4c-0.5-0.7-1.1-1.3-1.7-1.9c-2.7-2.8-6.7-4.7-10.5-4.7H75V37.5h87.5V107.8L162.5,107.8z
	 M174,31.3c-1.7-3.7-5.2-6.3-9.4-6.3H72.9c-4.2,0-7.7,2.6-9.4,6.3c-0.7,1.4-1,3-1,4.6v73.7c0,1.1,0.2,2.1,0.5,3
	c1.3,4.5,5.2,7.8,10,7.8h47.3c0.7,0.1,1.3,0.5,1.8,1c0.3,0.6,0.7,1.1,1.2,1.6l11.5,11c2,2.3,4.7,3.6,7.6,3.6h0c3.1,0,6-1.5,7.9-4.1
	c0.8-1.1,1.3-2.4,1.3-3.8l0.1-9c0.3-0.2,0.7-0.3,1-0.4h11.9c4.7,0,8.7-3.3,10-7.8c0.3-1,0.5-2,0.5-3V35.8
	C175,34.2,174.6,32.7,174,31.3z"/>
<path class="st0" d="M103.1,62.5c-5.2,0-9.4,4.2-9.4,9.4c0,5.2,4.2,9.4,9.4,9.4c5.2,0,9.4-4.2,9.4-9.4
	C112.5,66.7,108.3,62.5,103.1,62.5 M134.4,62.5c-5.2,0-9.4,4.2-9.4,9.4c0,5.2,4.2,9.4,9.4,9.4c5.2,0,9.4-4.2,9.4-9.4
	C143.8,66.7,139.6,62.5,134.4,62.5"/>
</svg>
