<?xml version="1.0" standalone="no"?><!DOCTYPE svg PUBLIC "-//W3C//DTD SVG 1.1//EN" "http://www.w3.org/Graphics/SVG/1.1/DTD/svg11.dtd"><svg t="1569086612670" class="icon" viewBox="0 0 1024 1024" version="1.1" xmlns="http://www.w3.org/2000/svg" p-id="3321" xmlns:xlink="http://www.w3.org/1999/xlink" width="200" height="200"><defs><style type="text/css"></style></defs><path d="M579.3 937.4l308.5-308.7c26.6-26.6 41.7-62.6 41.9-100l2.2-348.3c0.3-48.2-38.5-87-86.6-86.7L497.2 96c-37.4 0.2-73.3 15.3-99.9 41.9L88.8 446.6C54.6 480.9 54.2 536.1 88 570l368 368.2c33.9 33.8 89 33.5 123.3-0.8z" fill="#FF556E" p-id="3322"></path><path d="M89.3 446.1l-0.5 0.5C54.6 480.9 54.2 536.1 88 570l25.2 25.2c-15.5-45.3-24-93.8-24-144.4 0.1-1.6 0.1-3.1 0.1-4.7zM931.5 249.7l0.4-69.2c0.3-48.2-38.5-87-86.6-86.7l-44.8 0.3c54.8 40.9 99.8 94.1 131 155.6zM631.4 885.2c-31.2 7-63.7 10.6-97.1 10.6-50.6 0-99.3-8.5-144.7-24l66.3 66.4c33.8 33.8 89 33.5 123.3-0.8l52.2-52.2z" fill="#FF556E" p-id="3323"></path><path d="M631.4 885.2l256.3-256.5c26.6-26.6 41.7-62.6 41.9-100l1.8-279.1c-31.2-61.4-76.2-114.7-131-155.6l-97.4 0.7c117.2 65.8 196.4 191.2 196.4 335.2 0 212.1-172 384.1-384.1 384.1s-384-172-384-384.1c0-9 0.3-17.9 0.9-26.7l-42.9 43v4.7c0 50.5 8.4 99.1 24 144.4l276.4 276.6c45.4 15.6 94 24 144.7 24 33.3 0 65.8-3.7 97-10.7z" fill="#FF5F71" p-id="3324"></path><path d="M515.4 814c212.1 0 384.1-172 384.1-384.1 0-144-79.2-269.4-196.4-335.2l-128.1 0.8C715.5 130.6 819.6 257.6 819.6 409c0 178.4-144.7 323.1-323.1 323.1S173.4 587.4 173.4 409c0-17.3 1.4-34.4 4-51l-45.1 45.2c-0.6 8.8-0.9 17.8-0.9 26.7C131.3 642 303.3 814 515.4 814z" fill="#FF6974" p-id="3325"></path><path d="M496.5 732.1c178.4 0 323.1-144.7 323.1-323.1 0-151.4-104.1-278.4-244.6-313.5l-77.8 0.5c-37.4 0.2-73.3 15.3-99.9 41.9l-0.8 0.8c25.5-8.3 52.7-12.8 81-12.8 144.8 0 262.1 117.3 262.1 262.1S622.3 650.2 477.5 650.2 215.4 532.8 215.4 388.1c0-28.2 4.5-55.4 12.7-80.8L177.4 358c-2.6 16.6-4 33.6-4 51 0 178.4 144.6 323.1 323.1 323.1z" fill="#FF7377" p-id="3326"></path><path d="M477.5 650.2c144.8 0 262.1-117.3 262.1-262.1S622.3 126 477.5 126c-28.3 0-55.5 4.5-81 12.8L228.1 307.2c-8.2 25.5-12.7 52.6-12.7 80.8 0 144.8 117.4 262.2 262.1 262.2zM458.6 166c111.1 0 201.1 90 201.1 201.1s-90 201.1-201.1 201.1-201.1-90-201.1-201.1S347.5 166 458.6 166z" fill="#FF7E7A" p-id="3327"></path><path d="M458.6 568.2c111.1 0 201.1-90 201.1-201.1S569.6 166 458.6 166s-201.1 90-201.1 201.1 90 201.1 201.1 201.1z m-19-362.1c77.4 0 140.1 62.7 140.1 140.1S517 486.3 439.6 486.3s-140.1-62.7-140.1-140.1 62.7-140.1 140.1-140.1z" fill="#FF887D" p-id="3328"></path><path d="M439.6 346.2m-140.1 0a140.1 140.1 0 1 0 280.2 0 140.1 140.1 0 1 0-280.2 0Z" fill="#FF9280" p-id="3329"></path><path d="M845.9 111.8c18.3 0 35.5 7.1 48.3 20s19.8 30.2 19.7 48.5l-2.2 348.3c-0.1 16.2-3.4 32.1-9.7 47.2-6.3 15.1-15.4 28.6-27 40.2L566.6 924.7c-13.3 13.3-30.9 20.7-49.6 20.7-18.3 0-35.4-7.1-48.2-19.9l-368-368.2c-26.8-26.8-26.4-70.7 0.8-97.9L410 150.7c11.6-11.6 25.1-20.7 40.1-27s30.9-9.6 47.1-9.7l348.1-2.2h0.6m0-18h-0.6L497.2 96c-37.4 0.2-73.3 15.3-99.9 41.9L88.8 446.6C54.6 480.9 54.2 536.1 88 570l368 368.2c16.8 16.8 38.8 25.2 60.9 25.2 22.5 0 45.1-8.7 62.4-25.9l308.5-308.7c26.6-26.6 41.7-62.6 41.9-100l2.2-348.3c0.3-48-38.2-86.7-86-86.7z" fill="#EF4868" p-id="3330"></path><path d="M628.2 205.4c98 0 177.5 79.4 177.5 177.5 0 98-79.4 177.5-177.5 177.5-98 0-177.5-79.5-177.5-177.5 0.1-98.1 79.5-177.5 177.5-177.5z" fill="#FFC7C7" p-id="3331"></path><path d="M210.9 435.3c-4.6 0-9.2-1.8-12.7-5.3-7-7-7-18.4 0-25.5l87.8-87.8c7-7 18.4-7 25.5 0 7 7 7 18.4 0 25.5L223.6 430c-3.5 3.5-8.1 5.3-12.7 5.3z" fill="#FFFFFF" p-id="3332"></path><path d="M161.7 484.5c-4.6 0-9.2-1.8-12.7-5.3-7-7-7-18.4 0-25.5l7.5-7.5c7-7 18.4-7 25.5 0 7 7 7 18.4 0 25.5l-7.5 7.5c-3.6 3.5-8.2 5.3-12.8 5.3z" fill="#FFFFFF" p-id="3333"></path></svg>