<?xml version="1.0" encoding="utf-8"?>
<!-- Generator: Adobe Illustrator 22.1.0, SVG Export Plug-In . SVG Version: 6.00 Build 0)  -->
<svg version="1.1" id="图层_1" xmlns="http://www.w3.org/2000/svg" xmlns:xlink="http://www.w3.org/1999/xlink" x="0px" y="0px"
	 viewBox="0 0 200 200" style="enable-background:new 0 0 200 200;" xml:space="preserve">
<style type="text/css">
	.st0{fill:#FFCE82;}
	.st1{fill:#FECF8D;}
	.st2{fill:#FED38D;}
	.st3{fill:#FED68D;}
	.st4{fill:#FFDA8E;}
	.st5{fill:#FFDC8E;}
	.st6{fill:#FFDF8E;}
	.st7{fill:#FFE18E;}
	.st8{fill:#FFEFD6;}
	.st9{fill:#FFFFFF;}
</style>
<path class="st0" d="M113.1,183.1l60.2-60.3c5.2-5.2,8.1-12.2,8.2-19.5l0.4-68c0.1-9.4-7.5-17-16.9-16.9l-68,0.4
	c-7.3,0-14.3,3-19.5,8.2L17.3,87.2c-6.7,6.7-6.8,17.5-0.2,24.1l71.9,71.9C95.7,189.9,106.5,189.8,113.1,183.1z"/>
<path class="st1" d="M17.4,87.1l-0.1,0.1c-6.7,6.7-6.8,17.5-0.2,24.1l4.9,4.9c-3-8.8-4.7-18.3-4.7-28.2
	C17.4,87.7,17.4,87.4,17.4,87.1z M181.9,48.8l0.1-13.5c0.1-9.4-7.5-17-16.9-16.9l-8.7,0.1C167,26.4,175.8,36.8,181.9,48.8z
	 M123.3,172.9c-6.1,1.4-12.4,2.1-19,2.1c-9.9,0-19.4-1.7-28.3-4.7l13,13c6.6,6.6,17.4,6.5,24.1-0.2L123.3,172.9z"/>
<path class="st2" d="M123.3,172.9l50.1-50.1c5.2-5.2,8.1-12.2,8.2-19.5l0.3-54.5c-6.1-12-14.9-22.4-25.6-30.4l-19,0.1
	c22.9,12.8,38.4,37.3,38.4,65.5c0,41.4-33.6,75-75,75s-75-33.6-75-75c0-1.8,0.1-3.5,0.2-5.2l-8.4,8.4c0,0.3,0,0.6,0,0.9
	c0,9.9,1.6,19.4,4.7,28.2l54,54c8.9,3,18.4,4.7,28.3,4.7C110.9,175,117.2,174.3,123.3,172.9L123.3,172.9z"/>
<path class="st3" d="M100.7,159c41.4,0,75-33.6,75-75c0-28.1-15.5-52.6-38.4-65.5l-25,0.2c27.4,6.9,47.8,31.7,47.8,61.2
	c0,34.9-28.3,63.1-63.1,63.1s-63.1-28.3-63.1-63.1c0-3.4,0.3-6.7,0.8-10l-8.8,8.8c-0.1,1.7-0.2,3.5-0.2,5.2
	C25.7,125.4,59.2,159,100.7,159L100.7,159z"/>
<path class="st4" d="M97,143c34.9,0,63.1-28.3,63.1-63.1c0-29.6-20.3-54.4-47.8-61.2l-15.2,0.1c-7.3,0-14.3,3-19.5,8.2l-0.2,0.2
	c5-1.6,10.3-2.5,15.8-2.5c28.3,0,51.2,22.9,51.2,51.2S121.5,127,93.3,127s-51.2-22.9-51.2-51.2c0-5.5,0.9-10.8,2.5-15.8l-9.9,9.9
	c-0.5,3.3-0.8,6.6-0.8,10C33.9,114.7,62.1,143,97,143L97,143z"/>
<path class="st5" d="M93.3,127c28.3,0,51.2-22.9,51.2-51.2s-22.9-51.2-51.2-51.2c-5.5,0-10.8,0.9-15.8,2.5L44.6,60
	c-1.6,5-2.5,10.3-2.5,15.8C42.1,104.1,65,127,93.3,127z M89.6,32.4c21.7,0,39.3,17.6,39.3,39.3S111.3,111,89.6,111
	S50.3,93.4,50.3,71.7S67.9,32.4,89.6,32.4z"/>
<path class="st6" d="M89.6,111c21.7,0,39.3-17.6,39.3-39.3s-17.6-39.3-39.3-39.3S50.3,50,50.3,71.7S67.9,111,89.6,111z M85.9,40.2
	c15.1,0,27.4,12.3,27.4,27.4S101,95,85.9,95S58.5,82.7,58.5,67.6S70.7,40.2,85.9,40.2z"/>
<path class="st7" d="M58.5,67.6C58.5,82.7,70.7,95,85.9,95s27.4-12.3,27.4-27.4c0,0,0,0,0,0c0-15.1-12.3-27.4-27.4-27.4
	C70.8,40.2,58.5,52.5,58.5,67.6C58.5,67.6,58.5,67.6,58.5,67.6z"/>
<path class="st0" d="M165.2,21.8c3.6,0,6.9,1.4,9.4,3.9c2.5,2.5,3.9,5.9,3.9,9.5l-0.4,68c0,3.2-0.7,6.3-1.9,9.2
	c-1.2,2.9-3,5.6-5.3,7.8l-60.2,60.3c-2.6,2.6-6,4-9.7,4c-3.6,0-6.9-1.4-9.4-3.9l-71.9-71.9c-5.2-5.2-5.2-13.8,0.2-19.1l60.2-60.3
	c2.3-2.3,4.9-4,7.8-5.3c2.9-1.2,6-1.9,9.2-1.9L165.2,21.8L165.2,21.8 M165.2,18.3l-0.1,0l-68,0.4c-7.3,0-14.3,3-19.5,8.2L17.3,87.2
	c-6.7,6.7-6.8,17.5-0.2,24.1l71.9,71.9c3.3,3.3,7.6,4.9,11.9,4.9c4.4,0,8.8-1.7,12.2-5.1l60.2-60.3c5.2-5.2,8.1-12.2,8.2-19.5
	l0.4-68C182.1,25.9,174.6,18.3,165.2,18.3L165.2,18.3z"/>
<path class="st8" d="M122.7,40.1c19.1,0,34.7,15.5,34.7,34.7c0,19.1-15.5,34.7-34.7,34.7c-19.1,0-34.7-15.5-34.7-34.7
	C88,55.6,103.6,40.1,122.7,40.1z"/>
<path class="st9" d="M41.2,85c-0.9,0-1.8-0.4-2.5-1c-1.4-1.4-1.4-3.6,0-5l17.1-17.1c1.4-1.4,3.6-1.4,5,0c1.4,1.4,1.4,3.6,0,5
	L43.7,84C43,84.6,42.1,85,41.2,85z"/>
<path class="st9" d="M31.6,94.6c-0.9,0-1.8-0.4-2.5-1c-1.4-1.4-1.4-3.6,0-5l1.5-1.5c1.4-1.4,3.6-1.4,5,0c1.4,1.4,1.4,3.6,0,5
	l-1.5,1.5C33.4,94.3,32.5,94.6,31.6,94.6z"/>
</svg>
