<?xml version="1.0" encoding="utf-8"?>
<!-- Generator: Adobe Illustrator 22.1.0, SVG Export Plug-In . SVG Version: 6.00 Build 0)  -->
<svg version="1.1" id="图层_1" xmlns="http://www.w3.org/2000/svg" xmlns:xlink="http://www.w3.org/1999/xlink" x="0px" y="0px"
	 viewBox="0 0 200 200" style="enable-background:new 0 0 200 200;" xml:space="preserve">
<style type="text/css">
	.st0{fill:#96D4FA;}
	.st1{fill:#9CD7FB;}
	.st2{fill:#A2DBFC;}
	.st3{fill:#A8DFFD;}
	.st4{fill:#DBF3FF;}
	.st5{fill:#ADE2FD;}
	.st6{fill:#B3E6FE;}
	.st7{fill:#B9EAFF;}
	.st8{fill:#FFFFFF;}
</style>
<g id="XMLID_1_">
	<g>
		<path class="st0" d="M181.3,30.1c0.5,1.6,0.8,3.3,0.8,5.1l-0.1,13.5c-1.1-2.1-2.2-4.2-3.5-6.2l0.1-7.4c0-3.6-1.4-6.9-3.9-9.5
			s-5.9-3.9-9.4-3.9h-0.1l-4.4,0c-1.4-1.2-2.9-2.4-4.4-3.5l8.7-0.1h0.1C172.8,18.3,179.1,23.3,181.3,30.1z"/>
		<path class="st0" d="M182,35.3l-0.1,13.5c0,0,0,0,0,0v0L182,35.3z"/>
		<path class="st0" d="M181.9,48.8l-0.3,54.5c0,2.7-0.4,5.4-1.2,8c-1.3,4.3-3.7,8.3-6.9,11.5l-60.3,60.3h0l10.2-10.2l50.1-50.1
			c5.2-5.2,8.1-12.2,8.2-19.5L181.9,48.8c-1.1-2.1-2.2-4.2-3.5-6.2v0C179.7,44.6,180.9,46.6,181.9,48.8L181.9,48.8z"/>
		<path class="st0" d="M181.9,48.8l-0.4,54.5c0,7.3-3,14.3-8.2,19.5l-50.1,50.1c-2,0.4-4,0.8-6.1,1.1l36.7-36.8l16.9-16.9
			c2.3-2.3,4-4.9,5.3-7.8c1.2-2.9,1.9-6,1.9-9.2l0.1-19.3l0.3-41.4C179.7,44.6,180.8,46.7,181.9,48.8z"/>
		<path class="st0" d="M173.4,122.8c3.2-3.2,5.6-7.2,6.9-11.5C179,115.6,176.6,119.6,173.4,122.8l-60.3,60.3
			c-0.8,0.8-1.8,1.6-2.7,2.2c0.2-0.2,0.5-0.3,0.7-0.5c0.2-0.2,0.5-0.3,0.7-0.5c0.4-0.4,0.9-0.8,1.3-1.2h0L173.4,122.8z"/>
		<path class="st0" d="M174.6,25.7c2.5,2.5,3.9,5.9,3.9,9.5l-0.1,7.4c-3.6-5.8-7.8-11.2-12.7-16c-1.6-1.6-3.3-3.2-5.1-4.7l4.4,0h0.1
			C168.8,21.8,172.1,23.2,174.6,25.7z"/>
		<path class="st0" d="M178.4,42.6L178.4,42.6c-3.6-5.8-7.8-11.2-12.7-16C170.6,31.4,174.9,36.7,178.4,42.6z"/>
		<path class="st1" d="M178.4,42.6L178.2,84l-2.5,0c0-21.1-8.7-40.1-22.7-53.8c-0.6-0.6-1.2-1.1-1.8-1.7c-1.2-1.1-2.4-2.2-3.7-3.2
			c0,0,0,0,0,0c-1.3-1-2.6-2-3.9-2.9c-0.2-0.1-0.4-0.3-0.6-0.4l17.8-0.1c1.8,1.5,3.4,3,5.1,4.7C170.6,31.4,174.9,36.8,178.4,42.6z"
			/>
		<path class="st1" d="M178.2,84l-0.1,19.3c0,3.2-0.7,6.3-1.9,9.2c-1.2,3-3,5.6-5.3,7.8L154,137.3l-0.3-0.3c13.6-13.6,22-32.3,22-53
			L178.2,84z"/>
		<path class="st0" d="M165.1,18.3c7.6,0,14,4.9,16.2,11.8c-2.1-6.9-8.5-11.8-16-11.8L165.1,18.3l-8.7,0.1h0c0,0,0,0,0,0L165.1,18.3
			z"/>
		<path class="st2" d="M153,30.2c14,13.6,22.7,32.7,22.7,53.8c0,20.7-8.4,39.5-22,53c-8.1,8.1-18,14.3-29,18
			c29.6-10,51-38.1,51-71.1C175.7,62.9,167,43.8,153,30.2z"/>
		<path class="st2" d="M153,30.2c14,13.6,22.7,32.7,22.7,53.8c0,33-21.3,61-51,71.1c-7.5,2.6-15.6,3.9-24,3.9
			c-5.2,0-10.2-0.5-15.1-1.5c-1.2-0.3-2.4-0.5-3.6-0.8c-1.8-0.5-3.6-1-5.3-1.6c-1.6-0.6-3.3-1.2-4.8-1.8c-2.9-1.2-5.7-2.6-8.5-4.2
			c-1-0.6-2.1-1.2-3.1-1.9c0,0,0,0,0,0c-1-0.7-2-1.3-3-2c0,0,0,0,0,0c-1-0.7-1.9-1.4-2.9-2.1c-1-0.8-1.9-1.5-2.8-2.3
			c-0.2-0.2-0.4-0.3-0.5-0.5l-6.6-6.6c-2.9-3.3-5.6-6.9-7.9-10.7c-0.6-1-1.2-2-1.7-3c-0.1-0.1-0.1-0.2-0.2-0.3
			c-0.8-1.6-1.6-3.2-2.4-4.8c-0.3-0.6-0.5-1.1-0.7-1.7c-3.8-9-5.9-18.9-5.9-29.2c0,0,0,0,0-0.1l8.4-8.4c-0.1,1.4-0.2,2.9-0.2,4.3
			c0,2.2,0.1,4.3,0.3,6.4c-1.2-0.4-2.7-0.1-3.6,0.8l-1.5,1.5c-1.4,1.4-1.4,3.6,0,5c0.7,0.7,1.6,1,2.5,1s1.8-0.3,2.5-1l1.1-1
			c0.2,1,0.5,2.1,0.7,3.1c0.3,1,0.5,2,0.8,3c0.3,1,0.6,2,1,2.9c0.3,1,0.7,1.9,1.1,2.9c3.2,7.6,7.8,14.4,13.5,20.1
			c2.5,2.5,5.2,4.8,8.1,6.8c1.6,1.2,3.3,2.3,5.1,3.3c1.8,1,3.6,2,5.5,2.8c0.9,0.4,1.9,0.8,2.8,1.2c7.2,2.8,15,4.4,23.1,4.4
			c34.9,0,63.1-28.3,63.1-63.1c0-4-0.4-7.9-1.1-11.6c-3.9-20.7-17.8-37.9-36.6-46.1l20.5-0.1h0c0.2,0.1,0.4,0.3,0.6,0.4
			c1.3,0.9,2.6,1.9,3.9,2.9c0,0,0,0,0,0c1.3,1,2.5,2.1,3.7,3.2C151.8,29.1,152.4,29.6,153,30.2z"/>
		<path class="st0" d="M160.7,21.9L142.9,22c-1.8-1.3-3.7-2.4-5.6-3.5l4,0l15-0.1h0C157.9,19.5,159.3,20.6,160.7,21.9z"/>
		<path class="st3" d="M159,68.3c0.7,3.8,1.1,7.7,1.1,11.6c0,34.9-28.3,63.1-63.1,63.1c-8.2,0-16-1.6-23.1-4.4
			c-1-0.4-1.9-0.8-2.8-1.2c-1.9-0.8-3.7-1.8-5.5-2.8c-1.8-1-3.5-2.1-5.1-3.3c-2.9-2-5.6-4.3-8.1-6.8c-5.7-5.7-10.3-12.5-13.5-20.1
			c-0.4-0.9-0.8-1.9-1.1-2.9c-0.4-1-0.7-1.9-1-2.9c-0.3-1-0.6-2-0.8-3c-0.3-1-0.5-2.1-0.7-3.1l0.4-0.4c1.4-1.4,1.4-3.6,0-5
			c-0.4-0.4-0.9-0.7-1.3-0.8c-0.2-2.1-0.3-4.3-0.3-6.4c0-1.5,0-2.9,0.2-4.3l8.9-8.9c-0.5,2.9-0.8,5.9-0.8,9L38.7,79
			c-1.4,1.4-1.4,3.6,0,5c0.7,0.7,1.6,1,2.5,1c0.6,0,1.1-0.1,1.6-0.4c1.1,6.4,3.4,12.4,6.6,17.7c0.9,1.4,1.8,2.8,2.8,4.1
			c0.5,0.7,1,1.3,1.5,1.9c0.5,0.6,1.1,1.3,1.6,1.8c0.5,0.6,1.1,1.2,1.7,1.8c9.3,9.3,22.1,15,36.2,15c9.7,0,18.8-2.7,26.5-7.4
			c1.4-0.8,2.8-1.8,4.1-2.8c0.7-0.5,1.3-1,1.9-1.5c0.6-0.5,1.3-1.1,1.8-1.6c0.6-0.6,1.2-1.1,1.8-1.7c0.9-0.9,1.7-1.8,2.5-2.7
			c0.4-0.5,0.8-1,1.2-1.5c14-4.4,24.2-17.6,24.2-33c0-2.1-0.2-4.2-0.5-6.1L159,68.3z"/>
		<path class="st3" d="M159,68.3l-2.2,0.4c-2.4-13.5-12.7-24.3-25.9-27.6c-9.4-10.1-22.8-16.5-37.7-16.5c-2.5,0-5,0.2-7.4,0.5
			c0.7-0.3,1.3-0.7,2-1c2.9-1.2,6-1.9,9.2-1.9l25.3-0.2C141.2,30.4,155.1,47.5,159,68.3z"/>
		<path class="st4" d="M156.8,68.7c0.3,2,0.5,4,0.5,6.1c0,15.5-10.1,28.6-24.2,33c0.4-0.5,0.7-0.9,1.1-1.4c0,0,0,0,0,0
			c2.7-3.6,4.9-7.6,6.6-11.8c0,0,0,0,0,0c0.3-0.8,0.6-1.6,0.9-2.4c1.8-5.1,2.7-10.7,2.7-16.4c0-5.7-0.9-11.3-2.7-16.4
			c-2.3-6.9-6-13.1-10.8-18.3C144.1,44.3,154.4,55.1,156.8,68.7z"/>
		<path class="st1" d="M156.3,18.4C156.3,18.4,156.3,18.4,156.3,18.4l-15,0.1L156.3,18.4z"/>
		<polygon class="st0" points="156.3,18.4 141.4,18.5 137.3,18.5 137.3,18.5 112.3,18.6 		"/>
		<path class="st1" d="M154,137.3L117.3,174c-0.3,0.1-0.6,0.1-0.9,0.1c-3.9,0.5-7.9,0.8-12,0.8c-7.3,0-14.4-0.9-21.2-2.6l-32-32
			c0.1,0.1,0.3,0.3,0.4,0.4c0.9,0.8,1.8,1.6,2.8,2.3c0.9,0.7,1.9,1.5,2.9,2.1c0,0,0,0,0,0c1,0.7,2,1.4,3,2c0,0,0,0,0,0
			c1,0.7,2,1.3,3.1,1.9c2.7,1.6,5.5,3,8.5,4.2c1.6,0.7,3.2,1.3,4.8,1.8c1.7,0.6,3.5,1.1,5.3,1.6c1.2,0.3,2.4,0.6,3.6,0.8
			c4.9,1,10,1.5,15.1,1.5c8.4,0,16.5-1.4,24-3.9c11.1-3.7,20.9-10,29-18L154,137.3z"/>
		<path class="st2" d="M147.5,25.3c1.3,1,2.5,2.1,3.7,3.2C150,27.4,148.7,26.4,147.5,25.3z"/>
		<path class="st2" d="M143.6,22.4c1.3,0.9,2.6,1.9,3.9,2.9C146.2,24.3,144.9,23.4,143.6,22.4z"/>
		<path class="st4" d="M141.8,59.4c1.7,5.1,2.7,10.7,2.7,16.4c0,5.7-0.9,11.3-2.7,16.4c-0.3,0.8-0.5,1.6-0.9,2.4c0,0,0,0,0,0
			c-1.7,4.3-3.9,8.2-6.6,11.8c0,0,0,0,0,0c-0.4,0.5-0.7,0.9-1.1,1.4c-3.3,1.1-6.8,1.6-10.5,1.6c-5.2,0-10.1-1.1-14.5-3.2
			c12.3-6.6,20.6-19.6,20.6-34.6c0-2.7-0.3-5.4-0.8-7.9c-0.1-0.6-0.3-1.3-0.4-1.9c-0.1-0.3-0.2-0.6-0.3-0.9c-0.5-1.9-1.2-3.7-2-5.4
			c-0.4-0.9-0.8-1.7-1.3-2.6c-1.8-3.3-4.1-6.4-6.8-9.1c-0.9-0.9-1.8-1.7-2.8-2.5c-0.1-0.1-0.2-0.2-0.3-0.2c2.7-0.7,5.5-1,8.4-1
			c2.8,0,5.6,0.3,8.2,1C135.7,46.3,139.4,52.5,141.8,59.4z"/>
		<path class="st0" d="M142.9,22L142.9,22c-1.8-1.2-3.7-2.4-5.6-3.5h0C139.2,19.6,141.1,20.7,142.9,22z"/>
		<path class="st0" d="M142.9,22l-20.5,0.1c-3.2-1.4-6.6-2.6-10.1-3.5l25-0.1C139.2,19.6,141.1,20.7,142.9,22z"/>
		<path class="st4" d="M140.9,94.6c0.3-0.8,0.6-1.6,0.9-2.4C141.5,93,141.2,93.8,140.9,94.6z"/>
		<path class="st4" d="M134.3,106.4c2.7-3.6,4.9-7.6,6.6-11.8C139.2,98.8,137,102.8,134.3,106.4z"/>
		<path class="st4" d="M133.2,107.8c0.4-0.5,0.8-0.9,1.1-1.4C133.9,106.9,133.6,107.4,133.2,107.8
			C133.2,107.8,133.2,107.8,133.2,107.8z"/>
		<path class="st5" d="M133.2,107.8C133.2,107.8,133.2,107.8,133.2,107.8c-0.4,0.5-0.8,1-1.2,1.5
			C132.4,108.8,132.8,108.3,133.2,107.8z"/>
		<path class="st5" d="M133.2,107.8c-0.4,0.5-0.8,1-1.2,1.5c-0.8,0.9-1.6,1.8-2.5,2.7c-0.6,0.6-1.2,1.1-1.8,1.7
			c-0.6,0.5-1.2,1.1-1.8,1.6c-0.6,0.5-1.3,1-1.9,1.5c-1.3,1-2.7,1.9-4.1,2.8c-7.7,4.7-16.8,7.4-26.5,7.4c-14.1,0-26.9-5.7-36.2-15
			c-0.6-0.6-1.1-1.2-1.7-1.8c-0.5-0.6-1.1-1.2-1.6-1.8c-0.5-0.6-1-1.3-1.5-1.9c-1-1.3-1.9-2.7-2.8-4.1C46.2,97,43.9,91,42.8,84.6v0
			c0.3-0.2,0.6-0.4,0.8-0.6l7-7c2.6,19.2,19,34,38.9,34c6.7,0,13.1-1.7,18.6-4.7c4.4,2,9.3,3.2,14.5,3.2
			C126.3,109.4,129.9,108.9,133.2,107.8z"/>
		<path class="st4" d="M130.9,41.1c4.8,5.2,8.5,11.4,10.8,18.3C139.4,52.5,135.7,46.3,130.9,41.1C130.9,41.1,130.9,41.1,130.9,41.1z
			"/>
		<path class="st0" d="M130.9,41.1C130.9,41.1,130.9,41.1,130.9,41.1c-9.4-10.1-22.8-16.5-37.7-16.5c-2.5,0-5,0.2-7.4,0.5
			c0,0,0,0,0.1,0c2.4-0.3,4.9-0.5,7.4-0.5C108.2,24.6,121.6,31,130.9,41.1z"/>
		<path class="st5" d="M93.3,24.6c14.9,0,28.3,6.3,37.6,16.5c-2.6-0.6-5.4-1-8.2-1c-2.9,0-5.7,0.4-8.4,1c-0.1-0.1-0.3-0.2-0.4-0.4
			c-6.7-5.3-15.1-8.4-24.3-8.4c-5.6,0-10.9,1.2-15.8,3.3l6.3-6.3c1.7-1.7,3.7-3.1,5.8-4.3C88.3,24.8,90.7,24.6,93.3,24.6z"/>
		<path class="st5" d="M129.5,112c-0.6,0.6-1.2,1.2-1.8,1.7C128.3,113.1,128.9,112.6,129.5,112z"/>
		<path class="st4" d="M128.1,63.8c0.5,2.6,0.8,5.2,0.8,7.9c0,15-8.4,28-20.6,34.6c-5.9-2.7-10.9-7.1-14.5-12.5
			c11.3-3.4,19.5-13.8,19.5-26.2c0-7.6-3.1-14.4-8-19.4c-0.7-0.7-1.4-1.4-2.2-2c3.4-2.3,7.2-4.1,11.3-5.1c0.1,0.1,0.2,0.2,0.3,0.2
			c1,0.8,1.9,1.6,2.8,2.5c2.7,2.7,5,5.7,6.8,9.1c0.4,0.8,0.9,1.7,1.3,2.6c0.8,1.7,1.5,3.6,2,5.4c0.1,0.3,0.2,0.6,0.3,0.9
			C127.8,62.5,127.9,63.1,128.1,63.8z"/>
		<path class="st4" d="M127.6,61.9c0.2,0.6,0.3,1.3,0.4,1.9C127.9,63.1,127.8,62.5,127.6,61.9z"/>
		<path class="st5" d="M125.8,115.3c0.6-0.5,1.3-1.1,1.8-1.6C127.1,114.2,126.5,114.8,125.8,115.3z"/>
		<path class="st4" d="M125.4,55.5c0.8,1.7,1.5,3.6,2,5.4C126.8,59.1,126.2,57.3,125.4,55.5z"/>
		<path class="st4" d="M124.1,53c0.5,0.8,0.9,1.7,1.3,2.6C125,54.7,124.6,53.8,124.1,53z"/>
		<path class="st0" d="M123.3,172.9l-10.2,10.2c-0.4,0.4-0.8,0.8-1.3,1.2c-0.2,0.2-0.5,0.4-0.7,0.5c-0.2,0.2-0.5,0.3-0.7,0.5
			c0,0,0,0,0,0c-0.5,0.3-1,0.6-1.5,0.9c0,0,0,0,0,0c-0.3,0.1-0.5,0.3-0.8,0.4c0,0,0,0,0,0c-0.3,0.1-0.5,0.2-0.8,0.3
			c-0.1,0-0.2,0.1-0.3,0.1c-0.2,0.1-0.3,0.1-0.5,0.2c-2.9,1-5.9,1.2-8.9,0.7c-1.3-0.3-2.6-0.7-3.9-1.2h0c-0.5-0.2-1-0.5-1.5-0.8
			c-1.2-0.7-2.3-1.6-3.4-2.6l-12.9-13c2.3,0.8,4.7,1.5,7.1,2.1l8.4,8.4c2.5,2.5,5.8,3.9,9.4,3.9c3.6,0,7.1-1.4,9.7-4l6.6-6.6
			C119.3,173.7,121.3,173.3,123.3,172.9z"/>
		<path class="st0" d="M122.4,22.1l-25.3,0.2c-3.2,0-6.3,0.7-9.2,1.9c-0.7,0.3-1.4,0.6-2,1c-2.9,0.4-5.7,1.1-8.5,2l0.2-0.2
			c5.2-5.2,12.2-8.1,19.5-8.2l15.2-0.1C115.8,19.5,119.2,20.7,122.4,22.1z"/>
		<path class="st5" d="M119.8,119.6c1.4-0.9,2.8-1.8,4.1-2.8C122.6,117.8,121.2,118.7,119.8,119.6z"/>
		<path class="st4" d="M117.3,43.9c2.7,2.7,5,5.7,6.8,9.1C122.3,49.6,120,46.6,117.3,43.9z"/>
		<path class="st0" d="M117.3,174l-6.6,6.6c-2.6,2.6-6,4-9.7,4c-3.6,0-6.9-1.4-9.4-3.9l-8.4-8.4c6.8,1.7,13.9,2.6,21.2,2.6
			c4.1,0,8.1-0.3,12-0.8C116.7,174.1,117,174.1,117.3,174z"/>
		<path class="st4" d="M114.3,41.2c0.1,0.1,0.2,0.1,0.3,0.2C114.4,41.3,114.4,41.2,114.3,41.2L114.3,41.2z"/>
		<path class="st0" d="M114.3,41.2L114.3,41.2c-0.1-0.1-0.3-0.2-0.4-0.4C114,40.9,114.1,41,114.3,41.2z"/>
		<path class="st6" d="M113.8,40.8c0.1,0.1,0.3,0.2,0.4,0.4c-4.1,1-7.9,2.8-11.3,5.1c-4.7-3.8-10.6-6-17.1-6
			C73,40.3,62.3,49.1,59.3,61c-1.2-0.3-2.5-0.1-3.5,0.9l-5.3,5.3c0.1-1.1,0.3-2.3,0.5-3.4c0.1-0.6,0.3-1.3,0.4-1.9
			c0.1-0.3,0.2-0.6,0.3-0.9c0.5-1.7,1.1-3.4,1.8-5l20.2-20.2l0,0c4.8-2.1,10.2-3.3,15.8-3.3C98.7,32.4,107.1,35.5,113.8,40.8z"/>
		<path class="st0" d="M113.1,183.1c-0.4,0.4-0.8,0.8-1.3,1.2C112.3,183.9,112.7,183.5,113.1,183.1z"/>
		<path class="st0" d="M111.1,184.8c-0.2,0.2-0.4,0.3-0.7,0.5c0,0,0,0,0,0C110.7,185.1,110.9,185,111.1,184.8z"/>
		<path class="st0" d="M110.4,185.3C110.4,185.3,110.4,185.3,110.4,185.3c-0.4,0.3-0.8,0.5-1.2,0.7
			C109.6,185.8,110,185.6,110.4,185.3z"/>
		<path class="st0" d="M110.4,185.3c-0.4,0.3-0.8,0.5-1.2,0.7c-0.1,0.1-0.2,0.1-0.3,0.1C109.5,185.9,109.9,185.6,110.4,185.3z"/>
		<path class="st0" d="M109,186.2c-0.3,0.1-0.5,0.3-0.8,0.4C108.5,186.4,108.7,186.3,109,186.2C109,186.2,109,186.2,109,186.2z"/>
		<path class="st0" d="M108.9,186.2c-0.2,0.1-0.5,0.3-0.7,0.4c0,0,0,0,0,0C108.4,186.4,108.7,186.3,108.9,186.2z"/>
		<path class="st0" d="M108.2,186.6c-0.3,0.1-0.5,0.2-0.8,0.3C107.7,186.8,107.9,186.7,108.2,186.6
			C108.2,186.6,108.2,186.6,108.2,186.6z"/>
		<path class="st0" d="M108.2,186.6c-0.3,0.1-0.5,0.2-0.8,0.3h0C107.7,186.8,107.9,186.7,108.2,186.6z"/>
		<path class="st0" d="M107.4,186.9c-0.1,0-0.2,0.1-0.3,0.1C107.2,187,107.3,186.9,107.4,186.9z"/>
		<path class="st0" d="M107.1,187c-0.2,0.1-0.3,0.1-0.5,0.2c0,0,0,0,0,0C106.8,187.1,107,187.1,107.1,187z"/>
		<path class="st1" d="M116.4,174.1c-3.9,0.6-7.9,0.8-12,0.8c-7.3,0-14.4-0.9-21.2-2.6l0,0c6.8,1.7,13.9,2.6,21.2,2.6
			C108.4,175,112.4,174.7,116.4,174.1z"/>
		<path class="st0" d="M106.6,187.2C106.6,187.2,106.7,187.2,106.6,187.2c-1.8,0.7-3.8,1-5.7,1c-1.1,0-2.2-0.1-3.2-0.3c0,0,0,0,0,0
			C100.7,188.4,103.8,188.2,106.6,187.2z"/>
		<path class="st4" d="M105.2,48.3c5,5,8,11.8,8,19.4c0,12.4-8.2,22.8-19.5,26.2c-3.6-5.5-5.7-12-5.7-19C88,63,94,52.5,103,46.3
			C103.8,46.9,104.5,47.6,105.2,48.3z"/>
		<path class="st7" d="M103,46.3C94,52.5,88,63,88,74.8c0,7,2.1,13.6,5.7,19c-2.5,0.8-5.1,1.2-7.9,1.2c-14.6,0-26.5-11.4-27.3-25.9
			l2.3-2.3c1.4-1.4,1.4-3.6,0-5c-0.4-0.4-1-0.7-1.5-0.9c3-11.9,13.7-20.7,26.5-20.7C92.3,40.3,98.3,42.5,103,46.3z"/>
		<path class="st6" d="M93.7,93.8c3.5,5.4,8.6,9.7,14.5,12.5c-5.5,3-11.9,4.7-18.6,4.7c-19.9,0-36.3-14.8-38.9-34l7.9-7.9
			C59.3,83.5,71.3,95,85.9,95C88.6,95,91.2,94.6,93.7,93.8z"/>
		<path class="st0" d="M97.8,187.8C97.7,187.9,97.7,187.9,97.8,187.8c-0.6-0.1-1.1-0.2-1.6-0.4c0,0,0,0,0,0
			c-0.3-0.1-0.5-0.2-0.8-0.3c-0.3-0.1-0.6-0.2-0.9-0.3c-0.2-0.1-0.4-0.2-0.6-0.3C95.1,187.2,96.4,187.6,97.8,187.8z"/>
		<path class="st0" d="M97.7,187.8c-0.5-0.1-1.1-0.2-1.6-0.4C96.7,187.6,97.2,187.7,97.7,187.8z"/>
		<path class="st0" d="M95.4,187.2c0.3,0.1,0.5,0.2,0.8,0.3C95.9,187.4,95.6,187.3,95.4,187.2z"/>
		<path class="st0" d="M93.9,186.6c0.2,0.1,0.4,0.2,0.6,0.3c-0.5-0.2-0.9-0.4-1.4-0.6C93.4,186.4,93.6,186.5,93.9,186.6L93.9,186.6z
			"/>
		<path class="st0" d="M93.9,186.6c-0.3-0.1-0.5-0.2-0.7-0.4c0,0,0,0,0,0c-0.2-0.1-0.5-0.3-0.7-0.4
			C92.9,186.1,93.4,186.4,93.9,186.6z"/>
		<path class="st0" d="M92.4,185.8c0.2,0.1,0.5,0.3,0.7,0.4c-1.5-0.8-2.8-1.8-4.1-3l-12.9-13h0l12.9,13
			C90.1,184.3,91.2,185.1,92.4,185.8z"/>
		<path class="st0" d="M85.9,25.1C85.9,25.1,85.9,25.1,85.9,25.1c-2.9,0.5-5.8,1.1-8.5,2L61.2,43.3l16.2-16.3
			C80.2,26.2,83,25.5,85.9,25.1z"/>
		<path class="st0" d="M77.4,27.1c2.7-0.9,5.5-1.5,8.4-2c-2.1,1.1-4,2.6-5.8,4.3l-6.3,6.3c-0.1,0-0.3,0.1-0.4,0.2
			c-4.4,2-8.3,4.7-11.6,8h0l-0.6-0.6L77.4,27.1z"/>
		<path class="st0" d="M81.9,156.6c1.2,0.3,2.4,0.6,3.6,0.8C84.3,157.2,83.1,156.9,81.9,156.6z"/>
		<path class="st0" d="M83.2,172.4L83.2,172.4c-2.4-0.6-4.7-1.3-7-2.1h0l0,0C78.4,171.1,80.8,171.8,83.2,172.4z"/>
		<path class="st0" d="M51.1,140.3l32,32c-2.4-0.6-4.8-1.3-7.1-2.1h0l-54-54c-0.2-0.5-0.4-1.1-0.6-1.7c-0.6-1.8-1.1-3.6-1.5-5.4
			l24.3,24.3c1.1,1.2,2.2,2.4,3.3,3.5c0.4,0.4,0.9,0.8,1.3,1.3c0.7,0.7,1.4,1.3,2.1,1.9L51.1,140.3z"/>
		<polygon class="st0" points="76.1,170.3 76.1,170.3 76.1,170.3 		"/>
		<path class="st0" d="M73.8,35.7L73.8,35.7c-0.1,0.1-0.3,0.1-0.4,0.2C73.5,35.8,73.7,35.8,73.8,35.7z"/>
		<path class="st0" d="M73.8,35.7L53.6,56c0.1-0.1,0.1-0.3,0.2-0.4c0.4-0.9,0.8-1.7,1.3-2.6c1.8-3.3,4.1-6.4,6.8-9.1
			c3.3-3.3,7.3-6.1,11.6-8C73.5,35.8,73.7,35.8,73.8,35.7z"/>
		<path class="st0" d="M71.8,153.2c1.6,0.7,3.2,1.3,4.8,1.8C75,154.5,73.3,153.9,71.8,153.2z"/>
		<path class="st3" d="M71,137.4c0.9,0.4,1.9,0.8,2.8,1.2C72.9,138.2,71.9,137.8,71,137.4z"/>
		<path class="st0" d="M61.8,43.9L61.8,43.9c-2.7,2.7-4.9,5.7-6.8,9.1C56.8,49.6,59.1,46.6,61.8,43.9z"/>
		<path class="st0" d="M61.2,43.3l0.6,0.6c-2.7,2.7-5,5.7-6.8,9.1c-0.5,0.8-0.9,1.7-1.3,2.6c-0.1,0.1-0.1,0.3-0.2,0.4l0,0L42.9,66.7
			c0.3-1.6,0.6-3.2,1.1-4.8c0.2-0.6,0.4-1.3,0.6-1.9c0,0,0,0,0,0L61.2,43.3z"/>
		<path class="st0" d="M60.2,147.2c1,0.6,2,1.3,3.1,1.9C62.3,148.4,61.3,147.8,60.2,147.2z"/>
		<path class="st3" d="M60.5,131.3c1.6,1.2,3.3,2.3,5.1,3.3C63.8,133.6,62.1,132.5,60.5,131.3z"/>
		<path class="st8" d="M60.8,61.9c1.4,1.4,1.4,3.6,0,5l-2.3,2.3c0-0.5,0-1,0-1.5c0-2.3,0.3-4.5,0.8-6.7
			C59.9,61.1,60.4,61.4,60.8,61.9z"/>
		<path class="st0" d="M57.3,145.1c1,0.7,2,1.4,3,2C59.2,146.5,58.2,145.9,57.3,145.1z"/>
		<path class="st8" d="M55.9,61.9c0.9-0.9,2.3-1.2,3.5-0.9c-0.5,2.1-0.8,4.4-0.8,6.7c0,0.5,0,1,0,1.5L50.7,77
			c-0.2-1.7-0.4-3.5-0.4-5.3c0-1.5,0.1-3,0.3-4.5L55.9,61.9z"/>
		<path class="st0" d="M57.1,112c-0.6-0.6-1.2-1.2-1.7-1.8C55.9,110.8,56.5,111.4,57.1,112z"/>
		<path class="st0" d="M54.4,143c0.9,0.7,1.9,1.4,2.9,2.1C56.3,144.4,55.3,143.7,54.4,143z"/>
		<path class="st0" d="M53.8,108.4c0.5,0.6,1.1,1.3,1.6,1.8C54.8,109.6,54.3,109,53.8,108.4z"/>
		<path class="st0" d="M55,53c-0.4,0.8-0.9,1.7-1.3,2.6C54.2,54.7,54.6,53.8,55,53z"/>
		<path class="st0" d="M53.6,56L53.6,56c-0.7,1.6-1.3,3.3-1.8,5C52.3,59.2,52.9,57.6,53.6,56z"/>
		<path class="st5" d="M42.9,66.7L53.6,56c-0.7,1.6-1.3,3.3-1.8,5c-0.1,0.3-0.2,0.6-0.3,0.9c-0.2,0.6-0.3,1.3-0.4,1.9
			c-0.2,1.1-0.4,2.2-0.5,3.4l-8.5,8.5C42.1,72.6,42.4,69.6,42.9,66.7z"/>
		<path class="st3" d="M52.4,124.5c-5.7-5.7-10.3-12.5-13.5-20.1C42,112,46.7,118.8,52.4,124.5z"/>
		<path class="st0" d="M51,140.2c0.2,0.2,0.4,0.3,0.5,0.5c-0.1-0.1-0.3-0.3-0.4-0.4L51,140.2z"/>
		<path class="st0" d="M51.5,61.9c-0.2,0.6-0.3,1.3-0.4,1.9C51.2,63.1,51.4,62.5,51.5,61.9z"/>
		<path class="st0" d="M44.4,133.6l6.6,6.6c-0.7-0.6-1.4-1.3-2.1-1.9c-0.4-0.4-0.9-0.8-1.3-1.3C46.5,135.9,45.4,134.8,44.4,133.6z"
			/>
		<path class="st8" d="M50.7,77l-7,7c-0.3,0.3-0.5,0.5-0.8,0.6c-0.5-2.9-0.8-5.8-0.8-8.8c0,0,0-0.1,0-0.1l8.5-8.5
			c-0.2,1.5-0.3,3-0.3,4.5C50.3,73.5,50.4,75.3,50.7,77z"/>
		<path class="st0" d="M48.9,138.3c0.7,0.6,1.4,1.3,2.1,1.9C50.3,139.6,49.6,138.9,48.9,138.3z"/>
		<path class="st0" d="M49.5,102.3c0.9,1.4,1.8,2.8,2.8,4.1C51.3,105.1,50.3,103.8,49.5,102.3z"/>
		<path class="st0" d="M47.6,137c-1.2-1.1-2.3-2.3-3.3-3.5l0.1,0.1C45.4,134.8,46.5,135.9,47.6,137z"/>
		<path class="st0" d="M25.8,78.8L44.5,60c0,0,0,0,0,0l0,0l-9.9,9.9L25.8,78.8c-0.1,1.7-0.2,3.4-0.2,5.2l0,0
			C25.6,82.2,25.7,80.5,25.8,78.8z"/>
		<path class="st0" d="M44.5,60c-0.2,0.6-0.4,1.2-0.6,1.9C44.2,61.3,44.3,60.6,44.5,60L44.5,60z"/>
		<path class="st0" d="M44.5,60c-0.2,0.6-0.4,1.2-0.6,1.9c-0.4,1.6-0.8,3.1-1.1,4.8L34,75.5c0.1-1.9,0.3-3.8,0.6-5.6L44.5,60z"/>
		<path class="st0" d="M44.4,133.6l-0.1-0.1c-2.9-3.3-5.5-6.8-7.8-10.6C38.8,126.7,41.5,130.3,44.4,133.6z"/>
		<path class="st1" d="M44.3,133.5L20,109.2c-0.3-1-0.5-2.1-0.7-3.1c0,0,0,0,0,0c-0.9-4.3-1.5-8.8-1.7-13.3c0.6-1.1,1.4-2.1,2.3-3
			l5.8-5.8c0,0,0,0,0,0c0,10.4,2.1,20.3,5.9,29.2c0.2,0.5,0.5,1.1,0.7,1.7c0.7,1.6,1.5,3.2,2.4,4.8c0.1,0.1,0.1,0.2,0.2,0.3
			c0.5,1,1.1,2,1.7,3C38.8,126.7,41.4,130.2,44.3,133.5z"/>
		<path class="st8" d="M42.8,84.6L42.8,84.6c-0.5,0.3-1.1,0.4-1.6,0.4c-0.9,0-1.8-0.3-2.5-1c-1.4-1.4-1.4-3.6,0-5l3.4-3.4
			c0,0.1,0,0.1,0,0.1C42.1,78.8,42.3,81.7,42.8,84.6z"/>
		<path class="st3" d="M36.7,98.6c0.3,1,0.6,2,1,2.9C37.3,100.6,37,99.6,36.7,98.6z"/>
		<path class="st3" d="M35.9,95.7c0.3,1,0.5,2,0.8,3C36.4,97.7,36.1,96.7,35.9,95.7z"/>
		<path class="st8" d="M35.5,87.2c1.4,1.4,1.4,3.6,0,5l-0.4,0.4c-0.4-2.1-0.7-4.1-0.9-6.2C34.7,86.5,35.2,86.8,35.5,87.2z"/>
		<path class="st0" d="M34.8,119.9c0.5,1,1.1,2,1.7,3C35.9,121.9,35.3,120.9,34.8,119.9z"/>
		<path class="st8" d="M35.1,92.5l-1.1,1c-0.7,0.7-1.6,1-2.5,1s-1.8-0.3-2.5-1c-1.4-1.4-1.4-3.6,0-5l1.5-1.5c1-1,2.4-1.3,3.6-0.8
			C34.4,88.4,34.7,90.5,35.1,92.5z"/>
		<path class="st0" d="M25.8,78.8l8.8-8.8c-0.3,1.8-0.5,3.7-0.6,5.6l-8.4,8.4C25.7,82.2,25.7,80.4,25.8,78.8z"/>
		<path class="st0" d="M32.3,114.9c0.7,1.6,1.5,3.2,2.4,4.8C33.8,118.1,33,116.5,32.3,114.9z"/>
		<path class="st0" d="M25.8,78.8l-8.4,8.4c0,0,0,0,0,0L25.8,78.8z"/>
		<path class="st0" d="M17.4,87.2l8.4-8.4c-0.1,1.7-0.2,3.4-0.2,5.2l-5.8,5.8c-0.9,0.9-1.7,1.9-2.3,3c-0.1-1.5-0.1-3.1-0.1-4.7V87.2
			z"/>
		<path class="st0" d="M25.7,84c0,10.4,2.1,20.2,5.9,29.2C27.7,104.2,25.6,94.3,25.7,84C25.6,83.9,25.6,83.9,25.7,84L25.7,84
			C25.7,83.9,25.7,83.9,25.7,84z"/>
		<path class="st0" d="M21.6,114.6c0.2,0.6,0.4,1.1,0.6,1.7l0,0C21.9,115.7,21.7,115.2,21.6,114.6z"/>
		<path class="st0" d="M21.6,114.6c0.2,0.6,0.4,1.1,0.5,1.7l-4.9-4.9c-6.6-6.6-6.5-17.4,0.1-24.1l0.1-0.1c0,0,0,0,0,0
			c0,0.3,0,0.6,0,0.9c0,1.6,0,3.1,0.1,4.7c-2.9,5.2-2.2,11.8,2.1,16.1l0.3,0.3l0,0C20.5,111,21,112.8,21.6,114.6z"/>
		<path class="st0" d="M20,109.2L20,109.2c-0.3-1-0.5-2.1-0.7-3.1C19.5,107.1,19.8,108.2,20,109.2z"/>
		<path class="st0" d="M20,109.2l-0.3-0.3c-4.3-4.3-5-10.9-2.1-16.1c0.2,4.5,0.8,9,1.7,13.3c0,0,0,0,0,0
			C19.5,107.1,19.8,108.2,20,109.2z"/>
		<path class="st0" d="M17.6,92.7c0.2,4.5,0.8,9,1.7,13.3C18.4,101.7,17.8,97.3,17.6,92.7C17.5,92.8,17.6,92.7,17.6,92.7z"/>
		<path class="st0" d="M17.6,92.7C17.6,92.7,17.5,92.8,17.6,92.7c-0.1-1.5-0.1-3.1-0.1-4.7c0-0.3,0-0.6,0-0.9v0.9
			C17.4,89.6,17.5,91.2,17.6,92.7z"/>
	</g>
	<g>
	</g>
</g>
</svg>
