<?xml version="1.0" standalone="no"?><!DOCTYPE svg PUBLIC "-//W3C//DTD SVG 1.1//EN" "http://www.w3.org/Graphics/SVG/1.1/DTD/svg11.dtd"><svg t="1571392459513" class="icon" viewBox="0 0 1102 1024" version="1.1" xmlns="http://www.w3.org/2000/svg" p-id="1302" xmlns:xlink="http://www.w3.org/1999/xlink" width="215.234375" height="200"><defs><style type="text/css"></style></defs><path d="M329.262468 1023.99662a35.243637 35.243637 0 0 1-35.243636-35.243636v-113.455543H122.145754A122.145754 122.145754 0 0 1 0 753.151687V265.051459A265.534249 265.534249 0 0 1 265.051459 0H980.062772a122.145754 122.145754 0 0 1 122.145754 122.145754v488.100228a265.534249 265.534249 0 0 1-265.051459 265.051459H535.896393l-184.908395 141.457336a34.760847 34.760847 0 0 1-21.72553 7.241843zM265.051459 70.487273a193.115817 193.115817 0 0 0-193.115817 193.115817V753.151687a52.141271 52.141271 0 0 0 52.141271 52.141271h205.185555a35.243637 35.243637 0 0 1 35.243637 35.243636V917.300131l138.077809-105.730909a34.760847 34.760847 0 0 1 21.24274-7.241844h313.330413a193.115817 193.115817 0 0 0 193.115818-193.115817V122.145754a52.141271 52.141271 0 0 0-50.210113-51.658481z" fill="#515151" p-id="1303"></path><path d="M315.744361 446.097538m-82.557012 0a82.557012 82.557012 0 1 0 165.114024 0 82.557012 82.557012 0 1 0-165.114024 0Z" fill="#515151" p-id="1304"></path><path d="M551.345658 446.097538m-82.557012 0a82.557012 82.557012 0 1 0 165.114024 0 82.557012 82.557012 0 1 0-165.114024 0Z" fill="#515151" p-id="1305"></path><path d="M786.464165 446.097538m-82.557011 0a82.557012 82.557012 0 1 0 165.114023 0 82.557012 82.557012 0 1 0-165.114023 0Z" fill="#515151" p-id="1306"></path></svg>