<?xml version="1.0" standalone="no"?><!DOCTYPE svg PUBLIC "-//W3C//DTD SVG 1.1//EN" "http://www.w3.org/Graphics/SVG/1.1/DTD/svg11.dtd"><svg t="1571392452089" class="icon" viewBox="0 0 1024 1024" version="1.1" xmlns="http://www.w3.org/2000/svg" p-id="5336" xmlns:xlink="http://www.w3.org/1999/xlink" width="200" height="200"><defs><style type="text/css"></style></defs><path d="M516.009212 1024h-8.490096A508.46246 508.46246 0 0 1 0 516.009212v-8.490096A508.46246 508.46246 0 0 1 507.519116 0h8.490096a508.46246 508.46246 0 0 1 507.990788 507.519116v8.490096a508.46246 508.46246 0 0 1-507.990788 507.990788z m-8.490096-958.437586a442.428374 442.428374 0 0 0-441.956702 441.956702v8.490096a442.428374 442.428374 0 0 0 441.956702 441.956702h8.490096a442.428374 442.428374 0 0 0 441.956702-441.956702v-8.490096a442.428374 442.428374 0 0 0-441.956702-441.956702z" fill="#515151" p-id="5337"></path><path d="M289.134961 619.305389a33.017043 33.017043 0 0 1-23.11193-56.128973l225.930907-225.930907a33.017043 33.017043 0 0 1 47.167204 0l220.270843 220.270843a33.017043 33.017043 0 0 1-47.167204 47.167204l-197.158913-197.630585-202.818977 202.818977a33.017043 33.017043 0 0 1-23.11193 9.433441z" fill="#515151" p-id="5338"></path></svg>