<?xml version="1.0" encoding="utf-8"?>
<!-- Generator: Adobe Illustrator 22.1.0, SVG Export Plug-In . SVG Version: 6.00 Build 0)  -->
<svg version="1.1" id="图层_1" xmlns="http://www.w3.org/2000/svg" xmlns:xlink="http://www.w3.org/1999/xlink" x="0px" y="0px"
	 viewBox="0 0 200 200" style="enable-background:new 0 0 200 200;" xml:space="preserve">
<style type="text/css">
	.st0{fill:#82B7BF;}
</style>
<path class="st0" d="M141.7,187.5H87.5c-4.6,0-8.3-3.7-8.3-8.3s3.7-8.3,8.3-8.3h54.2c3.5,0,6.5-2.2,7.7-5.5l21-58.3
	c0.9-2.6,0.6-5.5-1-7.7c-1.6-2.3-4.1-3.6-6.9-3.5h-50.7c-4.6,0-8.3-3.7-8.3-8.3c0-1.8,0.6-3.6,1.7-5c9.7-13,14.9-28.8,14.9-45
	c0-4.6-3.7-8.3-8.3-8.3l0,0c-4.6,0.2-8.3,4-8.3,8.6C103.4,69.7,77.8,95.5,46,96h-8.3v75h16.7v-62.5c0-4.6,3.7-8.3,8.3-8.3
	s8.3,3.7,8.3,8.3v70.8c0,4.6-3.7,8.3-8.3,8.3l0,0h-25c-9.2,0-16.7-7.5-16.7-16.7v-75c0-9.2,7.5-16.7,16.7-16.7l0,0H46
	c22.8-0.3,41.1-18.9,41.1-41.7c0.2-13.7,11.3-24.8,25-25c13.8,0,25,11.2,25,25c0.1,14.5-3.3,28.8-9.9,41.7h35.5
	c13.8,0.1,24.9,11.3,24.9,25.1c0,2.9-0.5,5.7-1.5,8.4L165,171C161.5,180.9,152.1,187.4,141.7,187.5z"/>
</svg>
